<?xml version="1.0" encoding="utf-8"?>
<!-- Generator: Adobe Illustrator 19.2.0, SVG Export Plug-In . SVG Version: 6.00 Build 0)  -->
<svg version="1.1" id="Layer_1" xmlns="http://www.w3.org/2000/svg" xmlns:xlink="http://www.w3.org/1999/xlink" x="0px" y="0px"
	 viewBox="0 0 1280 376" style="enable-background:new 0 0 1280 376;" xml:space="preserve">
<style type="text/css">
	.st0{display:none;fill:#270B20;}
	.st1{fill:#270B20;}
	.st2{fill:#F3E2C9;}
	.st3{fill:#476792;}
	.st4{display:none;}
	.st5{display:inline;fill:#EEDDC4;}
	.st6{display:none;fill:#BF191B;}
	.st7{fill:#C33435;}
	.st8{fill:#BF191B;}
	.st9{display:inline;}
	.st10{fill:#C5411E;}
	.st11{fill:#B02721;}
	.st12{fill:#C29AB4;}
	.st13{fill:#9A879A;}
	.st14{fill:#556080;}
	.st15{fill:#F7B563;}
	.st16{fill:#BA98B1;}
</style>
<g id="background">
	<rect y="-0.1" class="st0" width="1280" height="376.1"/>
	<rect class="st1" width="1280" height="376"/>
</g>
<g id="body">
	<path class="st2" d="M523-0.1c-45,21-45.3,6.8-68.2,68.9S404,234,404,234s-5.7,65-10.8,73s-84.5,69-84.5,69h162.9
		c0,0,26.1-33.1,29.3-40c3.2-6.9,40.1-119.6,40.1-119.6s9.7,124.5,23,159.7h304c12.3-26.6,45-158,45-158s38.3,117.7,41.1,124.9
		c2.8,7.2,10.9,33.1,10.9,33.1h99c0,0-54.1-216.7-55.5-224.8c-1.4-8-15.3-52.3-22.7-81.8S949,7.4,932,0L523-0.1z"/>
</g>
<g id="Layer_1_1_">
	<title>bg2</title>
	<path class="st3" d="M1014.9,363.7c-5.6-6-11.1-12.2-17-17.9c-6-6-7.2-13.5-8-21.3c-0.4-2-0.9-4-1.6-6c0.4-0.5,1.1-1,1.1-1.5
		c0.2-6.9,0.6-13.7,0.4-20.6c-0.3-7.2-1.2-14.3-1.9-21.5l4.3,5.1l1.8,2.1v0.1l1.9,4l2.2,8.1c-0.3,12.8-0.2,25.6-0.9,38.4
		c-0.5,9,5.4,14.1,10,20.1l1.3-0.2l1.4-28.8c1.6-2.8,1.7-5.3,0.5-8.7c-2.1-5.5-2.6-11.7-3.8-17.5l1.5-0.6l9.3,14
		c1.4-10-3.4-16.5-7.5-23.3c-0.1-8.4,0.1-16.8-0.4-25.1c-0.5-10.2-1.6-20.4-2.4-30.6c-0.1-0.7-0.1-1.4,0.1-2
		c3.6-7.1-0.6-13.5-2.6-19.5c-3.1-9.5-8.4-18.3-12.8-27.4c-1.8-4.4-0.8-10.1-5.7-13.2l0,0l-2.3-5.7l-0.2-1.8c-0.4-3-0.5-6.1-1.1-9.1
		c-1.5-7.5-7.3-12.4-11.9-18c-1-1.8-1.5-4.4-3-5.3c-9.1-5.4-9.9-14.9-12-23.7c2.3,2,5,3.6,6.9,6c3.8,4.9,7,10.3,10.7,15.2
		c3.5,4.7,8.3,8.6,10.8,13.7c6.5,12.9,12,26.2,17.9,39.3l6.2,13.8c4.1,10.7,10,20.9,8.7,33c-0.1,0.7,0.7,1.5,1,2.2l3,47.9l0.1,5
		l-0.1,2c-0.1,4.1-0.5,8.2-0.3,12.2c0.1,5.5-2.5,11.5,3.2,15.9l0,0c12,20.1,19,42.4,28.2,63.8h-7c-0.9-3.9-1.3-8.1-2.8-11.7
		c-2.5-6.1-5.5-11.9-9-17.5c-3.2-5-7.5-9.3-11.3-13.9l-2.6-4.5l-1.7,0.5l-0.9,7L1014.9,363.7z"/>
	<path class="st3" d="M584.2,337.4l-1.1,0.4c-2.3-2.7-1.8-5.1,1-7.1c3.7-2.7,7.4-5.4,11.2-8.1c7.9-2,15.6-3,22.5,2.8
		c0.9,0.5,1.8,0.8,2.8,1l4.2,4.8l5.1-1.3l17.6,22.7c1-1,3.3-2.7,4.5-5c3.8-7.5,7.1-15.3,10.5-22.7L658,322l1.4-1.3
		c3,0,6.4,1,8.8-0.2c6.7-3.1,13-7.1,19.4-10.8l0.1,7.2l-6,4l-3.4,4.4l-0.2,0.3l-5.5,11.8c-1.5,7.4-0.6,15,2.5,21.9
		c2.4,5.6,5.1,11.1,7.7,16.6h-5c-2.9-5.6-6.2-11.1-8.6-16.9c-4.1-10-3.4-20.3,0.2-31.4c-7.8,7.2-11.5,15.3-10.8,24.7
		c0.6,7.9,2.1,15.7,3.2,23.6h-5c-1.2-5.4-2.3-10.8-3.9-16.1c-0.5-1.5-2.6-3.7-3.8-3.7c-2.8,0.2-5.1,2.3-3.5,5.5
		c2.4,4.9,5.4,9.5,8.2,14.2h-11l-4.3-14.6c-3.5,1-5.7,1.7-7.9,2.4c-6.4,2.1-11.4,5.7-13.8,12.3h-6l1.4-4.4l-10.5,1.6l1.2-3.3
		c1.4-0.7,2.8-1.5,4.3-2.1c6.2-2.6,12.4-5.1,18.6-7.6l11.5-3l-4.2-5.4l0,0l-1.2-1l-1-0.9l-1.8-2.2l0,0c-3.6-4.7-8.5-4.3-13.5-3.6
		l6-10.6l-7.5-3.7c-3.1-3.6-6.7-5-11.4-3C596.1,329.5,587.9,329.5,584.2,337.4z"/>
	<path class="st3" d="M446,376h-14l1.1-2.9c0.3-1.1,0.7-2.1,1.2-3c4.6-5.6,9.2-11.1,13.8-16.7L456,338c0.2-0.1,0.2-0.3,0.1-0.5
		l7.3-15.2c0.4-1.8,1-3.5,1.6-5.3c6.5-16,7-33,8.1-50c0.5-7.3,2.3-14.6,3.4-21.9c0.4-2.7,1.1-5.6,0.5-8.2
		c-1.5-6.9-4.8-13.5-5.3-20.4c-0.8-10,0.2-20.1,0.5-30.1l1.6,1.4l0.4,4.2l0.8,13.8l2.2,25.6l1.3-0.1l1.2-2.1l0.9,4.7
		c0,4.1-0.3,8.2-0.1,12.3c0.1,1.6,1.1,3.1,1.7,4.6c-0.4,5.1-0.8,10.3-1,15.4c0.1,1.9,0.3,3.8,0.8,5.7c-0.7,6.9-1.2,13.9-2.3,20.8
		c-0.7,4.8-3.2,9.4-3.2,14.1c-0.1,9.9-1.9,19.4-4.3,28.9c-1.9,7.9-6,15.1-11.9,20.8c-0.8,0.2-1.9,0.2-2.4,0.7c-3,3.5-6,7.1-8.9,10.7
		L446,376z"/>
	<path class="st3" d="M856,332c-8.9-0.1-17.8-1.1-26.4,2.2l-5.8,4.5l-9.9,7.5l0.6,1.4l13.7,0.8v0.1l-17,7.2
		c-0.5,4.9-0.2,6.8,1.9,7.8c5.4,2.7,10.9,5.3,16.3,8c0.4,0.4,0.8,0.8,1.1,1.3l-4.1,0.5l1.7,2.7h-7l-13.4-11.6
		c-4.6,5.8-4.6,5.8-3.6,11.6h-20c-0.3-5.4,0.3-10.9-1-16.1c-1.9-7.8-5.1-15.3-7.8-22.9c-0.2-0.7-1.2-1.1-1.8-1.6l-7.6-6.3l-1.8-1.3
		l1.2-5.8c8,6,16.1,11.9,24,18.1s16.4,6.2,23.9-0.2c2.4-2,4.9-3.9,7.3-5.9l5.7-3.5c10.5-2.4,21.1-1.3,31.7-1.7l0.9,1.8L856,332z
		 M788.2,346.8L788.2,346.8l-7.6-6.1l-0.6,0.7l4,7.8l2.6,7c0.1,1.8,0.3,3.5,0.7,5.2c0.7,2,1.6,4,2.5,5.9c7,1.8,14.6-3.7,14.7-11
		c0-1.3-2.1-3.3-3.7-4c-2.8-1.2-5.9-1.6-8.9-2.3L788.2,346.8z"/>
	<path class="st3" d="M966.1,345.7c-3.5-7.9-6.9-15.8-10.4-23.7c-0.4-0.8-1-1.6-1.6-2.3l-0.2-1.7l3.6-10l16.3,29.9l2,4.2l0,0l4.1,10
		l2.2,7.1L982,376h-2c0.3-5.8-0.7-11.1-6.7-13.9l-0.8-1l-0.3-1.9c0.1-0.9,0.6-2,0.3-2.7C970.5,352.8,968.3,349.3,966.1,345.7z"/>
	<path class="st3" d="M627.7,1.8L638.2,7L630,8.9l-22.8-0.3c-3.3-2.1-6.6-4.3-9.8-6.5c-0.6-0.6-1-1.3-1.4-2.1h13
		c0.8,0.9,1.6,1.6,2.6,2.3c2.6,1.5,5.4,2.8,8.1,4.1c4.5,2.2,4.8-2.7,7.1-4.2C627.1,2,627.4,1.9,627.7,1.8z"/>
	<path class="st3" d="M668.3,14.9L668,0h9l-2.3,18.2L668.3,14.9z"/>
	<path class="st3" d="M996.2,357l-0.2,19h-4v-23.4L996.2,357z"/>
	<path class="st3" d="M467.8,374.1l0.2,1.9h-8l6.2-16c0.2,1.7,0.4,3.4,0.6,5.1L467.8,374.1z"/>
	<path class="st3" d="M791.8,8c-1.3-1.3-2.5-2.6-3.6-4c-0.8-1.3-1.6-2.6-2.2-4h6c0.7,1.8,1.5,3.6,2.1,5.4c1,2.8,2.6,4.4,5.7,3.5
		C796.9,10.7,794.2,10.6,791.8,8z"/>
	<path class="st3" d="M1006,376c2.1-4.9-0.1-8.5-3.3-11.9c5.5,2.1,8.7,6,9.3,11.9H1006z"/>
	<path class="st3" d="M973.3,362.1c6,2.8,7,8.1,6.7,13.9h-2l-2.7-10.2L973.3,362.1z"/>
	<path class="st3" d="M577.3,237.8c5.5,1.9,10.7,1.6,15.4-2.3c1.1-1,2.4-1.8,3.8-2.4c9.9-3.3,15.2-11.2,19.8-19.8
		c5.6-1.8,11.3-3.6,16.9-5.3c3.5-1.1,7.2-5.4,6.8-8.2l6.2-13.5l1.2-2.1l-0.1,0.1l0.9-1.2l0,0l6.2-7.1l-1.3-1.4L645,180l0,0l-7.3,4.6
		l0.1,0.1l-5.5,3.5c-5.8,5-11.4,10.2-14.1,17.6l-6.5,2l0.3-6.8l-6.9-4.6l-1,14.2l-1.7,6.5c-1.7,3-2.3,7.1-7,7.8l-0.6-4.9l1.6-7.4
		l4.6-21.5c-12.5,7-17.7,18.4-24.9,28.1l0.1-0.1l-2.6,1l-2.3,0.2l-1.2-0.2l4.5-8.6v-0.1l0.9-1l0.1-0.1l5-6.7v-0.2l1.4-1.4l2.2-3.2
		l-9.1-2.6c4.1-2,8.2-4.3,12.4-6.1c3-1.3,5.7-2.6,5.5-6.4l3.4-8.3l0.2-1.3l-0.9,0.3c-2.1,0.9-4.2,2.4-6.3,2.5
		c-6.8,0.3-13.6-0.2-20.4,0.2c-4.3,0.3-8.5,1.6-12.7,2.5l-1.1,0.1l-11.3-8.1c2.1-0.6,4.4-0.5,6.4,0.2c4.1,1.2,8.1,2.5,12.2,3.7
		l6.6-1.4c8.5,1.5,16.2-1.9,24.3-3.6c4.1-0.9,5.7-3.1,5.9-5.9l-13.8,0.4l6.4-3.1L604,156l11.9-2.2c-2.6,5-2.1,10.9,2.2,13.8
		c4.3,2.9,5.1-3.3,8.1-4.2l2-1l1.8-1.4c3.4-1.5,6.8-2.9,10.1-4.6c2.9-1.5,5.5-3.8,8.5-4.7c5.5-1.6,11.3-2.2,16.9-3.6
		c1.1-0.3,1.8-2.2,2.6-3.3l1.6-8.7c-0.1-2.5-0.3-5-0.5-8.3L653,131l-4.9,1.2c-3.2-1.5-11,2.6-11.3,6.1c-0.1,1.5,0.5,3,0.8,4.6
		l0.1,0.3l-1,0.7l-2.4-0.2c0.1-1.8,0.2-3.6,0.3-5.4l-1.4-0.8l-5.4,7.4l-21.6,5l0.9-4c-6.8,0.8-13.5,1.3-20,2.5c-3,0.7-5.8,2-8.2,3.9
		c-6.6,4.7-13.5,8.5-22,7.5l12.8-5.8l-7.4-1.4c-9.4-2.5-11.5-4.1-11.7-9.5c1,0.4,1.8,0.6,2.7,1c9.2,4.4,18.4,10.2,28.1,1.1
		c0.5-0.5,1.1-0.8,1.8-0.9c8.4-1.4,16.9-2.8,25.3-4.2c1.5-0.1,3.1-0.1,4.6,0l-3.8-4.3l-0.8-1.2h0.1c-1.2-0.9-2.4-2.4-3.7-2.5
		c-3.6-0.4-7.2-0.4-10.7-0.2c-1.8,0.1-3.5,1.2-5.2,1.8l0,0l-4,2l0,0l-6,2.1l-6.9,0.5l-0.2-1.2l9.9-4.4l-3-1.8l8.7-5.2l16,2.1l-7-8.1
		c-0.3-5.2-3-3.7-5.7-2l-13.8-3.9l0.5-2.3l13.7,2.8c-1.9-6-4.5-11.1-3.7-17.9l6.8,11.4l3.1,3.4c-0.1,0.2,0,0.4,0.3,0.5h0.1l1.3,2.7
		h1.2l1.8-8.7c0.1-3.3,0.1-6.6,0.2-9.9L602,85.1c4.6,7.5,3.9,16,4.4,24.3l-1.2,4.9l-0.7,2.6l4.6,7.7l0.3,1.1l2.6,4.2v0.1l7.6,4.2
		l5.2-4.5l-4.6-1.9c-0.1-0.2-0.3-0.2-0.6-0.2l-3.3-2l0,0l-4.2-4.9l13.1,3c2.9,1.9,6.6,2.2,9.8,0.7c11.2-4.4,22.4-8.5,33.8-12.2
		c2.9-1,4.2-2.1,4.1-5c2.2-3.9,5.7-4.4,9.7-3.7l-1,8.2l27.8,6.2l1.3-4.5c4.2-0.5,7,1.5,9.1,4.7l-2.6,3.6c-3.4,3-6.9,6-10.2,9.2
		c-0.6,0.6-0.8,1.7-1.2,2.6l-4.1-0.5c-6.2-8-14.4-7.5-23.5-6c0,2.9,0,5.5,0,8l-1.6,6.5l0.8,6.5c7.3-0.8,14.9,1,19.4-6.6
		c0.3-0.6,1.4-0.8,2-1.1l0.4,1.2l-3.2,10.7c-0.7,0.7-1.3,1.9-2.2,2c-8.5,1.4-16,7.2-25.1,5.5v-8.2c-5,0.8-9.3,1.1-13.5,2.1
		s-8.5,2-12.2,4c-5.1,3-10,6.3-14.6,10c-1.3,1-1.7,3.1-2.4,4.7l-2.9,1.5l-9,1.9c0.4-1.5,1.6-3.4,1.1-4.5c-1.2-3-3.2-5.6-5-8.7
		c-4.7,4.4-5.4,9.9-5.8,15.5l1.7,5.3l0.4,0.2h0.5l1.3,0.8c-1,3.7,1.7,8.1,5.7,9.4c1.7-0.7,3.7-1,4.9-2.2c6.2-6,11.7-12.9,20.2-16
		l8.9-4l8.2-1.9l1.8-0.1l2.2-0.3l4.6,0.1L648.5,196l-5.3,9.6c-0.8,3.2-1.7,6.4-2.6,9.6c-2.3,8.1-5.5,16.2-2.9,24.9l-4.3,1.7
		c-2.5-7.6-1.2-15,1.9-22.2c-7.1,0.8-8.5,6.3-10.2,11.3c-3.7-4.5-1.9-7.7,1.5-10.8c1.7-1.8,3.2-3.6,4.6-5.6l-1.5-1.8l-9.8,6.2
		l-3.7,5.2c-0.2,0.2-0.3,0.5-0.2,0.7c-4.1,7.2-6.4,14.8-4,23.1c0,0.2,0,0.4,0,0.5l-3.9,1.6l-1.8-15.4l-6.6,3.4
		c-5.5,1.4-11,3.5-16.6,3.8c-3.3,0.2-6.9-2.4-10.3-3.7L577.3,237.8z M676.1,151.9v4.7l9.6-5.4l-0.4-0.6L676.1,151.9z"/>
	<path class="st3" d="M665.2,43.6c7.8,1.5,15.8,2.6,23.4,4.8c3.4,0.9,6.2,3.1,7.9,6.2c2.2,4.4,6.6,7.6,9.5,11.7
		c4.9,6.8,9.5,13.9,14.2,20.9l3.6,8.8c-0.3,5.3-0.6,10.6-0.9,15.9l-10.9-4.7c-2.9-4.5-5.5-9.1-8.7-13.3c-2-2.7-5.2-6.6-7.5-6.4
		c-2.6,0.2-4.9,4.5-7.3,7l-6.8-6.3l0.1-1.1c1.7-3.2,3.8-6.3,5-9.7c0.7-2.1,0.8-5.2-0.2-7.1c-2.8-5.2-6-10.2-9.5-15
		c-2.1-2.8-5-5-7.5-7.5L665.2,43.6z"/>
	<path class="st3" d="M601.5,29.9c2.2-1.3,4.2-3,6.5-3.7c7.8-2.2,15.6-4.8,23.6-5.7c6.5-0.7,13.3,0.7,19.9,1.2
		c0.8,0.1,1.6,0.2,2.5,0.3l27,16.6l-0.9,2.3L666,37.8c-1.1-0.5-2.1-1.4-3.2-1.5C659.5,36,656,36,652.6,36c-0.6-0.8-1.3-2.3-1.8-2.2
		c-4.3,0.7-6.4-3.7-9.6-4.3c-5.7-0.8-11.6-0.9-17.3-0.3c-2.5,0.2-4.6,3.1-7.1,3.6c-12.2,2.1-22.4,8-31.4,16.2
		c-1.5,1.6-2.9,3.3-4.2,5.2c-3.8,4.9-7.5,9.9-11.3,14.8l-1.9-1.1l6.7-12.6c-13.9,3.3-20.6,13.2-27,23.7c-0.2-1.4,0-2.9,0.5-4.2
		c4.6-9.8,11.1-17.7,21.5-22c5.4-2.2,10.1-6,14.9-9.3c3.2-2.1,5.9-5,9.1-7c3.6-2.3,7.6-4,12.3-6.5L601.5,29.9L601.5,29.9z"/>
	<path class="st3" d="M872.3,240.1l8-12.3l1.8-3.4l0.9-0.6l6.7-10.8c3-5.7,6.1-11.3,5.2-18.1c0.1-0.3,0-0.6-0.1-0.9v-2l8.1-16.5
		L900,204c-0.2,0.2-0.3,0.5-0.2,0.7l-4,11.2l0,0c-2,2.2-3.8,4.6-5.5,7c-1.2,2.3-2.3,4.6-3.1,7l-0.1,2.9c-1.1,0.7-2.9,1.1-3.1,2
		c-0.9,3.7-1.4,7.5-2,11.3l-7.4,17.6l-0.6,3.6l-3.9,19.6l-0.9,0.2l-2.2-6.2l2-14.5l1.2-3.5l3.2-10.6l-1.9-1.1L863,260l-2.8,3.9
		l-5,5.2l-2.4,0.7l-1-1.9l2.2-4l0,0l1.8-1.9c2.7-0.8,3-2.3,1.2-4.3l11.5-12l0.1-0.2l-0.2-0.2l1-1l0.2,0.1l1.7-2.2l-0.1-0.1
		L872.3,240.1z"/>
	<path class="st3" d="M872.1,31.7c-19.3-8-38.8-14.2-59.4-6.8c2.2,6.9,10.7,10.9,9.9,20.2l-4.3-5l-8.4-9.3l-6.9-0.7l-1.9-0.2l-5-3.5
		L803,22c5.9-1.8,11.6-3.9,17.6-5.4c4.4-1.1,9-1.8,13.5-2.1c2.3-0.1,4.6,1.1,7,1.7c3.2,4.9,8.2,3.8,12.8,3.7l0.2,0.1l5.8,1.9L860,22
		l4,1.8c5.3,2.8,10.6,5.6,15.7,8.6c1.1,0.6,1.5,2.5,2.1,3.8L872.1,31.7z"/>
	<path class="st3" d="M827.2,116.8c2.9,1.9,5.1,2.6,7.5-1.3c1.4-2.2,4.8-4,7.5-4.3c9.7-1.3,19.4-1.9,29.7-2.8
		c-3.3,5.3-8.6,5.8-13.7,6.7c-6.9,1.2-13.8,2.7-20.7,4.2c-0.7,0.1-1.1,1.4-1.6,2.1l-2.4,2.8l-1.2,7.6l-2.3,5.4
		c-3.8-4-8.8-5.1-14-5.7l5.2-15.1L827.2,116.8z"/>
	<path class="st3" d="M773.9,122.3c-1.7,0.5-3.4,1.1-5.1,1.6c-1.5,0.4-3,0.8-4.6,1.2c-2.1,1-5.4,3.5-6.2,2.9c-2.6-2-4.3-5.2-6.3-8
		c-0.1-4.1,1-8.7-0.5-12.3c-2.6-6.5-0.4-12,1.7-17.7C755.9,103.4,764,113.5,773.9,122.3z"/>
	<path class="st3" d="M722.2,58.8c4.4-3.6,8.9-7.2,13.2-11c1.1-1.2,2.1-2.4,3-3.8c0.2,0.6,0.4,1.1,0.5,1.7c-0.3,5.7-1,11.4-0.7,17.1
		c0.3,5-1.6,9.8-5.3,13.2c-0.2-0.1-0.5-0.2-0.8-0.2l-3.9-5L722.2,58.8z"/>
	<path class="st3" d="M839.2,98.2l-2.5,3.7c5.4-0.4,10.3-0.1,15-1.2s9.1-3.4,13.6-5.2l1.2,1.7c-1.7,1.5-3.2,3.5-5.2,4.5
		c-7.8,4-16,6.5-24.9,5.3c-3.8-0.5-6.8-0.4-7.8,4.3c-0.2,1.1-1.6,1.9-2.5,2.8l-3.7-2.1l7-11.9L839.2,98.2z"/>
	<path class="st3" d="M761.1,28.2l9.8-6h0.7l-3.4,7.8l-12.4,17.9c-4.4,1.2-5.9-1.1-6-5c0-2.1,0-4.2-0.1-6.4l0.3-0.6l5-3.7l0,0
		L761.1,28.2z"/>
	<path class="st3" d="M846.7,149c7.3,1.8,12.6-2,17.8-6.3c3-2.5,6.3-4.5,10.2-7.3c0.3,2.6,0.5,4.1,0.7,5.6l-5.5,3.4l-16,9.9
		c-1.7,0.1-3.3,0.2-4.9,0.2c-4.3,0.1-8.5,0.1-12.8,0.1l1.8-1.3L846.7,149z"/>
	<path class="st3" d="M728.2,153.9l-1.2,0.6l-12.8-14.2l7.5-9.7c0.8,2.4,1.5,4.1,2,6C725.2,142.4,726.7,148.1,728.2,153.9z"/>
	<path class="st3" d="M777.1,38.1l13.1-9.9v-0.1l4.2-2.1l1.7,0.3l5,3.5c-6-2.8-9.3,3-14,4.4c-3.4,1-6.5,3.1-9.7,4.6
		C777.1,38.6,777,38.3,777.1,38.1z"/>
	<path class="st3" d="M816.1,93.6l-3.8,0.2h-0.1l-4.3-1.7l-1.2-1.7c2.8-0.6,5.7-1.2,8.5-1.9c1.5-0.4,3-1,5.7-2L816.1,93.6z"/>
	<path class="st3" d="M870.1,191.6l-1.7-3.7l-2.5-7.8c4,3.4,7.6,7,7.1,12.8h-0.3L870.1,191.6z"/>
	<path class="st3" d="M844.2,159.9h6.7l4.1,5.6c-3.6-1.2-7.2-2.4-10.7-3.7C844.1,161.8,844.3,160.6,844.2,159.9z"/>
	<path class="st3" d="M854,264l-7.8,2.2l-1.1-1.5l6.2-4.6l3.2,2.2L854,264z"/>
	<path class="st3" d="M782,15.9l-1.6,5.1c-3.4,2.1-4.3-1-5.8-2.9L782,15.9z"/>
	<path class="st3" d="M685.3,260.1l-3.1,0.3L685.3,260.1z"/>
	<path class="st3" d="M509.9,173.2l0.8,13c-6.8-10.7-5.5-22.7-6.9-34.2l-1.1-6.1l-0.1-1.9l-0.6-3.6c0.1-0.1,0.2-0.2,0.2-0.3
		c0,0,0-0.1-0.1-0.1v-5.8c-5.6,8.1-2.9,17.2-4,25.8c-0.4,9.8-0.9,19.6-1.3,29.4c-0.1,3.6,0,7.3-0.1,10.9c-0.1,5.6-0.3,11.1-0.5,16.7
		l-1.4,23.5l-5.4-10.5l-5.7-14l0.1-2c4.1-4.2,4.2-9.3,3.3-14.6c-0.3-1.6,0.3-3.3,0.3-4.9c0.2-6.9,0.4-13.9,0.5-20.8
		c0.1-8.6,0.1-17.3,0.3-25.9c0.1-3.3,0.5-6.6,0.8-10.8c-4.3,4.6-2.9,11-7.4,14.3c-0.1,0.1-0.2,0.3-0.2,0.5l-4.9,22.3l-0.9-18
		c-0.9-0.6-2.4-2-2.7-1.8c-2.4,1.6-4.6,3.5-6.8,5.3c-8.5,3.5-13.2,11.3-19.6,17.2c-2.5,2.3-4.5,6.1-9,4.5c0.9-1.7,1.6-3.6,2.8-5
		c5.2-6.1,10.5-12,15.7-18l12.1-6.3l7.8-3.9l5-7.4c4.1-11.5,8.3-23,12.3-34.5c1.3-3.7,2.4-7.5,3.6-11.2c0-0.3,0-0.6,0-0.9L508.9,78
		l2-1.9L511,76l1.7-2c0.1-0.3,0.2-0.6,0.2-1l11-11l0.2,2c-0.8,1.7-1.6,3.5-2.5,5.1c-1,1.8-2.9,3.3-3.4,5.3c-2.3,8.4-4.2,17-6.5,25.4
		c-1.2,4.3-3.1,8.5-4.5,12.8c-1.2,3.7-2,7.5-3.1,11.2c0.4,1.4,0.9,2.7,1.2,4.1c0.4,2,0.7,4.1,1.1,6.2c0.3,3.2,0.6,6.4,0.9,9.6
		C508.2,153.5,509.1,163.4,509.9,173.2z"/>
	<path class="st3" d="M577.3,237.8l-4.5,0.2l-4.6-5.2l1-1.2L577.3,237.8z"/>
	<path class="st3" d="M518.2,54.2l-9.1,9.6l-5,0.7c-1-3.5,0-5.6,3.4-7.5c4.5-2.5,8.4-6,12.5-9.1l3.9,1.8l-0.2,0.2L518.2,54.2z"/>
	<path class="st3" d="M951.4,312.1L945,297l-0.1-1.1l-0.6-1l-0.4-1.9l-9.9-33l-6-18.1c0-0.9,0-1.9,0-2.8V238l-1.2-6
		c-1.3-11.8-3-23.5-3.7-35.3c-0.4-6.4,1-12.9,1.5-19.4c1.2-15.9,2.8-31.7,3.5-47.6c0.5-11-0.1-22-5.8-31.9c-0.9-1.5-2.6-2.6-4.7-4.6
		l-2,14.6c-0.6-0.9-1.1-1.8-1.5-2.8c-1.4-5-2.7-10-4-15c-0.1-3.7,0.5-7.6-0.4-11.2c-1.6-6.4-4-12.6-6-19l1.9-4.1l0.3,0.3l1.5,1.6
		l3.3,3.3c1.1,1.8,2.1,3.6,3.3,5.3c3.2,4.6,6.4,9.1,9.6,13.6v0.1l2.1,3.8c1.3,1.4,2.4,3,3.4,4.6c2.3,4.2,4.3,8.6,6.4,12.9
		c-2.5,1.2-3.4,3.1-1.5,4.5c3.3,2.4,2.4,4.9,1.5,7.8c-0.3,0.9-0.6,2.1-0.2,2.8c3.7,5.7,2.6,12.1,2.4,18.2c-0.3,10-1.4,20-2,30.1
		c-0.1,1.8,0.6,3.7,1,5.6l-1.1,6.8c-0.1,0.2-0.1,0.4,0,0.5l-1.8,5.3l-0.1,1.1l-1.7,7.8c-3.6,14.1-2.1,28.1-0.1,42.2l1.8,8l0.1,3.9
		l1.9,9.8l0.1,0.3l2.3,9.5l1.7-0.4c-1.6-2.9,3.1-6.7-2.1-9.2l-0.4-11l0.2-9.6c2.1,7.1,2.5,14.9,8,20.6l7.9,18.1l0,0l7.8,10.9
		l0.2,0.4l-2.5,3.4l-8.5-10.2c-0.6,1.9-0.1,3.4,0.2,4.9c1.2,6.3,2.3,12.6,3.4,18.9l-2.6,9.4C951.7,311.9,951.6,312,951.4,312.1z"/>
	<path class="st3" d="M987.9,243.3c3.8,9.1,7.6,18.3,11.2,27.5c0.5,1.4-0.1,3.1-0.2,4.7c-12.6-8.7-18.1-22-23.1-35.6l-1.8-7
		l-0.2-1.9l-1.8-7.2l0,0l-1.3-6.9l-0.8-13.1l3.8,2.3l9.5,20.2C982.4,232.6,985.3,237.9,987.9,243.3z"/>
	<path class="st3" d="M974,169.2l2.5,13l1.1,17.8l-1.4-0.1l-6-8L968,188l0,0l-1.8-8.2l-0.3-1.8l-1.8-4.2c-0.6-1.6-1.1-3.3-1.6-5
		c-1.5-7.9-3-15.7-4.4-23.6c-0.2-4.6-0.3-9.2-0.5-13.8l8.1,6.7l3.6,5.8c0.2,3.6,1,7.3,0.5,10.8C968.8,160.4,970,165.1,974,169.2z"/>
	<path class="st3" d="M984,269.9l-2,6.3l-2.7-10l1.6-0.7L984,269.9z"/>
	<path class="st3" d="M679.7,260.9c-2.7-0.6-5.6-2.1-7.6,1.2l-15.7,0.6c0,0.4-0.1,0.8-0.1,1.3l0,0l-3.4,0.1l-0.3,0.1h-0.3l-12.5,7.4
		l-1.3-1.4l1.4-6.5c0.1-5.4,1.9-10.9-1.6-15.9l-3.9,0.5c0.5,5.9,1,11.9,1.5,17.8l0.4,6.8c-0.9,1.7-1.5,3.6-2.8,4.9
		c-3.4,3.6-7.2,6.9-10.8,10.3l1.2,1.4l13.8-9.7l12.2-9l16.1-6.7l-9.4-0.1l9.4,0.1l6-1.9l0,0L679.7,260.9z"/>
	<path class="st3" d="M809,319.9l0.7,6.6c-1.8-1.3-3.3-2.2-4.7-3.4c-5.2-4.4-10.4-8.9-15.6-13.3l-13.2-5.5l-9.8-8.3l1.3-3.4
		c0.7,0.7,1.5,1.3,2.3,1.8c6.3,2.9,12.6,5.8,19,8.6h-0.1l1.1,2c4.2,2.8,8.4,5.5,12.6,8.3c1.2,0.8,2.3,1.8,3.4,2.7l2,3l0,0l1,1V319.9
		z"/>
	<path class="st3" d="M553,42.1c3.2-1.9,6.6-3.6,9.7-5.7c5.2-3.4,10.2-7.1,15-11.2c3.2-2.8,6.6-3,10.5-3.3c3.8-0.3,7.5-1.4,11.3-2
		c4.2-0.7,8.4-1.4,12.5-2.1l1.4,0.9c-5.9,2.3-12,4.1-17.5,6.9c-6.7,3.3-12.9,7.6-19.4,11.3c-2.2,1.3-4.6,2.2-7,3.3L552.8,44
		c0-0.3,0-0.7,0-1C553,42.7,553,42.4,553,42.1z"/>
	<path class="st3" d="M595.8,373.2l-7.4-4.1l0.7-2.1l7.1,1.1L595.8,373.2z"/>
	<path class="st3" d="M937.2,76.8l-5.2-5.9c0-1,0-2,0-3c8.9,2.3,15,8.8,21.9,14.3c12.4,9.9,21.7,22.4,30.1,35.7
		c2.5,3.7,5.2,7.3,8.3,10.5c0.8,0.9,2.8,0.6,4.2,0.9c-2.8,2.5-5.7,2.1-8.6,0.2c0-0.3-0.3-0.5-0.6-0.5c-0.1-0.2-0.2-0.3-0.4-0.4
		c0-0.3-0.2-0.5-0.4-0.5l0,0l-4.6-5c-7.8-13-17.6-24.8-29-34.9C948,84,942.4,80.6,937.2,76.8z"/>
	<path class="st3" d="M909,110.1c3.7,9.9,4.1,19.9,0.7,29.9c-3.5,10.3-7.5,20.5-11.2,30.8c-0.6,1.7-1,3.4-1.6,5.1
		c1-7.5,1.7-15,3.1-22.4C902.9,138.9,906,124.5,909,110.1z"/>
	<path class="st3" d="M863.9,72.6c0.4,0.5,0.8,1.1,1.1,1.6c-4.2,4-8.5,8-12.7,12l-4.3-1l2.1-2.7L863.9,72.6z"/>
	<path class="st3" d="M828.2,90l-0.2-1.5l4.2-10.9l1,0.2c0,3.9,0.1,7.7-0.1,11.6c0,0.8-1.4,1.5-2.1,2.2l-1.6-0.4L828.2,90z"/>
	<path class="st3" d="M848,85.2l4.3,1l-3.9,4.7l-6.3,0.1L848,85.2z"/>
	<path class="st3" d="M809.7,30.8l-1.8,0.5l-5.1-1.2L809.7,30.8z"/>
	<path class="st3" d="M751.9,237.2c0.2-3.5-1.6-5.9-4.4-6.3c-5.7-0.9-7.8-6.4-12.3-8.6l-0.8,1.9l-0.7,1.8
		c-0.7,7.9-1.3,15.8-2.2,23.6c-0.1,0.8-2,1.3-3,2l-1,0.7c0,0,0,0,0,0.1l-7.3,3c0,0.2-0.1,0.4-0.1,0.6l3.5,0.5
		c-2.1,2.5-6,3.8-10.1,3.9c4.1-0.1,8.1-1.5,10.1-3.9l-3.5-0.5h-17.9l-0.2,1.3l0,0v3.5h25.8l0.2,3.2l0.3,1v0.1c-0.4,10-0.8,20-1.1,30
		c-0.1,2,0.3,4-0.1,5.9c-0.2,0.9-1.9,1.4-2.9,2.1l-2.1-0.3l-17.7,0.6l-6,1.5c0,1.9,0.1,3.9,0.1,5.8c8.7-2.9,17.6-3.1,26.6-1.8
		c3.1,0.5,4.3,1.6,4.3,4.7c0.1,11.2,0.9,22.4,0.4,33.5c-0.5,9.7-2.4,19.3-3.7,29h20l1.1-5.9l0.9-9.2l2.4-44.5l-0.2-5.4l-2.2-11.7
		V274l1.7-0.2l1.5,3.2c0.3-8.8,0.5-17.5,0.8-26.3c0.2-1.9,0.4-3.8,0.8-5.7C752.5,242.4,751.8,239.8,751.9,237.2z"/>
	<path class="st3" d="M844.6,275.3l7.2-7.3l1.1,1.8l0.2,0.3c-2.2,2.8-4.7,5.5-6.5,8.5c-1.4,2.4-2.1,2.8-3.5,0.3l1.2-3.7L844.6,275.3
		z"/>
	<path class="st3" d="M844,15.9l9.9,4c-4.7,0.1-9.6,1.2-12.8-3.7L844,15.9z"/>
	<path class="st3" d="M854.2,20l5.8,1.9L854.2,20z"/>
	<path class="st3" d="M860.1,22l4,1.8L860.1,22z"/>
	<g>
		<path class="st3" d="M664.8,195l-2.1,0.3C663.6,195.3,664.3,195.3,664.8,195z"/>
		<path class="st3" d="M658.5,195.8l4.2-0.5c-0.2,0-0.4,0-0.6-0.1C661,194.9,659.7,195.5,658.5,195.8z"/>
		<path class="st3" d="M674.1,188.1L674.1,188.1l1.7-1.6c0.3-6.8,0.5-13.6,0.8-20.5l-4.9,1.7c0.8,1.6,2.1,3.1,2.2,4.7
			C674.3,177.6,674.1,182.9,674.1,188.1c0-5.2,0.1-10.5-0.2-15.7c-0.1-1.6-1.5-3.2-2.2-4.7L668,168c0.1,4.9,0.4,9.8,0.2,14.6
			c-0.3,3.1-0.8,6.2-1.4,9.2l0,0c-0.4,1.5-0.9,2.6-2,3.2l10.1-1.2c0.1-0.3,0.2-0.6,0.1-0.9l-1.3-1.5c-1.4,0.9-2.7,2.8-4.1,2.9
			c1.4-0.1,2.7-2,4.1-2.9L674.1,188.1z M669.1,194.2c0.1,0,0.3,0,0.4,0C669.4,194.2,669.2,194.2,669.1,194.2z"/>
	</g>
	<path class="st3" d="M831.9,140.2l2-8.2c4.2,2.7,7.2,6.9,8.4,11.8l-7,1.3L831.9,140.2z"/>
	<path class="st3" d="M530.1,72.5c-4.4-4,0.3-5.9,2-8.5l1.7-1.9l2.4-3.7l1.8-2.3l0.1-0.1l1.9-0.1l2,1.1L530.1,72.5z"/>
	<path class="st3" d="M563.5,131.8l-5.1-3.6c3.8-2.8,7.3,2.7,10.3-1.1l2.8,1.1L565,134L563.5,131.8z"/>
	<path class="st3" d="M580,161.3l-7,4.1l-11.2-0.7C568.2,160.9,574.2,162,580,161.3z"/>
	<path class="st3" d="M542,52.1l9.3-7c-1.4,2.2-2.7,4.5-4.3,6.6c-1.5,1.9-3.2,3.6-4.9,5.3l-2-1.1L542,52.1z"/>
	<path class="st3" d="M532.1,53.1l1.6,2.5l-2.1,2.2l-7.4,6.2l-0.2-2L532.1,53.1z"/>
	<path class="st3" d="M523.9,49.7l-3.9-1.8l11.1-7.9l1,1.1C531.2,45.3,527.7,47.6,523.9,49.7z"/>
	<path class="st3" d="M518.2,54.2l5.5-4.2L518.2,54.2z"/>
	<path class="st3" d="M903.8,60l-5.1-6.7l2.5-4.3l4.5,6.9L903.8,60z"/>
	<path class="st3" d="M906.1,56.3l1.5,1.6L906.1,56.3z"/>
	<path class="st3" d="M887.9,245.3c0.1-3.6,0.2-7.3,0.3-10.9l1.8,1.7c0.1,2-0.3,4.1,0.4,5.9c2.2,5.8,1.8,11.3-0.2,16.8l-1.6,0.1
		L887.9,245.3z"/>
	<path class="st3" d="M614.1,192.9c-0.2-3.2-0.3-6.5-0.5-9.9l3.9-1.2L614.1,192.9z"/>
	<path class="st3" d="M111,257.7l-0.2,0.9l-0.7-0.6L111,257.7z"/>
	<g id="Layer_3" class="st4">
		<path class="st5" d="M523-0.1c-18.8,7.9-33.9,20.3-57.1,50s-24.4,65.2-34.3,95.8s-15.6,67.5-27.8,101.7
			c-12.6,35.3-40.1,57.3-63.5,73.5S263.2,376,263.2,376H446c0,0,43.9-33.9,48.6-43.1s17.5-35.4,22.6-50.4
			c5.1-15,23.8-66.2,23.8-66.2s2.1,50,3,57.4s14.1,68.2,15.8,78.3c1.7,10,4.2,23.9,4.2,23.9h304c0,0,22.4-86,19.8-74
			s14.6-48,14.6-48l9.6-38.1c0,0,11.6,62.4,14.9,71.1c3.3,8.7,28.3,56.1,30,63.1s8.1,26,8.1,26h99c0,0-26-97.4-24-90
			s-19.2-94.5-19.2-98.8S987,84.5,985.8,69.4s-10.3-30.1-16.5-37.2S932,0,932,0L523-0.1z"/>
	</g>
	<path class="st3" d="M494.7,66.2c-0.6,0.6-1.2,1.1-1.8,1.6c-1.2,0.7-2.4,1.2-3.7,1.8l-1.2-4c-3.5,2-7.3,3.6-10.3,6.2
		c-6.5,5.6-12.7,11.7-19,17.6l-0.3,0.2l-0.7,0.8v0.1c0,0.2-0.2,0.3-0.3,0.3l-6.6,6.6l0,0c0,0.2-0.1,0.4-0.3,0.5l-2.2,3.7
		c-1.3,2.8-2.9,5.6-4,8.5c-3.5,9.1-7,18.3-10.4,27.5c-1.3,3.4-3.4,6.8-3.3,10.2c0.2,8-4.2,14.4-6.4,21.5
		c-3.2,10.3-5.6,20.8-7.4,31.4c-1.3,7.9-0.8,16.2-1.1,24.3l-2.9,22l-0.1,3l-0.5,2.6L412,254c-1.4,10.2-2.7,20.3-4.1,30.4
		c-0.1,0.6-1.1,1.1-1.7,1.6c-0.1,0.3-0.1,0.5-0.1,0.8l0.1,1.3v0.1c-4,8.8-3.6,18.2-4,27.5l-11.5,9.1c0,0-13.8,13.2-16.3,13.7
		s-8,4.6-8,4.6L329.7,376h10.5l25.4-21.9l0.5,0.4l-12.9,17.2l0.9,0.6l27-29.2l20.1-17.4c-1.2,11.7-3.3,23.3-5,34.9
		c-0.8,5.2-2.2,10.3-3.3,15.4h2.6l1-4c-0.1-0.2,3-11.3,3.1-11.5l2.2-12.5l7.7-40.5h1.7l2.6,24.8h1.5c0-7.2,0-14.5,0-21.7
		c-0.1-10.7-0.9-21.5,0-32.1c1-12.5,3.5-25,5.4-37.5c1-7,1.9-14,2.9-21l0.3-3.9c-1.6-16.2,2.7-31.4,8.4-46.3
		c4.3-15.2,8.6-30.4,13-45.6c0.5-1.5,1.6-2.8,2.5-4.2c7.5-16.8,16.9-31.7,34.1-40.4c5.8-3,10.8-7.7,16.1-11.7
		C498,65.3,497.2,63.9,494.7,66.2z"/>
</g>
<g id="Layer_6">
	<path class="st6" d="M799.5,240.6c0.6-0.2,2.8-1.2,3.7-1.2s3-0.1,3-0.1s1.1,1.5,1.6,2.4s1.1,1.8,1.1,1.8l1.7,3.2l4.5,6.7
		c0,0,2.6,4.2,3.8,5.1c1.2,0.8,3.4,0.5,4.2,1.6s3.7,4.2,4.4,4.5s3.6,0.9,7.6,3.3s7.5,4.5,10.4,8.8c2.9,4.4,6.2,15.2,6.1,17.6
		c-0.1,2.4,0.5,6.8,0.5,6.8l0.9,5.4l0.6-3.2c0,0,0-6.4-0.2-8.3s-0.8-7.4-0.8-7.4l0,0l0,0l0.5-0.6c0,0,1.7,3.2,2.4,4.8
		s3.4,7.7,4.1,9.1c0.6,1.4,2.6,5.9,2.6,5.9l0.8,1.9l0.8-1.2c0,0-5.3-14.4-6.2-16.6s-4.3-9.3-4.3-9.3s-2-0.5-2.5-1.5s-3.1-6.4-4-7.7
		c-0.9-1.3-2.2-4-4.3-5.9s-15-6.4-17.2-8.8c-2.2-2.5-8.1-5.7-8.7-7.5c-0.7-1.8-3.6-10.1-3.6-10.1s5.4-2,5.9-2.2s3.4-3.5,3.4-3.5
		l-2.7-4.1l-42.2-8.5c0,0,2.8,4.1,3,5.2c0.2,1,0.7,5.5,0.7,5.5l6.3,4.2c0,0,4.4,4.6,5.2,4.5c0.8,0,2.2-0.2,2.6,0.1
		c0.5,0.3,2.2,5.5,2.6,6.6c0.5,1.1,1.7,4.1,2.3,4.6s1,0.6,1,0.6l-2.6-6.3l0.3-2.2c0,0-0.5,1-0.8,0s-1.3-3.8-1.3-3.8
		S798.9,240.8,799.5,240.6z"/>
	<path class="st7" d="M849.6,213.5c0,0-1.9-16-2-16.6s-6.5-23.6-9.3-30.5s-12.2-19.7-14.2-21.8s-20.6-19.5-22.7-21.4l-4.5-14.4
		l-13,11c-2.2-0.2-4.1-0.3-5.1-0.2c-3,0.2-15.3,3.9-22.2,6.5c0,0-4.1-4.2-4.9-6.2s-0.2-9.2-0.2-9.2s-2.2-4.6-2.2-8.6
		s1.6-8.9,3.7-12.2s5.3-8.2,7.2-8.8c1.9-0.6,7-2.7,7-2.7l-7.7,0.6c0,0-10.7,5.7-12.4,10.3c-1.6,4.6-4.7,18.4-4.2,20.2
		c0.5,1.8-1.5,6.9-3.5,8.9s-6.8,3.7-9.8,5.6s-7.9,6.4-7.9,6.4l6.4,23.3c-2.1,2.3-11.7,19-9.1,36s8.8,25.9,16.2,32.4
		s12.3,8.6,12.3,8.6s30.7,6.9,45.8,6.2s43.8,0.2,54.3-8c0,0,3-3.5,3-6.2C850.7,220.4,849.7,215.5,849.6,213.5z"/>
	<polyline class="st7" points="751.7,269 765.4,300.4 764.7,347.9 761.9,370 761.2,376 746.2,376 749.3,339.1 750.6,316.5 
		750.4,311.1 748.2,299.4 750.5,296.8 	"/>
	<path class="st7" d="M831.6,344.1l3.4-3.1c0.5,3.4,1.1,6.9,1.6,10.4c0.8,5.4,1.6,10.8,2.2,16.4c0.3,2.8,0.2,5.3,0.4,8.2l-1-0.1
		c-0.5-6.6-0.7-13.4-3-19.2l-3.4,19.3h-1.1c1.3-7.6,1.9-16.2,1.5-23.6v-0.1L831.6,344.1z"/>
	<path class="st7" d="M847.6,229.2"/>
	<path class="st8" d="M772.3,148.4c-0.7,1.1-1.5,10.4-0.4,17.7c1.3,8.2,4.7,15.5,4.3,17.2c-0.8,3.2-0.2,21.8,0.8,24.3l8.7,13.1
		l10.4,14.8c0,0-4.3-9.6-4.4-10l-3.1-5.9l3.1-0.5l11.6,4.8l0.9-0.9l-8-4.6l-6.2-2.9l-6.2-6.5c-2.1-3-1.5-3.2-2-8.5s0.9-11,0.9-11
		l20.9,11.5l5.1,16l1.3-0.3l-2.2-12.1l15.4,3.6l4.6,14.8l1.3-0.4l-2.2-14.9l6.5-1.5l8.4,3.1l-8.9-6.1l-7.7,0.2l-16.4-5.1l11.8-4.9
		l8.6-1.6l-12-0.1l-14.4,3.6l-11.6-6.9c0,0-6.6-4.9-8.9-7.6c-2.3-2.7-4.5-10.5-4.5-10.5s2.5-2.8,5.6-4.4c3.1-1.6,9.9-0.7,9.9-0.7
		l5.3,1.4l2.4,0.9l3.1,4.9l1.5,5.6l0.7,8.9l1.4-0.8l0.9-9l-1.5-7.3l0.6-0.4l6.8,3.9l1.1,6.3l1.1-0.1l0.2-6.7l-2-3.7l-6.2-3.9
		l4.8-8.3l-1.1-1l-3.6,2.8l-5,4.1c-3.4-1.5-10.9-3.7-16.4-3.3c-5.5,0.5-10.7,3.8-10.7,3.8s0.2-15.7-1.2-16.8
		C774.4,146.5,772.3,148.4,772.3,148.4"/>
	<path class="st8" d="M753.1,228.6c-0.9,2-1.3,19.5-1.3,19.5l-0.9,24.6l14.4,29c0,0-0.7-15.5,0-17.6s2.6-7.8,2.6-7.8
		s12.9,3.7,14.4,4.9s6.8,5.5,6.8,5.5s3.8,2.2,5,3s10.8,8.4,12,10s1.5,2.2,3,4s5.3,6.5,6.5,8s4.9,6.1,4.9,6.1s3.3,4.6,4,6.1
		s5.3,12.7,5.3,12.7l2.2,9.4l0.9,8.7l0.2,5h3v-12.8v-10.2l3.8,4.3l4.9,8.7l4.3,10.1h3l-3-8l-5-9.5l-5.6-9.6c0,0-5.7-9.6-7.2-12.2
		c-1.6-2.6-7.4-8.8-7.4-8.8l-7.3-8.1c0,0,0.9,0.2,2.3,0.4c1.5,0.2,5,1.7,6.6,2.7s8,6.7,8,6.7l1.7-0.5c0,0-5.3-6.3-6.8-7.9
		s-5.2-4.6-5.2-4.6s-7.7-3.9-9.6-5.2c-1.9-1.2-6.4-4.8-9-5.8s-9-5.1-9-5.1l-0.5-2.1c-1.8-1.1-13.4-8-13.4-8s-6.8-2.4-8.3-4
		s-5.3-4.3-5.4-5.9c-0.1-1.6-0.4-1.8-0.3-3.7c0.1-2,1.3-24,1.3-24s7.5,9.1,8.9,10.6c1.4,1.4,7.1,7.6,8.8,9.1s4.7,4.2,6.4,5.8
		c1.6,1.6,8.5,7.3,9,8.9s2.8,8.5,2.8,8.5l1.1-2.2c0,0-0.7-6.9-2-8.3s-7.5-8.6-7.5-8.6s0.4-1.8,2-1.3s6.6,1.7,7.7,3.1
		s3.7,4.4,3.7,4.4l-3.2-5.9l-9.1-4.9c0,0-3,2.1-4.5,0.7s-6-5-7.2-6.9s-6.2-9.3-6.2-9.3s-3.1-5.2-3.9-7.5c-0.8-2.3-3.2-11.3-4.4-12.9
		c-1.3-1.6-4.8-2.7-6.9-2.7C762.3,217,753.9,226.5,753.1,228.6z"/>
	<path class="st8" d="M709.7,145.9c1-2.1,10-14.9,12-15.4s17.3-9.2,17.3-9.2s3.5-2.8,3.6-7.3c0.2-4.5,3.5-22.2,5.1-24.2
		s10.9-9.4,13.3-10.2c1.9-0.6,6.3-1,8-0.8s7.3,3.5,8.4,5.1s5.4,7.8,5.9,9S786,99,786,99s4.1,10.7,3.8,11.9s-2.6,3.7-3.9,4.7
		s-7.1,3.9-7.1,3.9l3.2,1.1l13-2.8l4.6-1l-2.6-8.1c0,0-0.3-1-1.3-4.2c-1-3.1-3.5-10.8-3.5-10.8s-0.9-2.6-1.2-3.8s-9.5-14.6-11-16
		s-10-4-10-4s-9.7-3.1-11.9-2.6s-34.6,24.3-35.2,26.2s1.7,19.2,0.9,20.9c-0.7,1.7-16.4,15.8-17,16.7s-6.6,8.8-7.7,10.6
		s-6.5,21.2-7.2,23.1s-3.7,10.2-3.7,10.2l3.7,2.1l-1.7,3.5c0,0,7.5-3.7,9.1-5.6s3.8-12.2,4.7-14.3S708.6,148,709.7,145.9z"/>
	<path class="st6" d="M837.5,227.2c-0.2,0.4-0.8,1.6-0.9,2.1c-0.1,0.5-0.2,1.7-0.2,1.7s0.8,0.7,1.3,1s1,0.7,1,0.7l1.8,1.2l3.7,2.9
		c0,0,2.3,1.7,2.7,2.5c0.4,0.7,0.1,2,0.7,2.5s2.3,2.3,2.4,2.8c0.1,0.4,0.4,2.1,1.5,4.6c1.2,2.4,2.2,4.5,4.6,6.4
		c2.4,1.9,8.4,4.3,9.8,4.4c1.4,0.1,3.9,0.6,3.9,0.6l3,0.8l-1.9,0.2c0,0-3.7-0.3-4.8-0.5s-4.2-0.8-4.2-0.8l0,0l0,0l-0.3,0.2
		c0,0,1.8,1.1,2.6,1.6c0.9,0.5,4.3,2.4,5,2.8c0.8,0.4,3.3,1.8,3.3,1.8l1.1,0.6l-0.7,0.4c0,0-8-3.8-9.2-4.4s-5.1-3-5.1-3
		s-0.2-1.2-0.7-1.5s-3.6-2.1-4.2-2.7c-0.7-0.6-2.2-1.4-3.2-2.8c-1-1.3-2.9-9-4.2-10.4s-2.9-4.9-3.9-5.4s-5.6-2.6-5.6-2.6
		s-1.4,3-1.6,3.3S833,240,833,240l-2.2-1.8l-2.8-24.8c0,0,2.2,1.8,2.8,2s3.2,0.7,3.2,0.7l2.1,3.8c0,0,2.4,2.8,2.4,3.2
		c-0.1,0.5-0.2,1.2-0.1,1.5c0.2,0.3,3.1,1.5,3.7,1.8c0.6,0.3,2.3,1.2,2.5,1.5c0.3,0.4,0.3,0.6,0.3,0.6l-3.5-1.8l-1.3,0.1
		c0,0,0.6-0.2,0-0.5c-0.6-0.2-2.1-0.9-2.1-0.9S837.7,226.9,837.5,227.2z"/>
	<g>
		<path class="st7" d="M998.7,346.1c-6-6-7.2-13.5-8-21.3c-0.4-2-0.9-4-1.6-6c-5-13.5-7.1-27.9-6.3-42.2l-2.7-10l1.6-0.7l3.1,4.3
			l3.9,5l4.3,5.1l1.8,2.1v0.1l1.9,4.1l1.4-3.8h0.1l-1.4,3.8l2.2,8.1c2.5,6.6,4.9,13.2,7.5,19.7c1.3,3.3,2.9,6.5,4.4,9.8
			c1.6-2.8,1.7-5.3,0.5-8.7c-2.1-5.5-2.6-11.7-3.8-17.5l1.5-0.6l9.3,14c1.4-10-3.4-16.5-7.5-23.3l-11-12
			c-12.6-8.7-18.1-22-23.1-35.6c-0.5-0.2-0.9-0.4-1.2-0.7c0.3,0.2,0.7,0.4,1.2,0.6l-1.7-6.9c0,0,0,0,0-0.1l-0.2-1.9l-1.8-7.2
			l-1.3-6.9c-0.5,1.3-1,2.6-1,3.8c0-1.2,0.5-2.5,1-3.8l-0.7-13.1l3.7,2.2v-4.8l-1.1-0.4l0,0l1.1,0.4v4.8l9.5,20.2l2.9,3.3l7.3,6.5
			l0.3-0.8l-15-33.2c-0.2,0-0.5,0-0.7,0l0,0l-0.5-2.1l-1.4-0.1l0,0l-6-8l-2.1-3.9l-1.9-8.2l-1.2,7.1h-0.1l1.3-7.1l-0.2-1.8l-1.8-4.2
			c-0.6-1.6-1.1-3.3-1.6-5c-1.5-7.9-3-15.7-4.4-23.6l-4.1-12.2c-0.6-1.3-1.3-2.5-2.2-3.7l0,0c0.9,1.1,1.6,2.4,2.2,3.7l-1.2-6.8
			l1.8-0.7l3,5.9l8.1,6.7l3.6,5.8l2.7,3.2c5.5,3.7,7.8,9.5,9.8,15.5l1.6-0.1l0.4-0.2c-0.4-3-0.5-6.1-1.1-9.1
			c-1.5-7.5-7.3-12.4-11.9-18l-1.4,2.7h-0.1l1.4-2.7c-1-1.8-1.5-4.4-3-5.3c-9.1-5.4-9.9-14.9-12-23.7c-0.2-0.1-0.3-0.2-0.5-0.2l0,0
			c-4-5.9-8.1-11.8-11.8-17.8c-2.3-3.6-4.1-7.6-6.1-11.4l-5.2-5.9l-4.2-0.8l-4,10.1v0.1l0,0l2.1,3.8c0,0,0,0,0-0.1
			c1.3,1.4,2.4,3,3.4,4.6c2.3,4.2,4.3,8.6,6.4,12.9l6.3,16.5c0,0,0,0,0,0.1l2,27.9l0,0l0.8,3.4l1.1,3l0,0l-1.1-3l0,0l0.3,3.1l0,0
			l-0.3-3.1l-1.1,0.3l-1,4.2l-1,6.7l0,0l-4.8,9.7l-1.2,6.8h5l0,0h-5c-0.1,0.2-0.1,0.4,0,0.5l-1.8,5.2c1.3-0.4,2.1-0.8,2.4-1.6
			c-0.3,0.8-1,1.3-2.4,1.6l-0.1,1.1l-1.7,7.8c-3.6,14.1-2.1,28.2-0.1,42.2l1.8,8l0.1,3.8l1.9,9.8l0.1,0.3l0,0l2.4,9.5l1.7-0.4
			c-1.6-2.9,3.1-6.7-2.1-9.2l-0.4-11l0,0c0.1-3.2,0.2-6.4,0.2-9.6L938,235l-1.4-29.8l2-0.3l8.7,20.2l11.1,31.9l2.1-0.6
			c-2-11-4-21.9-8.3-32.3l0,0h0.1l-1-3.3c-0.4-1.6-0.9-3.1-1.4-4.6c-2.5-6-5.1-12-7.7-18c-3.2-2.3-4-5.4-3.1-9.1l1.9-6V183l0.8-2.9
			l0.1-0.4v-0.1l3.1-6.4l-5,0.8l0,0l4.7-0.6l1.2-2.9l4.3-11.2l1.5-0.3l3,12.4c3,1.3,1.3,8.5,8.3,4.6l0.9,3.2l0,0L963,176
			c-7.1,3.9-5.3-3.3-8.3-4.6l3.7,10.4l0,0l0.5,1.6l1.7,10.3L960,197l0,0c0.2,0,0.4,0.2,0.3,0.4c0.8,6.1,1.3,12.2,2.3,18.2
			c2,11.9,4.5,23.7,6.4,35.7c1,6.7,2.2,13.7,1.2,20.2c-0.8,5-4.9,9.5-7.5,14.2l-2.5,3.4l-4.9,13.7l-2.6,9.4l2,6.2l3.6-10
			c1.2-4.8,1.7-10,6.9-12.6c-0.6-5.5,1.3-10,6.4-14.2c1.4,7.7,2.7,15.1,4,22.4c2.2,12.3,4.7,24.6,6.5,36.9
			c0.9,6.1,0.6,12.4,0.8,18.6l-0.1,16.7h10V353l4.2,4.4l6.6,7.1c5.5,2.1,8.6,6,9.3,11.9h11l-8.1-12.4
			C1010,358,1004.5,351.9,998.7,346.1z M1001.1,287.4l3.8,4.7c0.6-0.6,1.2-1.3,1.7-2l0,0c-0.5,0.7-1.1,1.4-1.7,2L1001.1,287.4
			L1001.1,287.4z M930.5,77.5l-0.2-2.5l-1.3,0.1l0,0l1.3-0.1L930.5,77.5L930.5,77.5z M938.5,245.4c-0.6-0.6-1.1-1.2-1.4-1.8
			C937.4,244.2,937.9,244.8,938.5,245.4z M945.4,106.6L945.4,106.6c1.4,0.2,4.3,0,5,1c1.4,2.3,2.3,3,3,2.9c-0.7,0.2-1.7-0.5-3.1-2.9
			C949.7,106.6,946.9,106.8,945.4,106.6z M947.7,113.3c-0.2,2.4-0.3,4.5-0.6,6.5c-0.3,1.2-0.6,2.3-1.1,3.4l0,0
			c0.4-1.1,0.8-2.3,1.1-3.4C947.4,117.7,947.4,115.7,947.7,113.3l8.1,4.1L947.7,113.3z"/>
		<path class="st7" d="M495.1,245.1c-0.2-1.4,0.4-2.8,0.6-4.2l-5.4-10.5c0.3,1.1,0.4,2.1,0.2,3c0.1-0.9,0.1-1.8-0.2-2.9l-5.7-14
			l0.1-2.1l-3.8-11.2l0,0l-2.2-19.7l-1.9-2.6l-2.3,7.4l0.4,4.2c4.3-0.1,2.3,3.6,2.8,5.4c0.7,2.5,0.2,5.3,0.2,8l1.3,0.1l0,0l-1.3-0.1
			c0-2.7,0.5-5.5-0.2-8c-0.5-1.8,1.5-5.5-2.8-5.4l0.8,13.8l3.7,16.5l0,0l0.9,7l0.9,4.7l0,0c-0.1,4.1-0.3,8.1-0.1,12.2
			c0.1,1.6,1.1,3.1,1.7,4.6c2.4-0.7,3.6-0.1,3.8,2.1c-0.2-2.1-1.4-2.7-3.8-2.1c-0.4,5.1-0.8,10.2-1,15.4c0.1,1.9,0.3,3.8,0.8,5.7
			l0,0c-0.7,7-1.2,13.9-2.3,20.8c-0.3,1.9-0.8,3.7-1.4,5.5c-3.4,2.7-6.8,5.4-10.3,8c-6.2,4.7-12.8,9.1-18.9,14
			c-0.4,0.3-0.8,0.7-1.2,1c0.9-3.2,1.8-6.4,2.7-9.6l3.3-14.7l-0.1-5.1l3.1-21l0.5-2.8l0.8-5.9l-0.9-7.4v-0.1l0.9,7.4l3.9-17.2l-9-1
			c-1.9,4.6-3.6,9.3-5.6,14c-3.1,7.4-6.3,14.7-9.5,22l-1.1,4l1.2,1.2l11.5-21.8l-2.4,30.5c0.9-1.5,1.4-3,1.6-4.6
			c-0.2,1.6-0.7,3.1-1.6,4.6c-0.5,1-0.9,2-1.2,3c-2,7-3.9,14-5.9,21l1.1,4c-0.8,1.2-1.6,2.4-2.2,3.7c-0.6,1.6-1.1,3.1-1.7,4.7
			c-3.4,3-6.8,6-10.2,8.9l4.9,5.6l0,0l-4.9-5.6c-3.8,1.8-7.6,3.8-11.6,5.5c-6.2,2.8-12.4,5.6-18.5,8.3l-3,1.9v1.5l19.7-7l-19,17.8
			c1.5-0.4,2.6-1.1,3.6-2c-1,0.9-2.2,1.6-3.6,2c-0.9,0.3-1.7,0.7-2.5,1.2c-5.2,3.2-10.4,6.5-15.7,9.8l-1.6,3.1
			c3.8-1.1,8.4-1.2,11.3-3.5c4.3-3.4,9-5.7,13.8-8.1l14-11.4l1.9-1.5l3.9-3.2l3.7-5.1c0,0,0,0,0.1,0l-3.7,5.1l12-8.3
			c-0.1,0.3-0.2,0.5-0.3,0.8c-2.3,5.7-5.1,11.1-7.7,16.7l0,0l-0.7,1.2l-7.2,12h3l7.6-12.4l0,0l-7.6,12.5h7l0,0h6l1.1-2.9l-2.2-8.1
			l0,0c3.8-8.5,8.1-16.8,11.4-25.6c0.6-1.7,1.2-3.5,1.8-5.2c2.4-2.2,4.9-4.4,7.3-6.6c3.8-3.4,7.9-6.6,11.9-9.8c2.5-2,4.8-4.2,7.5-6
			c1.4-0.9,3.2-1.1,4.9-1.6c0.3-0.1,0.5-0.2,0.8-0.3c-0.4,8.9-2,17.4-4.2,26c-1.9,7.9-6,15.1-11.9,20.8l-1.3,3.6l-3,15.7h4l6.2-16
			l3.7-4.9l0,0c-0.3,3.8-0.6,7.5-1,11.3c-0.3,2.6-0.7,5.2-1,7.8l0.2,1.9h2l4-28l-1.7,2.9l1.7-2.9c0.2-0.3,0.2-0.7,0-1
			c-4.6-1.9-1.1-5.3-1.3-7.9c-0.1-1.1,1.1-2.3,2.1-3.9l0,0c-1,1.7-2.2,2.8-2.1,3.9c0.2,2.7-3.3,6,1.3,7.9l2.2-5.7l0,0l2.1-6.4
			c1,8.7,0.3,16.5,4.9,23.7c0-9.9,0-18.9,0-27.9c0-2.8-0.3-5.6-0.3-8.4c0.1-7.3,0.1-14.5,0.6-21.8c0-0.1,0-0.2,0-0.3
			c0.9-2.8,1.3-5.4,0.6-6c0.9-8.8,2.1-17.5,2.6-26.3c0.6-9.2,0.1-18.5,0.1-27.7l1.3-0.2c0.7,1,1.2,2.1,1.5,3.3
			c1.5,9.8,2.9,19.6,4.3,29.5c1,7.1,1.4,14.3,5.9,20.5c0-5.9-0.4-11.8-1.1-17.7C498.3,265.6,496.6,255.3,495.1,245.1z M483.7,245.6
			L483.7,245.6c0-0.2,0-0.4,0.1-0.5C483.8,245.2,483.7,245.4,483.7,245.6z M431.8,361.9c-0.2-0.2-0.4-0.4-0.5-0.6l0,0
			C431.5,361.5,431.6,361.7,431.8,361.9l0.5-0.7L431.8,361.9z M486.5,266.6L486.5,266.6c0.6-4,0.1-8.1,0.2-12.2c0-0.3,0-0.6,0-0.8
			c0,0.2,0,0.5,0,0.8C486.6,258.5,487.1,262.6,486.5,266.6z"/>
		<path class="st7" d="M608.6,333L608.6,333l-3.8,1.5l-5.1,3.9l-1.4,0.6c0,0,0,0.1-0.1,0.1l-2.9,2.7l-0.2-0.1l-0.9,1l0.1,0.2
			l-1.4,1.6l0,0c-0.8,1.8-1.3,3.7-2.4,5.3c-5.9,7.9-9.9,16.5-10.9,26.4h3c3-10.4,8.4-20,15.7-28c3.1-3.5,7.4-5.9,11.5-8.2
			c-3.3,10.2-13.1,16.8-13,28.2l-0.5,5.2l0.2,2.8h4l1.9-2.8l1.2-3.3c-0.5-0.5-0.8-1-1.1-1.6c-0.8-6,7-20.3,12.7-23.4l1-0.7l6-10.6
			l-7.6-3.7L608.6,333z"/>
		<path class="st7" d="M837.6,346.7c-2.4-4.1-4.9-8.1-7.3-12.1l-5.8,4.5l4.4,9.8v0.1c3.7,8.8,4.7,18.1,4.9,27.5h3v-23
			c7,6.5,9.5,15.1,13,23h3c-1.4-3.5-2.5-7.2-4.2-10.5C845.1,359.4,841.3,353.1,837.6,346.7z"/>
		<path class="st7" d="M686.8,376.4L686.8,376.4L686.8,376.4L686.8,376.4z"/>
		<path class="st7" d="M695.8,363.2c-0.1-2.1,0-4.1,0-6.7l-6.4,1.9c-0.3,1.6-0.7,3.2-0.9,4.8c-0.6,4.4-1.2,8.8-1.8,13.2h10l-0.1-2
			C696.3,370.6,696,366.9,695.8,363.2z"/>
		<path class="st7" d="M567.9,307.2c-0.6-1.1-1.2-2.1-2-3c-6.1-6-6.3-8.1-2.5-15.6c6.5-12.6,17.5-19.9,30-25.2
			c7.3-3.1,14.7-5.8,22.1-8.4c6.5-2.3,13.1-4.2,19.7-6.3l3.8-0.5l28.8-9.5l-2.1-6.1c-1.9,0.4-3.8,0.7-5.7,1.2
			c-7.2,2.2-14.4,4.4-21.6,6.7l-4.4,1.7c-0.6,0.6-1,1.6-1.7,1.8c-6.6,1.7-13.2,3.3-19.8,4.9l-3.9,1.5c-0.2,0.1-0.5,0.2-0.7,0.2
			c-4.1,2-8.3,3.9-12.4,5.9c-6.9,3.4-14,6.6-20.6,10.6c-8.7,5.3-13.3,14.4-18.7,22.5c-0.3,4.3-1.6,8.8,1.8,12.6l-0.1,0.2l0.1-0.2
			C561.4,303.2,562.1,309.5,567.9,307.2z"/>
		<path class="st7" d="M762.8,171.4L762.8,171.4L762.8,171.4z"/>
		<polygon class="st7" points="690.8,181.2 692.5,177.7 688.9,175.6 676.6,186.9 674.9,188.5 674.4,191.7 675.7,193.2 		"/>
		<polygon class="st7" points="846.7,141.5 846.7,141.5 846.8,141.4 		"/>
		<path class="st7" d="M772.8,105.1c4.9-1.3,9.4-3.7,14-5.6l-2.8-4c-5.6,4.6-11.9,7.6-19.6,7.9C767.3,104.7,770.3,105.8,772.8,105.1
			z"/>
		<path class="st7" d="M886.2,188.1c-2.3-6.5-3.9-8.2-9.3-10.3c-3-1.2-6.1-2.3-9.2-3.4l1,3.9C874.8,181.1,882.2,181.5,886.2,188.1z"
			/>
		<path class="st7" d="M778.1,84.4l5.9,9C786.2,89.6,783.9,86.2,778.1,84.4z"/>
		<path class="st7" d="M672.9,262.5L672.9,262.5C672.8,262.5,672.8,262.5,672.9,262.5L672.9,262.5z"/>
		<path class="st7" d="M559.7,248.9c3-12.6,9.1-22.2,23-24.9c4.3-0.8,8.5-2.5,12.8-3.7l1.6-7.4l-20.3,6.6l0.1-0.1l-2.6,1l-2.3,0.2
			l-1.6,2.3v0.1c-6.4,4.3-10.6,10.5-13.2,17.5c-1.5,4.1-2.8,8.7,1.6,13C559.1,251.6,559.3,250.2,559.7,248.9z"/>
		<path class="st7" d="M603.1,217.4l13.9-3.7c5.6-1.8,11.3-3.6,16.9-5.3c3.5-1.1,7.2-5.4,6.8-8.2l-21.8,5.9l-6.5,2l-7.6,2.8
			L603.1,217.4z"/>
		<path class="st7" d="M575.8,196.5c4.1-2.1,8.2-4.3,12.4-6.1c3-1.3,5.7-2.6,5.5-6.4l-7.9,2.1l-10.7,5.8l-14.2,9.5
			c-2.2,3.6-4.6,7.1-6.7,10.8c-0.5,0.9,0.2,2.6,0.6,5.2C560.1,207.1,567.8,201.7,575.8,196.5z"/>
		<path class="st7" d="M465.6,214.8c0.6-6,1.6-12,2.5-18c0.5-3.7,0.9-7.5,1.7-11.1c0.5-1.9,1.9-3.5,2.9-5.3l0,0l0.1,6.4l1.6,1.3
			l2.3-7.4l1.9,2.6l-1.3-9l-0.9-18l0,0c-0.9-0.6-2.3-2-2.7-1.8c-2.4,1.6-4.6,3.5-6.8,5.3c-1.2,7.8-2.4,15.6-3.9,23.4
			c-1.7,9.1-3.9,18.1-5.3,27.2c-1.7,11.3-2.8,22.7-4.1,34l9,1C463.8,235.2,464.6,225,465.6,214.8z M474.9,161
			c-0.2,4.8,0,9.7-0.2,14.6C474.9,170.8,474.6,165.9,474.9,161z"/>
		<path class="st7" d="M952.7,312.2c-0.2,0.1-0.4,0.2-0.5,0.3c-0.4,3.6-1.2,7.2-1.1,10.8c0,1.6,1.6,3.2,2.5,4.8l1.4-0.8
			c0-2.4,0-4.9,0-7.3l-0.2-1.7L952.7,312.2z"/>
		<polygon class="st7" points="974.6,206.5 974.5,206.5 974.5,206.5 		"/>
		<polygon class="st7" points="959.9,193.1 960.6,193.6 959,183.4 		"/>
		<path class="st7" d="M563.5,36.8c5.2-3.4,10.2-7.1,15-11.2c3.2-2.8,6.7-3,10.5-3.3s7.5-1.3,11.3-2c4.2-0.7,8.4-1.4,12.5-2.1
			c3.6-3.3,7.7-2.4,11.6-0.9c2.6,1,4.8,2.3,6.5-1.3c0.1-0.1,0.1-0.2,0.2-0.3c-0.1,0.1-0.2,0.2-0.2,0.4c-1.8,3.6-3.9,2.3-6.5,1.3
			c-3.9-1.5-7.9-2.5-11.6,0.9l1.4,0.9c-5.9,2.3-12,4.1-17.5,6.8c-6.7,3.3-12.9,7.6-19.4,11.3c-2.2,1.3-4.7,2.2-7,3.3
			c-0.9,1.7-1.9,3.2-3,4.8c-1.9,2.3-4.1,4.5-6.2,6.8L562,53l40.3-22.7c2.1-1.3,4.1-3,6.5-3.7c7.8-2.2,15.6-4.8,23.6-5.7
			c6.5-0.7,13.3,0.7,19.9,1.2c0.8,0.1,1.6,0.2,2.4,0.3c-0.4-0.8-1-1.6-1.6-2.3c-5.3-3.3-5.5-4.8-1.3-9.6l-3-0.3
			c-1.3,5.3-6.5,3.8-9.9,5.5c-0.4,0.2-2.1-2.4-3.6-4.1l0,0c1.5,1.7,3.1,4.2,3.5,4c3.4-1.6,8.6-0.2,9.9-5.5l-4.5-0.2
			c0.7-0.7,1.3-1.8,2.1-2c2.1-0.2,4.2-0.4,6.3-0.3l10.1-7.3h-34l-0.3,1.8L639,7.3l-8.2,1.9L608,9l-30.2,4.5
			c-0.5,0.5-0.9,1.4-1.4,1.9c0.4-0.6,0.9-1.4,1.4-1.9c-11.8,1-23.4,2.7-34.1,8.4c1.9,0.3,3.8,0.5,5.7,0.5c2.1,0.2,4.2,0.7,6.4,1l0,0
			c-4.4,4.4-9.6,3.6-14.9,2.4c-5.8-1.3-11.4-3.3-17.3-4.2c-12.1-1.9-21,4.3-27.8,13.3c-5.9,7.9-4.1,17.3,2.8,21.5l0,0l-5.3,5.1
			l-4.7,4.4l1.2,4c1.2-0.6,2.5-1.1,3.7-1.8c0.7-0.5,1.3-1,1.8-1.6c2.5-2.2,3.3-0.9,3.5,1.7L501,71l3.6-6.1c-1-3.5,0-5.6,3.4-7.5
			c4.5-2.5,8.4-6,12.5-9.1l11.2-7.9l1,1.1c-1,4.3-4.5,6.6-8.3,8.7l-0.2,0.2l-5.5,4.2l-9.1,9.6l-6,8.2l-8.1,10.9l0,0l-6.8,8.4
			l-0.8,9.4l0,0l0.8-9.4l-5.2,8.5l0,0l-8.8,24.3c5.9,1.5,6.2,6.1,6,11l6.1-23.6l0,0l5-11.2l0,0l5.8-5.4c0-0.3,0-0.6,0-0.9l11.9-16.2
			l2-1.9l0.1-0.1l1.7-2c0.1-0.2,0.2-0.5,0.3-0.8l0,0l11-11l8.1-8.9l-2.3-2.9l0,0l2.3,2.9l1.5,2.5l-2.1,2.2l-7.3,6.2
			c-0.8,1.7-1.5,3.5-2.5,5.1c-1,1.8-2.9,3.3-3.4,5.3c-2.4,8.4-4.2,17-6.5,25.4c-1.2,4.3-3.1,8.5-4.5,12.8c-1.2,3.7-2.1,7.5-3.1,11.2
			c1.2-0.5,2.9-0.8,3.4-1.7c2.4-4.5,4.6-9.1,6.4-13.8c1.8-5,2.5-10.4,4.2-15.4c1.5-4.5,3.7-8.7,5.6-13.1l2.1,0.4v20.5l-1.6,6.2
			l-1.2,4c-3.2,9.1-5.8,18.3-2.4,28.1l5.2-24.1l0,0c0.2-0.3,0.2-0.6,0.1-1l-1.2,0.4h-0.1l1.2-0.4c0.1-0.3,0.2-0.6,0.1-0.9
			c4-9.1,5.5-19,4.5-28.8c-0.3-3.9-0.2-7.9-0.3-11.8c-4.3-4,0.3-5.9,2-8.5l0,0l1.7-1.9l-2.7-2.2v-0.1l2.8,2.3l2.4-3.7l1.8-2.3
			l0.1-0.1l1.9-0.1l2-3.7c-3.2-0.1-5.1-1.5-4.4-5.1l0,0c-0.7,3.6,1.2,4.9,4.4,5.1l9.3-7l1.6-1.1c0-0.3,0-0.7,0-1l-2.6-0.4l2.6,0.3
			c0.1-0.3,0.2-0.6,0.2-0.9l0,0C557,40.6,560.4,38.9,563.5,36.8z M634.9,12.8L634.9,12.8c-0.7,0.6-1.4,1-2.1,1.4
			C633.5,13.8,634.2,13.4,634.9,12.8z M575.6,16C575.7,16,575.7,16,575.6,16C575.7,16,575.7,16,575.6,16L575.6,16L575.6,16z
			 M574.4,16c-5.9,0.4-7.7,6.9-12.2,8.6l0,0C566.7,22.9,568.5,16.4,574.4,16z M486.2,104.3c0.4,1.9,0.3,4,0.5,6
			C486.4,108.3,486.6,106.2,486.2,104.3z M514.2,46.8c-3.4,2-6.2,4.9-9.4,7.1c-1,0.7-2.8,0.3-4.2,0.4l0,0
			c-5.8-9.5-3.6-17.4,5.6-23.8c9.3-6.4,18.9-5.5,28.9-2.5c2.5,0.8,5,1.6,7.5,2.4l0,0C533.2,35.8,523.6,41.1,514.2,46.8z M545,46.7
			c1.7-0.9,2.9-2.2,3.7-4l0,0C547.9,44.5,546.7,45.8,545,46.7z M548.5,40c-1.3,0.6-3,0.4-4.7,0.5v2.2c-0.5-0.1-1.3,0-1.8-0.1
			c0.5,0.1,1.2,0,1.7,0.1v-2.2C545.4,40.3,547.1,40.6,548.5,40c0.9-0.4,1.7-0.6,2.3-0.5C550.1,39.4,549.4,39.6,548.5,40z"/>
		<path class="st7" d="M1021.7,335.8c-0.2-0.7,0.5-1.7,0.9-2.6l-2.6-4.5l-1.7,0.5c-0.3,2.3-0.6,4.7-0.9,7c0.6,0.9,1.1,1.7,1.6,2.7
			c1.8,3.9,3.6,7.8,5.3,11.8l1.9-0.9C1024.6,345.2,1023.1,340.5,1021.7,335.8z"/>
		<path class="st7" d="M611.5,290.8l-0.5,0.7l-14.5,21l-0.7,4.8c0.9-0.2,2.2,0,2.6-0.6c5.2-7.3,10.8-14.6,15.4-22.3
			c5.7-9.6,13.2-16.8,23.4-21.1l-0.4-6.8c-5,2.8-10.3,5.3-15,8.5c-9.6,6.7-19.3,13.2-28.1,20.9c-9.1,7.9-17.1,16.9-25.5,25.5
			c-1.2,1.2-1.5,3.1-2.2,4.7l1.1,0.6l10.3-9.2h0.1l33-26.5L611.5,290.8z"/>
		<path class="st7" d="M698.3,299.8l-7.5-0.4c-0.2,2-0.3,3.9-0.6,5.9c-0.2,2.2,0.1,4,1.1,5.2c-1-1.3-1.3-3.1-1.1-5.3
			c0.2-2,0.4-3.9,0.6-5.9l-2.2,10.7l0.1,7.2c-0.1,8.8-0.2,17.6-0.1,26.4c0.1,4.9,0.5,9.8,0.8,14.7l6.4-1.9c0,2.5-0.1,4.6,0,6.7
			c0.2,3.7,0.5,7.4,0.8,11.2c0-2.7,0.1-5.3,0.1-7.9c0-2.8-0.1-5.6,0.1-8.4c0.2-2.5,0.7-4.9,1.3-8.3c5.5,13.4,5.5,13.4,7.1,13.5
			c-0.9-7-1.8-14.1-2.8-21.3c-0.6-4.7-1-9.6-5.6-12.6l0.2-7.7l-1.7-0.8v-0.1l1.7,0.8l2-10.5c0-1.9-0.1-3.9-0.1-5.8l-0.1-1.7l0,0
			L698.3,299.8z M689.5,321.9c0.2-3.7,2.1-6.8,5.7-9.4l0,0C691.6,315.1,689.7,318.2,689.5,321.9z M696.8,317.6c1-3.1,1-6.6-0.2-9.7
			c-0.1-0.4,0-0.9,0.4-1.5c-0.3,0.6-0.5,1.1-0.3,1.4C697.8,311,697.8,314.5,696.8,317.6z"/>
		<path class="st7" d="M906.6,56.3l0.3,0.3l1.5,1.6l3.3,3.3l0,0c1.1,1.8,2.1,3.6,3.3,5.3c3.2,4.6,6.4,9.1,9.6,13.7l4-10.1l4.2,0.8
			c0-1,0-2,0-3l-7.5-7.2c-0.3,1.8-0.9,3.2-2.3,3.2c1.2-0.1,1.8-1.4,2.1-3.2l-0.1-0.1h0.1c-2.1-5.6-9.3-8-9.3-15.5l10.8,2.6h0.1
			l1,0.4c0,0,0,0,0.1,0c6,2.5,11.9,5.9,18.9,3.3c-5.2-2.6-9.7-5-14.3-7.2c-0.8-0.2-1.6-0.3-2.4-0.2c-0.6,1.4,1.6,4.3-2,4.1
			c3.5,0.1,1.4-2.7,2-4.1l-1.1-0.5c-2.6-0.9-5.4-1.6-8-2.6c-4-1.5-8-3.2-12-4.8l-2.3-1.9l-6-5.4l-0.2-1.2l-0.1-0.2l-0.4-0.1
			l-0.7,0.6l0,0h-0.3l-0.2,0.2l0,0c-0.2-0.2-0.6-0.2-0.8,0l-1.8-0.7l0,0l-3-2.4h6.8l6.2,0.7l0.1-0.1l3.6,1.3l10.6,0.9l2.8,0.1
			l1.6-1.1l-11-3.8l-3.2-0.9l-1.9-1c-5.4-0.3-10.9-0.4-16.2-1c-4-0.5-7.9-1.7-11.9-2.6c-0.2,1.2-0.2,2.5,0,3.7
			c0,0.1,0.1,0.1,0.1,0.2c-0.1-0.1-0.1-0.1-0.1-0.2c-0.2-1.2-0.2-2.5,0-3.7v-0.1c0-0.2-0.2-0.3-0.4-0.3l0,0V17h-0.4l0,0
			c-8.5-4.8-16.9-9.7-26.9-10.7l-3.2-0.6l-3-0.2l-6,5.6l0.3,0.4l-0.4-0.5l6-5.6c-4.6-2.9-9.5-2.6-14.5-1.7c-2.1,0-4.2,0.2-6.3,0.5
			c-3.4,0.6-6.8,1.4-10.2,2.1l0,0L812.2,6l-11.7,3.2c-2.9,1.8-5.6,1.7-8-0.9l0,0c-1.3-1.3-2.5-2.6-3.6-4c-0.8-1.3-1.6-2.6-2.2-4h-12
			l11.7,12.2h0.1h-0.1l-3.8,3.7l0,0l-1.6,5.1c-3.4,2.1-4.3-1-5.8-2.9c-2.3-4.5-4.6-9.1-6.9-13.6c-0.8-1.5-1.7-3-2.6-4.5h-5
			c0.5,2.2,0.6,4.6,1.6,6.5c2.9,5.3,6.2,10.5,9.3,15.7h0.7l-3.4,7.8c2-1.2,3.9-2.5,5.6-4c0,0,0-0.1,0-0.2c0,0.1,0,0.2,0,0.2
			c-1.7,1.5-3.6,2.8-5.6,4l-12.4,17.9c-4.4,1.2-5.9-1.1-5.9-5c-0.1-2.1-0.1-4.2-0.1-6.4l-1.4-1.3c-0.1,3.8-0.4,7.6-0.2,11.3
			c0.1,1.8,0.8,4.7,2,5.1c1.1,0.4,2,0.4,2.8,0.1c-0.8,0.3-1.8,0.4-2.9,0c-1.2-0.4-1.9-3.3-2-5.1c-0.2-3.8,0.1-7.5,0.2-11.3l0.6-35.2
			h-6l-2.1,9.5l0,0l2.1-9.5l0,0h-3l0,0h-2c-0.7,11.4-1.5,22.7-2,34c-0.1,1.7,1.2,3.4,1.8,5.2l0,0l0.6,4.8l0.5,1.6
			c-0.3,5.7-0.9,11.4-0.7,17.1c0.3,5-1.6,9.8-5.3,13.2l5.3,5.8l5.7,6.3l0,0l0.4,0.1l0,0l-0.5-0.1l-5.7-6.3l-5.3-5.8
			c-0.2-0.1-0.5-0.2-0.8-0.2l-1.8,3.7l-1.9-0.1l0,0l1.9,0.1l1.8-3.7l-3.9-5l0,0l-6.1-12c-5.8-5.4-11.8-10.5-17.1-16.3
			c-2.1-2.6-3.2-6-3.2-9.3c0.3-11.1,1.3-22.1,2.1-33.1h-15c-0.4,2.2-0.7,4.5-0.8,6.8c-0.1,6.8,0,13.5,0,20.2l-1.6,0.9l-11.8-9.8
			l-6.4-3.3l-6.4-2.9l-2.9-1.1l0,0l-6.1-0.7v-0.4l-2,0.3c-4.2,4.8-4,6.2,1.3,9.6c0.7,0.6,1.2,1.4,1.6,2.3l27.1,16.5l-0.9,2.3
			L666.4,38h-0.1c-1-0.5-2-1.4-3.1-1.5c-3.4-0.3-6.9-0.2-10.3-0.3c-8.8,1.6-18.1,1.5-25.9,7.6c2.7-0.4,5.4-0.9,8.1-1.3
			c7.6-1.3,15.1-2.8,22.8-0.3l5.3,0.2l-5.1-4l0,0l5.1,4L666,44c7.8,1.5,15.8,2.5,23.4,4.8c3.4,0.9,6.2,3.1,7.9,6.2
			c2.2,4.4,6.6,7.6,9.5,11.7c4.9,6.8,9.5,13.9,14.2,20.9l3.6,8.8c0.2-1.4,0.6-2.8,0.6-4.1c0,1.3-0.3,2.7-0.6,4.1l-0.9,15.9
			l-10.9-4.7l-16.6-5.7l-2.3,1.5l2.3-1.6l-6.9-7l-6.8-6.3l0,0l0.1-1.1c-0.6-0.9-1.1-1.8-1.6-2.7c-2.8-6.7-5.3-13.6-13.1-16.3l-4.1,4
			c5.8,2.2,9.3,5.9,10.2,12.4c0.3,2.4,3.1,4.5,4.7,6.7l0,0c0.1,4.4-1.1,5.1-5.7,3.4l0,0l0,0c0,0,0,0-0.1,0l0,0
			c-6.6-1.9-13.6-1.8-20.1,0.4l4.1,4l14,0.7l0.2,1.7c-3.1,1-6.1,2-9.2,3c-3.6,1.1-7.4,1.8-10.8,3.3c-8,3.6-15.8,7.6-23.5,11.7
			c-1.1,0.6-1.2,3-1.7,4.6c4.3-1.7,8.7-3.4,12.8-5.2c4.1-1.8,8-4.2,12.2-5.5c7.2-2.4,14.7-4.1,22-6.1l-1.9-0.4l0,0l1.9,0.4
			c0.2,0.1,0.4,0.3,0.7,0.4c2.2-3.9,5.7-4.4,9.7-3.7l1.6-1c1.2,0.6,2.4,1.2,3.6,1.7c7.6,3.1,15.2,6.2,22.9,9.3
			c4.1-0.5,7,1.5,9.1,4.7l-2.6,3.6c2.3-0.2,5.3,0.4,6.9-0.8c0.9-0.6,1.4-1.3,1.8-1.9c-0.4,0.7-0.9,1.3-1.8,2
			c-1.6,1.2-4.5,0.6-6.8,0.8c-3.4,3-6.9,6-10.2,9.2c-0.6,0.6-0.8,1.7-1.1,2.6l-4-0.5l-23.5,2.1l-1.6,6.5c6.9-1.1,13.9-2.2,20.9-3.1
			c0.3,0,0.9,1.2,1.3,1.9c0.1,0.4,0.3,0.8,0.4,1.2l0,0l-3.2,10.7v0.1c-0.7,0.7-1.3,1.8-2,1.9c-8.5,1.4-16,7.2-25.1,5.5
			c-9.9,2.8-19.8,5.4-29.6,8.3c-4.4,1.3-8.7,3-13.1,4.5l-3,1.3l-9,1.9l-3,1.9l-6.6,0.4l1.7,5.3l0.9,0.2l1.3,0.8l3.7-1.5
			c-0.9-0.3-1.4-0.7-1.5-1.1c0.2,0.4,0.6,0.8,1.5,1l1.6-0.1l3.9-1.2l3.6-1.9l1.2-0.7h0.1v0.1c2.9-0.9,5.8-1.9,8.8-2.5
			c2.6-0.4,5.3-0.7,7.9-0.8l8.9-4c0,0,0,0,0-0.1l8.1-1.9l0,0l1.8-0.1l0.5-3.2l1.3-0.3l0,0l-1.3,0.3l-0.5,3.2l2.2-0.3l4.6,0.1
			l3.3-1.7l3.7-0.3l4.9-1.7c4.6-0.9,9.3-1.8,14-2.5c0.3,0,0.8,0.9,1.2,1.4l2.1-1l-2.1,1l-3.7,10.2l3.7,2.1l-1.7,3.5l0.1,0.1l0,0
			c0,0.7,0,1.3,0,2c-0.4,6.8-7.1,11.5-15.2,10.8l-16.4,2l-10,0.3l-5.3,9.6c14.6-2.5,29.3-4.9,43.8-7.5c3-0.6,2.8,1.1,3,2.9l0.2,3
			l3-2.2h0.1l-3.1,2.3l-0.1,6l-0.1,2.9l0.4,1.5l0.6,4.5l1,6l-0.1,3l-13.7,1.1l-4.3,1.1l-6.3,0.6l-2.7,1.3l2.1,6.1l12-2.8l1.7-0.2
			l4.2,0.5l0.2-2.9l11,1.7l0,0l-11-1.7l-0.2,2.9h7.2l1,8.9v0.2l-0.2,1.1l0.1,0.1l-0.8,4.9l0,0l-0.2,0.1l-11.1,0.7l-26,6l-2.4,1.2
			c0,0,0,0-0.1,0c-0.2,0-0.3,0.2-0.3,0.4l-12.3,4.2l-1.4,6.5l1.3,1.4l12.5-7.4l-0.6-1.1l0,0l0.6,1.1h0.3l0.3-0.1l0,0l3.4-0.1
			c0-0.4,0.1-0.8,0.1-1.2l0,0l15.7-0.6c2-3.3,4.9-1.8,7.6-1.2l2.6-0.5l3.1-0.3l7.4,0.8l0.3,0.9c-2.2,1.2-4.8,2-6.4,3.7
			c-7.2,7.4-13.9,15.2-21.1,22.6c-6,6.3-12.1,12.6-18.6,18.4c-6,5.4-12.6,10.2-18.9,15.3l-7.6,4.4l4.2,4.8l5.1-1.3l3.3-3.7l-5.7-0.5
			l0,0l5.6,0.5l1-1l1.9-2c7.5-6.7,15.1-13.2,22.3-20.2c5.5-5.4,10.3-11.5,15.6-17c3.8-3.9,8-7.3,12-10.9c-2.9-2.7-2.6-4.6,1.5-5.1
			c1.3-0.1,2.7-0.1,4,0c-1.3-0.1-2.6-0.1-4,0c-4.1,0.5-4.4,2.4-1.5,5.1l7.1-5l0.1,0.1l6.6-0.6l0,0l-6.5,0.6l-1.1,10
			c0.2-0.9,0.5-1.8,0.9-2.6c1.1-1.8,2.2-4.5,3.7-4.8c0.4-0.1,0.8-0.1,1.1-0.1c-0.3,0-0.6,0-1,0.1c-1.5,0.3-2.6,3-3.7,4.8
			c-0.4,0.8-0.8,1.7-1,2.7c-0.2,0.1-0.3,0.4-0.2,0.6l-1.8,18.3l7.5,0.4l0.5,3.6l1.7-24l0,0l0.4-1.8c0-0.1,0-0.1,0-0.2l2.1-11
			l-0.3-5.4c0-1.2,0-2.4,0-3.5l0.2-1.3c-0.1-1.3-0.2-2.6-0.3-3.9c-0.6-8.1-1.1-16.3-1.6-24.4l-3.5,5.1c0.9,1.3,3.8,3.6,3.9,6.1
			c0.5,10.2,0.3,20.5,0.3,30.8c0,0.5-0.1,1-0.3,1.5v-0.1c0.1-0.5,0.2-0.9,0.3-1.4c0-10.3,0.3-20.5-0.3-30.8c-0.1-2.4-3-4.7-3.9-6.1
			l3.5-5.1l-0.1-1.2l-0.1-8.4l-0.3-2.9l0,0l-0.6-11.2c5.5,4.6,5.7,13,14.2,14.8l-9.7-17.1l0,0l-1-1.1h-0.1
			c-4.7-3.9-3.4-9.3-3.5-14.3c-1.2,3.6-4.2,6.6-2.5,11.3c2.2,6.1,3.3,12.6-0.6,18.7v0.1c0,1.3,0,2.5,0,4c-0.3-0.3-0.6-0.5-0.8-0.8
			c0.2,0.2,0.5,0.4,0.7,0.7v-4.1l0,0c3.9-6.1,2.8-12.6,0.6-18.7c-1.7-4.7,1.2-7.6,2.5-11.3c0-3.6,0.1-7.2,0.1-10.8l0,0
			c5-3.6,4.3-9.1,4.7-14.2l-2.9,5l2.8-5c0.3-8.5,5.5-14.5,10.3-20.7l7.6-9.7c0.8,2.4,1.5,4.2,2,6c1.5,5.8,3,11.5,4.5,17.3l0,0
			l-1.2,0.6c-1.4,2.9-2.7,5.9-3.9,9c-1.6,4.9-3.9,10-4,15c-0.5,16.6,5.2,31.2,16.2,43.7c4.5,2.2,6.6,7.7,12.3,8.6
			c2.8,0.4,4.6,2.8,4.4,6.3c-0.1,2.6,0.6,5.2,0.9,7.8c2.3-2.4,4.6-4.7,6.7-7.2c4.9-5.8,5-5.8,11.5-1.7l0,0c-6.5-4.1-6.6-4-11.5,1.7
			c-2.1,2.5-4.5,4.8-6.7,7.2c-0.4,1.9-0.7,3.8-0.8,5.7c-0.3,8.8-0.5,17.5-0.8,26.3c-0.3,6.6-0.5,13.2-1,19.7
			c-0.1,0.9-1.4,1.7-2.2,2.5l2.2,11.7c1.7,2.9,2.2,3.7,1.4,4.5c0.8-0.8,0.3-1.6-1.4-4.5l0.2,5.4l-2.4,44.5l2.9,7.2l-2.9-7.1
			l-0.9,9.2l-1.2,5.9h14h1l0.9-3l-0.2-3v-0.1l0.1-2l1-0.6l0.3-3.4l0.8-7.5l1.9-27.3l-1.8-1.3l0,0l1.2-5.8c0-7.2-0.1-14.5,0-21.7
			c0-1.5,0.9-2.9,1.3-4.4l1.3-3.4c4.8,1.6,9.8,2.8,14.4,4.9c2.6,1.2,4.6,3.6,6.8,5.5h-0.1l1,1.9c4.2,2.8,8.4,5.5,12.6,8.3
			c1.2,0.8,2.3,1.8,3.4,2.7l2,3l1,1V320l11.4,14.2l5.7-3.5l-9.7-10.8c2,0.4,3.9,0.6,5.9,0.8c2.5,0.1,4.9-0.1,7.4-0.2
			c-9.1-5.3-19.3-9.6-27.1-16.2c-7.9-6.6-16.4-11.5-25.3-16.2c-6.4-3.4-10.7-7.3-9.6-15.4c0.9-6.5,0.9-13.1,1.2-19.9
			c4.6,5.4,8.4,10.3,12.8,14.9c4.4,4.6,9.3,8.7,13.6,12.7l1.7-6.4h0.2c7.8,2,15.7,3.2,23.2,5.9c13.3,4.9,24.1,12.9,27.8,27.8
			l-0.1,0.2l0.9,4.1l0.1,3.4l0.6,1.6l1.2,4.5l1.3-3.6l-0.2-2.9l-0.2-6.5l-0.6-3.4l-1.1-5l1-0.6l5.1,5.4l16,19.2l1.8-1.4
			c-5.1-9.8-12.6-17.9-19.5-26.4l-2.8-2.9l-0.1-0.1l-3.8-1.9l-4.9-6.2l-1-0.3c-1.4-0.6-2.8-1.2-4.2-2c-3.2-2.1-6.2-4.5-9.2-6.7
			c-3.2-1.3-6.3-3.3-9.6-3.9c-8.6-1.7-17.3-2.8-26-4.2l4.4,4c3.6-6,4.5,1.7,7,2H805c-2.4-0.8-3.3-7.7-6.8-1.9l-4.4-4
			c-3.2-2.5-7.2-4.5-9.4-7.6c-4.6-6.6-10.5-12.8-11.5-21.4l-2.8-0.5l0,0l2.8,0.5l11.9-1.2l0,0l5.6,0.1l-4.2-2c0,0,0,0,0.1,0l0,0
			l4.2,2l6.4-1l1.1-0.3l0,0l-1.2,0.3l3.1,0.2h0.1c1.2,0.6,2.3,1.6,3.5,1.6c3.8,0,7.6-0.5,11.5-0.7l1-0.4l0,0l1.5,0.7l0,0l2.2,2l0,0
			l3.1,2.9l1.2-3.2l0,0l-1.1,3.2l0.5,0.8l2.1-3.3l0,0l-2.1,3.4l3.6,3l0.9,1.1l13.2,9.3l11.2,2.5l3.3,2.2l1.3-0.1
			c2.7-0.8,3-2.3,1.2-4.3c-3.8-1.4-7.5-2.7-11.3-4.2c-2-0.8-3.8-1.7-5.7-2.6c-6.3-3-9.1-8.6-12.8-14.5c5.4-1.1,9.7-1.7,13.8-2.9
			c2.1-0.6,4-2.4,6-3.6l0,0c0.2-0.2,0.4-0.5,0.6-0.8l0.3-8.2l-6.6,4.4l0,0l6.7-4.4l-0.2-2v-0.1l0.1-5.9l-2.8,2l0.1,0.1v4.6l-1.9-0.4
			l0,0l1.8,0.3v-4.7l2.8-2l-0.1-2l-11.7-2l4-5.9l4.9,3.8l1.2-1l0,0l-1.2,1l-4.9-3.8l-4,5.8l11.7,2c9.3,1.6,18.2,4,25.4,11l-8.4,12.3
			l1.3,1.1l10.9-12.9l3.4,5.3l1.9-3.4l-5.1-3.9l3.9-4.6h-3l-3.4,2.7l0.5-1.3c-6.7-3-13.3-6.2-20.2-9c-4.8-1.9-7.9-4.6-8.8-10.2
			c-1.1-7.5-3.3-14.8-4.8-22.2c-0.1-0.6,1.2-1.4,1.8-2.1c-1.8-2.1,0.2-6.8-4.7-7.4l0,0c4.9,0.6,2.9,5.2,4.7,7.4
			c11.4,1.2,17.2,9.7,23,18.2l0,0l6.1,9.9l4.2-1.2l-3.3-7.8H874l0,0l-2.6-1.3l0,0v3.9l1.2,0.1l0,0l-1.2-0.1V192l-1.7-3.7l0,0
			l-2.5-7.8c-0.2-0.2-0.5-0.4-0.7-0.4l0.8-1.8l-1,0.4l1-0.4l2,0.1l-1-3.9l13.1-3l0.5-1.2c-1.8-0.7-3.6-1.7-5.5-1.9
			c-6.7-0.9-13.4-1.6-20.2-2.4c-3.6-1.2-7.2-2.4-10.7-3.7c-0.2-0.1-0.1-1.3-0.1-1.9c-0.6-0.1-1.5-0.5-1.9-0.5c0.4-0.1,1.3,0.3,2,0.5
			h6.7l6.4-3.7l-3.3-2.1c-1.6,0.1-3.3,0.2-4.9,0.2c-4.3,0.1-8.5,0.1-12.8,0.1l0,0l1.8-1.3l0,0l8.7-4.2l2.1-7.2l-2.8-0.7l-1.8,2.4
			l-1.8,0.2l-7,1.3c-3.8,2.7-7.5,2-11.2-0.3l0,0c0-0.3-0.1-0.5-0.3-0.7l0,0c-1.7-2.1-3.4-4.4-5.2-6.4c-1.5-1.6-3.2-3.1-4.8-4.6
			c0,1.4-0.4,3.1,0.2,4c-0.6-1-0.2-2.7-0.2-4l2.1-1.5l5.3-15l6,0.4l-1-2.7l-3.6-2.1l-1.1-6l-0.1-0.1l2.5-6l-1.8-0.6l2,0.6v-0.1l0,0
			l5.5,0.2l9.7-1.9l9.2-7.2l-6.3,0.1c-1.7,1-3.4,1.8-5.2,2.6c-2.5,0.9-4.9,1.3-5.9-2.1l-1.6-0.4l-0.9,3.8l-1-0.2l0.7-4.7l-0.2-1.5
			c-1.7,0.8-4.1,1.1-4.9,2.5c-1.8,3.1-4.1,3.2-7,2.6l-3.8,0.2l0,0l0,0l-4.3-1.7l-1.2-1.7c-0.4-3.7,0.6-6.2,4.7-7.4
			c2.2-0.6,4.1-2.4,5.9-4.7l-11,2.1l2.6-6.6l0,0c5-2,10.2-3.6,14.9-6.2c7.8-4.2,15.5-8.2,24.5-8.5c4.9-0.2,9.9-0.7,14.8-1
			c-3.6-0.1-7.2-0.2-10.8-0.3c3.6,0.1,7.2,0.2,10.8,0.3l0.4,0.1l0.4-0.1c-1.4-0.6-2.8-1.5-4.2-1.9c1.4,0.3,2.8,1.3,4.2,1.9h5
			c-4.7-4.7-16.1-5.9-23.1-2.9l-2.8,0.2c0,0,0,0-0.1,0c-6,2.2-12.1,4.2-18.1,6.7c-4.3,1.7-8.3,4.2-12.5,5.9
			c-1.4,0.6-3.2-0.2-4.9-0.3c-4.3,2-8.8,3.5-13.5,4.5c-3.7,0.9-7.4,1.4-11.1,2l-2.3,2.7l2.2,2.3l18.2-2l0.8-4h0.1l-0.8,4
			c-1.1,4.9-1.8,10-7.2,12.4l-0.7,0.7l-0.2,0.1l-2.1-0.1h-0.1l-1-0.8l-0.1-0.2l-0.8-1l-6-9.1l-2.2-2.3l2.3-2.6l-3.1,0.1l-3.1-1.5
			l-1.1-0.5l-5.8-1.9l-11.9-2.6l-0.7-1.2l8.8-6.1l0,0c6-0.2,12.5-1.8,18-0.2c9,2.6,17.7,1.9,26.6,0.8c2.5-0.3,5-1.5,7.5-2.2
			c-7.9-0.8-15.5-0.8-23.1-0.8c-1.3,0-2.8,0.2-3.9-0.3c-7.4-3.3-15.7-4.3-23.7-2.8c-1.1,0.2-2.4-0.4-3.6-0.6l13.1-15.1
			c-0.1-0.3-0.1-0.6,0-0.8l0,0l13-9.8c-0.8-0.5-1.4-1-2-1.8c-0.6-1.4-1.2-2.9-1.6-4.4l-2.3-0.2l0,0l2.3,0.2c0.4,1.5,1,3,1.6,4.4
			c0.6,0.7,1.2,1.3,2,1.8v-0.1l4.2-2.1l1.7,0.3l7.1-4.4l0,0c5.8-1.8,11.6-3.9,17.5-5.4c4.4-1.1,9-1.8,13.5-2.1
			c2.3-0.1,4.7,1.1,7,1.7l2.8-0.3l0,0l9.9,4l0.2,0.1l5.8,1.9l0.1,0.1l4,1.8c5.3,2.8,10.6,5.6,15.7,8.6c1.1,0.6,1.4,2.5,2.1,3.8
			c0.2,0.1,0.3,0.4,0.3,0.6l5.2,3.1c4.3,1.4,4.3,4.2,4,8.2c-0.4,5.4-0.3,11.3,1.4,16.4c3.4,10.2,8.3,19.8,12.1,29.9
			c1.9,5,2.8,10.5,4.1,15.8c3.7,9.9,4.1,19.9,0.7,29.9c-3.5,10.3-7.5,20.5-11.2,30.8c-0.6,1.7-1,3.4-1.6,5.1l-7.1,18.2l2.8,4
			l0.4-1.8l1-1.2l0.8-0.1c0.1-0.3,0-0.6-0.1-0.9v-2l8.1-16.4c3.4-9,6.4-18.2,10.2-27c4.5-10.6,5.1-21.5,3.5-32.7
			c-0.4-2.6-0.5-5.3-0.8-7.9c-0.6-0.9-1.1-1.8-1.5-2.8c-1.4-5-2.7-10-4-15c-1.7-5-3.5-10-5.2-15c-1.1-3.3-2-6.7-3-10
			c-1.1-3.9-2.2-7.9-3.2-11.8l2.5-4.3L906.6,56.3z M919.6,69.4L919.6,69.4l1.2-5.9l0,0L919.6,69.4z M910.8,42.7
			C910.9,42.7,910.9,42.7,910.8,42.7c-0.3,0-1.8,2.1-1.5,2.5c0.7,1.2,2,2,3,3.1c3.8,4.3,7.5,8.7,11.5,13.3h-0.1
			c-4-4.6-7.7-9-11.5-13.3c-0.9-1.1-2.4-1.8-3-3.1C909,44.8,910.5,42.6,910.8,42.7z M738.6,39.5L738.6,39.5c1.6-0.4,2.4-1,2.6-1.9
			C741.1,38.5,740.3,39.2,738.6,39.5z M741.8,32.1l-1.2,0.1l-3.1-5.8l0,0l3.1,5.7H741.8l0.6-6.6l0,0L741.8,32.1z M741.8,24l-1.4-0.1
			v-0.1L741.8,24l0.6-6.1l0,0L741.8,24z M743.4,14.3l-0.9-0.9l-2.2,2l2.2-2L743.4,14.3L743.4,14.3z M653.4,14.7L653.4,14.7l2.3,0.6
			L653.4,14.7z M658.8,17L658.8,17v-1.7l0,0V17z M700.4,52.7l-0.3-0.1l0,0L700.4,52.7l0.1-0.3l0,0L700.4,52.7z M710.5,51.1h-6.1
			l1.3,4.3l-1.3-4.3H710.5L710.5,51.1z M693.7,103.4c-2.4-0.6-4.8-1.2-7.3-1.6c-0.1,0-0.2,0-0.3,0.1c0.1-0.1,0.2-0.1,0.3-0.1
			C688.9,102.1,691.3,102.8,693.7,103.4L693.7,103.4z M695.7,250.4l1.1-0.4l0,0L695.7,250.4z M692.6,283c0-0.7,0-1.3,0-2l0,0
			C692.6,281.7,692.6,282.3,692.6,283z M698.6,219.7L698.6,219.7l-1.2-2.3L698.6,219.7z M698.2,245.2l1.5,1.7l0,0L698.2,245.2
			l-1.1,1.1l0,0L698.2,245.2z M695.9,214.1L695.9,214.1L695.9,214.1L695.9,214.1z M695.9,213.7l-0.4,0.1l0.4,0.2l-0.4-0.2
			L695.9,213.7L695.9,213.7z M705.4,142l-1.7-2.8l0,0L705.4,142C705.4,141.9,705.4,141.9,705.4,142z M707.2,134.3
			c1,0.1,2,0.2,2.6,0.6C709.2,134.5,708.2,134.4,707.2,134.3z M751.2,371.3L751.2,371.3L751.2,371.3L751.2,371.3z M751.3,372.4
			l0.3-0.4l0,0L751.3,372.4z M755.4,294.9L755.4,294.9v0.6V294.9z M755.1,331.8c-0.4-0.6-1.2-1-1.2-1.6l0,0
			C753.9,330.8,754.7,331.2,755.1,331.8c0.2-0.2,0.4-0.3,0.7-0.5C755.6,331.4,755.3,331.6,755.1,331.8z M756.5,330.6
			c0-0.1,0-0.1,0.1-0.2l0,0C756.6,330.5,756.6,330.5,756.5,330.6z M758.1,295.8l-2.7,0.3l0,0L758.1,295.8v-0.9l0,0V295.8z
			 M829,243.3c0,0.1,0.1,0.2,0.1,0.3c0.1,0,0.2,0,0.3-0.1l0,0c-0.1,0.1-0.2,0.1-0.3,0.2C829.1,243.6,829,243.5,829,243.3L829,243.3z
			 M839,233.5l0.2-0.6l0,0L839,233.5z M841.6,218.9c0.1,0,0.1,0.1,0.2,0.1c0.1,0,0.1-0.1,0.2-0.1h0.1L842,219
			C841.8,219.1,841.6,219,841.6,218.9L841.6,218.9z M841.2,232.5l3.8-0.3c0,0,0,0,0.1,0L841.2,232.5L841.2,232.5z M838.9,220.9
			c-0.1,0.1-0.2,0.3-0.3,0.4c0.2,0.2,0.4,0.4,0.7,0.5c0.5-0.1,0.9-0.3,1.3-0.5l0,0c-0.4,0.2-0.9,0.4-1.3,0.5
			c-0.3-0.1-0.5-0.3-0.7-0.5C838.7,221.2,838.8,221.1,838.9,220.9z M864,175.6c-0.5-0.1-1-0.3-1.5-0.4
			C863,175.3,863.5,175.5,864,175.6z M863.8,176.3c-0.5-0.2-1-0.4-1.4-0.7C862.8,175.8,863.3,176,863.8,176.3z M839.8,157.1l0.8,6.8
			c0,0,0,0,0,0.1L839.8,157.1L839.8,157.1z M830.1,234.2c-0.4-0.1-0.8-0.4-1-0.8c0.1-0.3,0.2-0.5,0.3-0.8c-0.1,0.2-0.2,0.5-0.3,0.8
			C829.3,233.8,829.7,234.1,830.1,234.2c0.7-0.3,1.2-0.7,1.8-1.2l0,0C831.4,233.5,830.8,233.9,830.1,234.2z M835.2,233.2
			c-0.2-0.2-0.5-0.3-0.7-0.4c-0.2,0.2-0.3,0.5-0.3,0.8l0,0c0-0.3,0.1-0.5,0.3-0.8l0,0C834.8,232.9,835,233,835.2,233.2L835.2,233.2z
			 M842.3,181.7L842.3,181.7c-2.2,2.5-3.3,4.8-3.6,6.9C839,186.5,840.1,184.2,842.3,181.7z M839.8,176.2L839.8,176.2h-3.5l-0.4,1
			l0,0l0.5-1H839.8z M838,161.8L838,161.8l-1.8-0.8L838,161.8z M836.4,157.9c-1.5,2-5.4-0.6-7.8,1.5l0,0
			C831,157.3,834.9,159.9,836.4,157.9z M754.5,162.9L754.5,162.9c-2.4-0.1-4.6-0.5-6.7-0.3C749.9,162.4,752.1,162.8,754.5,162.9z
			 M751.3,159.6L751.3,159.6l1,0.5l0,0L751.3,159.6z M752.4,159.7l0.5-0.8l0,0L752.4,159.7z M745.8,50.8l0.6,0.7L745.8,50.8
			L745.8,50.8z M744.9,88.3L744.9,88.3L744.9,88.3L744.9,88.3z M744.8,87.7c-0.2-2,0.6-4.1,0.4-6.1
			C745.4,83.6,744.6,85.7,744.8,87.7z M742,148.9L742,148.9c2.9,5.4,1.9,7.9-3.8,9.3C743.8,156.8,744.9,154.2,742,148.9z
			 M741.4,145.6L741.4,145.6c1.6-4.1,2.2-7.5-2.2-10.3l0,0C743.6,138.1,743,141.5,741.4,145.6z M739.7,86.7l0.6,0.6l0,0L739.7,86.7
			l-1,1.6L739.7,86.7z M737.9,96.9c0.2,0.2,0.3,0.5,0.5,0.7c0,0.1-0.1,0.3-0.3,0.3c0,0,0,0-0.1,0c0.1-0.1,0.2-0.2,0.3-0.3
			C738.1,97.4,738,97.2,737.9,96.9L737.9,96.9z M731.5,214.4L731.5,214.4c0.3-2.1,0.9-4.2,0.8-6.3c-0.1-2.3-0.2-5.4-1.6-6.6
			c-2.7-2.4-2.4-4.2-0.2-5.6l6.1-1.9c-4.7-3-10.8-0.8-10.8-7.1c0-4,0.7-7.9,1.1-12.2c-3.1-1.6-0.8-4.8,0.3-7c2.6-5,5.8-9.8,9.2-15.3
			h0.1c-3.4,5.5-6.6,10.3-9.2,15.3c-1.2,2.2-3.5,5.4-0.3,7c-0.4,4.3-1.1,8.2-1.1,12.2c0.1,6.3,6.1,4.1,10.8,7.1l-6.1,1.9
			c-2.2,1.4-2.5,3.2,0.2,5.6c1.4,1.3,1.5,4.4,1.6,6.6C732.5,210.2,731.8,212.3,731.5,214.4z M734.4,181.2L734.4,181.2l0.7,0.4
			L735,182h-0.1l0.1-0.4L734.4,181.2z M741.4,214.2c-2.2-0.8-3.9-2.7-5.9-4.2l0,0C737.5,211.4,739.3,213.4,741.4,214.2
			c0.3,0.1,0.7,0.2,1,0.3C742,214.4,741.7,214.3,741.4,214.2z M739.1,181.1C739.2,181.1,739.2,181.1,739.1,181.1
			c0.1,0.2,0.2,0.4,0.4,0.6l0.7-0.6l-0.7,0.6C739.4,181.5,739.3,181.3,739.1,181.1z M744.3,181.4c-3-2.2-3.6-7.5-8.8-6.2
			c-1,0.2-1.9,0.5-2.9,0.8l0,0c1-0.3,1.9-0.6,2.9-0.8C740.7,173.9,741.4,179.2,744.3,181.4L744.3,181.4z M746.1,94.3l-5.3-4l0,0
			L746.1,94.3C746.2,94.3,746.1,94.3,746.1,94.3z M744.5,77.8c-0.2,0.2-0.4,0.5-0.4,0.8l0,0C744.1,78.3,744.3,78,744.5,77.8
			c1.4-1.4,2-2.9,2.2-4.3C746.5,75,745.9,76.4,744.5,77.8z M745,61.1c0.1-1.3,0.4-2.5,1.2-3.8l0,0C745.4,58.6,745,59.8,745,61.1z
			 M744,54.5L744,54.5l2.9-2.2l0.1,0.1L744,54.5z M749.2,176.8l-1.5-7.3l0,0l8.4-2.8c0,0,0,0.1-0.1,0.1l-8.3,2.7L749.2,176.8
			C749.2,176.7,749.2,176.7,749.2,176.8z M761.6,156.5c0.4,0.1,0.8,0.2,1.2,0.3l-2.6,1.2l2.9,4.8l0,0l-2.9-4.8l2.6-1.2
			C762.4,156.7,762,156.6,761.6,156.5z M762,165.9L762,165.9l-2.9,0.6l0,0L762,165.9z M759.5,168.2L759.5,168.2l-0.4-1.6
			L759.5,168.2z M762.8,171.4c1-2.2,2.5-2.8,4.1-2.8C765.3,168.6,763.8,169.2,762.8,171.4l0.3,0.2L762.8,171.4
			c-3.6-1.3-6.6-1-9.2,0.7C756.2,170.4,759.2,170.1,762.8,171.4z M765.3,128.5L765.3,128.5L765.3,128.5h2.2c-0.3,0.3-0.6,0.5-1,0.7
			l0,0c0.4-0.2,0.7-0.4,1-0.7H765.3z M766,205.2l-0.6,1.7L766,205.2L766,205.2z M754.4,217.2c-1.1-1-2.8-1.4-4.5-1.8
			C751.6,215.8,753.4,216.2,754.4,217.2c0.5,0.5,1,0.9,1.5,1.4C755.4,218.2,754.9,217.7,754.4,217.2z M760.3,228.2
			c0.4-2.7-0.4-4.8-1.6-6.6C759.9,223.5,760.7,225.5,760.3,228.2c4,1.2,8,3.7,12.3,3.8C768.3,231.9,764.3,229.4,760.3,228.2z
			 M768.3,218.4L768.3,218.4l0.5,0.4L768.3,218.4z M769,218.8c0.1-0.2,0.2-0.4,0.2-0.6l0,0C769.2,218.4,769.1,218.6,769,218.8z
			 M771.4,221.7L771.4,221.7c-0.2-0.2-0.4-0.5-0.4-0.8c0.2-0.5,0.5-0.9,0.9-1.3l0,0c-0.4,0.4-0.6,0.8-0.9,1.3
			C771.1,221.2,771.2,221.5,771.4,221.7z M769.2,205c-0.5,0.1-1.5-2.3-2.9-4.6C767.7,202.7,768.7,205.1,769.2,205
			c2-0.4,3.8-1.6,5.7-2.5l0,0C773,203.4,771.2,204.6,769.2,205z M782.9,140.6c-1.9-4.2,1-3.1,2.6-3.6c1-0.3,1.9-0.5,2.9-0.5l1.3-4.4
			h0.1l-1.2,4.4c-1,0.1-2,0.3-2.9,0.5C784,137.6,781.2,136.5,782.9,140.6c1.1,2.2-1.8,6.3-3.5,9.3c-0.1,0.3-2,1.2-3.2,0.4
			c1.2,0.6,2.9-0.2,3.1-0.5C781,146.9,783.9,142.8,782.9,140.6z M786.6,131.7l2.2-7.6c1.5-0.5,2.3-0.8,2.7-0.6
			c-0.5-0.2-1.2,0.1-2.7,0.6L786.6,131.7L786.6,131.7z M783.3,156.9L783.3,156.9l1.2,0.2l-0.8,3.3h-0.9v-0.1l0.9,0.1l0.8-3.2
			L783.3,156.9z M786.3,162.5L786.3,162.5l-5.8,0.8l0,0L786.3,162.5z M777.9,141.2h0.4v5.2l-0.9,0.1l0,0l0.9-0.1v-5.2H777.9z
			 M773.3,128.8c1.1,1.4,4.9,0.5,5.6,2C778.1,129.4,774.4,130.2,773.3,128.8z M774.9,147.7c-0.4-0.4-1.2-0.7-2-1.2
			C773.7,147,774.5,147.3,774.9,147.7z M773.4,157.5c1.2,0.1,2.4,0,3.5,0.1C775.8,157.6,774.6,157.6,773.4,157.5l-0.7,1.5l4.5,2.3
			c0.6,4.5,1.1,8.5,1.5,12.5c0.3,3.7,0.4,7.3,0.6,11h-0.1c-0.2-3.7-0.2-7.3-0.6-11c-0.4-4-0.9-8-1.5-12.5l-4.5-2.3L773.4,157.5z
			 M773.5,168.8c-0.5,0.1-0.9,0.2-1.4,0.2C772.5,169,773,169,773.5,168.8l-4.3-13.7l0,0L773.5,168.8z M773.4,181.4L773.4,181.4
			c-5.6,3.4-6.3,5.8-3,10.9v0.1C767,187.3,767.7,184.8,773.4,181.4z M774.8,218.9l-0.5-0.6l1.5-1l-1.5,1L774.8,218.9L774.8,218.9z
			 M775.8,223.8c-0.3-0.2-0.6-0.5-0.8-0.8l0,0C775.3,223.3,775.5,223.5,775.8,223.8l0.9-1L775.8,223.8z M778.5,213.6
			c-0.3-0.3-0.5-0.6-0.6-0.9l0,0C778.1,213,778.3,213.3,778.5,213.6c0.3,0,0.6-0.1,0.8-0.2C779.1,213.5,778.8,213.6,778.5,213.6z
			 M780.2,231.9c-0.1-1,0.1-2.1,0.3-3.3c0,0,0,0,0.1,0C780.2,229.7,780.1,230.9,780.2,231.9z M782,208.3l-1.2-0.9L782,208.3
			L782,208.3z M777.1,209.1L777.1,209.1c1.4-4.3-2.8-10.2,5.2-13.5l-6.3-1.2l2.1-1.9l-5.6-3.3l0,0l5.7,3.3l-2.1,1.9l6.3,1.2
			C774.4,198.9,778.5,204.8,777.1,209.1z M786.9,200.5l-1.1-1c-0.2,0.4-0.4,0.8-0.4,1.2l0,0c0.1-0.4,0.2-0.8,0.4-1.2L786.9,200.5
			L786.9,200.5z M794.4,192.9l-7-3.1v-0.1L794.4,192.9L794.4,192.9z M794.4,180.7l-4.2,5.4h-6.7l0,0h6.7l4.3-5.5L794.4,180.7
			L794.4,180.7z M795.2,127.7L795.2,127.7l0.2-0.6l0,0L795.2,127.7z M796.9,196.1c-0.1,0-0.2-0.1-0.3-0.1c0-0.1,0-0.2,0.1-0.3l0,0
			c0,0.1-0.1,0.2-0.1,0.3C796.7,196,796.8,196.1,796.9,196.1L796.9,196.1z M797,195.9v-0.1l0,0V195.9z M797.3,191.6L797.3,191.6
			l1.3-0.4l-1.3-5l0,0l1.3,5.1L797.3,191.6z M806.8,234.2v-0.1h4l-0.2-1.4l0,0l0.2,1.5H806.8z M806.8,101.4c4.8-4.2,7.3-4.5,10-1
			c1.6-1.4,2.8-3.6,4.8-4.1c1.1-0.2,2.2,0.2,2.8,1.1c-0.6-0.9-1.7-1.3-2.7-1.1c-1.8,0.4-3.2,2.6-4.8,4.1l-4,6.8l-3.3-0.7l-3.7-0.8
			L806.8,101.4C806.9,101.4,806.9,101.4,806.8,101.4z M800.3,117.4L800.3,117.4c1.8-8.8,4.1-9.8,13.5-4.5c-1.9,3.6-3.5,7.4-5.8,10.8
			c-1,1.5-3.1,3.6-5.2,0.7l-2.8,5.2c-0.9,0.2-2.2,1-3.1,0.9c0.9,0.1,2.2-0.6,3-0.9l2.7-5.2L800.3,117.4z M797.3,115.4
			c0.9,0.2,0.2,3,1.2,3.1C797.5,118.5,798.2,115.8,797.3,115.4L797.3,115.4z M799,123.5l-0.5,1l0,0h-4.1l1.3-2.7L799,123.5z
			 M794.8,113.4l0.2-0.3L794.8,113.4l-4.2,4.1v-0.1L794.8,113.4z M790.1,105.7c0.2,1.9,0.4,3.8,0.5,5.6c0.9-1,1.5-1.8,1.7-2.5
			c-0.2,0.7-0.7,1.6-1.7,2.5l-3.9,4.7c2.3,1.8,4,2.7,5.6,2.6c-1.6,0.1-3.3-0.8-5.6-2.6c-4.5-1.3-0.4-3.8-0.7-5.7l0,0L790.1,105.7z
			 M759.9,80.7l1.8-0.6c0.2-1.7,0.4-3.4,1.8-3.2c-1.4-0.2-1.6,1.5-1.8,3.2l8-0.8c-0.8-0.3-1.6-0.4-2.4-0.7c0.8,0.2,1.6,0.4,2.4,0.7
			l0.1,1.1l1.7,0.6l-1.7-0.6l0.1,2l4.7-0.3l0.2,0.1l3.4,2.3c5.8,1.8,8,5.2,5.9,9v2.1l2.7,4l-2.1,7.9l1,2.6l-1-2.6
			c-0.9,2.1-2.5,4.2-2.5,6.2c0.1,5.5-3.4,7.5-7.6,9.1c-1.7,0.5-3.4,1.1-5.1,1.5c-1.6,0.4-3,0.8-4.6,1.2h8.7c0,0,0,0,0,0.1H765
			c-2.2,1-5.4,3.5-6.2,2.9c-2.6-2.1-4.3-5.2-6.3-8l0,0c-0.1-4.1,1-8.7-0.5-12.3c-2.6-6.5-0.4-12,1.7-17.7L759.9,80.7
			c-1.1,0.1-2.3,0.1-3.3,0.3C757.6,80.7,758.9,80.8,759.9,80.7z M759.3,59.2L759.3,59.2l2.5-0.8L759.3,59.2z M794.4,20.4l0.8-1.2
			c-0.3-0.3-0.6-0.5-1-0.7l0,0c0.4,0.1,0.7,0.4,1,0.7L794.4,20.4z M883,28.6c-0.3-0.3-0.6-0.6-0.8-1c0-0.1,0.1-0.3,0.1-0.4
			c-0.1,0.1-0.1,0.2-0.1,0.4C882.4,28,882.7,28.3,883,28.6l0.8-1.1l0,0L883,28.6z"/>
		<path class="st7" d="M1025.5,354l1.6,11.8l1.4-0.2C1028.5,361.6,1030.1,357.3,1025.5,354z"/>
		<path class="st7" d="M846.7,141.4L846.7,141.4L846.7,141.4z"/>
		<path class="st7" d="M856.9,134.9l-20.3-13.2l-2.4,2.8c3.9,2.6,7,5.4,7.1,10.8c0,1.9,2.3,3.8,3.5,5.7l1.8,0.3l-1.7-8.8
			L856.9,134.9z"/>
		<polygon class="st7" points="890.6,194.4 886,202.5 887.6,204.2 887.6,204.3 886,202.5 885.9,202.7 885.9,202.7 879.9,214.4 
			884.2,213.8 883.4,212.6 889.8,208.4 890,206.9 889.6,206.2 889.6,206.3 890,206.9 890.2,206.6 890.2,206.6 890.2,206.6 
			890.2,206.6 890.2,206.6 893.4,198.4 		"/>
		<path class="st7" d="M893.8,141.9c-1.2-1.5-2.7-2.7-4.4-3.5c-5-2-9,0.7-13.1,2.9l-5.5,3.4l0.2,3.9
			C878,144.9,884.4,139,893.8,141.9z"/>
		<path class="st7" d="M884.2,213.8l-4.2,0.6l-1.3,2h3c0.8,0.2,2.2,0.4,2.2,0.6c0.1,2.4,0,4.8-0.1,7.3l6.6-10.8l-0.6-5.1l-6.4,4.3
			L884.2,213.8z"/>
		<polygon class="st7" points="858.1,156.6 870.9,148.6 870.8,144.7 854.8,154.5 		"/>
		<path class="st7" d="M635.2,144.2c-0.2,0.1-0.3,0.3-0.3,0.4l-4.1,0.8h-2.2l-21.6,5l-1,1.3c-2.7,0.9-5.5,1.5-8.1,2.6
			c-5.7,2.4-11.4,4.9-17.1,7.4l-7,4.1c-2.4,2.6-4.8,5.2-7.2,7.6c-1,0.9-2.1,1.7-3.3,2.5l6.7-1.5c4.2-5.4,10-7.7,16.4-9l6.4-3.1
			l12.2-5.9l4.5-3.7l0,0l-4.5,3.7l12-2.2c2.3-0.3,4.5-0.5,6.8-0.9c0.9-0.2,1.7-0.5,2.5-0.9c2.6-0.8,5.3-1.9,8-2.3
			c9.7-1.3,19.5-2.4,29.2-3.6c1.9-0.3,3.8-0.8,5.8-1.3l1.6-8.7l-1.7-0.3l-2,1.3l0,0l-14,1.8c4.5,2.4,8.8,2.5,12.6-0.5
			c-3.8,3.1-8,3-12.6,0.6l0,0l0,0l0,0l0,0l-14.2,4.3l-1,0.7c0.2,0,0.4,0.1,0.6,0.1c-0.2,0-0.4-0.1-0.6-0.1L635.2,144.2z"/>
		<path class="st7" d="M636.8,101.4c-1.6-0.1-3.2-0.3-4.8-0.6c-7.7,4.9-16.2,7.4-25,9.3l-1.2,4.9c6.2-1.9,12.5-3.7,18.7-5.8
			c7.4-2.5,14.8-5.2,22.2-7.8C643.4,101.4,640.1,101.4,636.8,101.4z"/>
		<path class="st7" d="M569.6,135.9c3.3-1.3,6.6-2.8,9.7-4.5l8.6-5.2l9-6c-0.3-5.2-3-3.7-5.7-2l-18.9,10.4l-6.5,5.8
			C567.2,134.9,568.7,136.2,569.6,135.9z"/>
		<polygon class="st7" points="606.9,184 607.2,184.2 607.7,184.2 		"/>
		<path class="st7" d="M884.8,235.2c-0.9,3.7-1.4,7.5-2,11.3l-2.2,20.4l-5.2-2.8l-0.7,3.6c4.4,0.9,5.6,3.6,5.2,7.9
			c-0.2,2.4,0.9,4.8,1.5,7.3c2.9-3.5-0.7-8.5,4-10.2c-2-9.5,1.7-18.1,3.3-27c0.1-3.6,0.2-7.3,0.3-10.9l-1.1-1.6
			C886.8,233.8,885,234.3,884.8,235.2z"/>
		<polygon class="st7" points="861,264.3 869.8,266.8 870.9,263.3 863.8,260.4 		"/>
		<polygon class="st7" points="834.7,132.4 833.1,132.2 830.8,137.6 832.7,140.6 		"/>
		<path class="st7" d="M652.6,95.3l-20.7,5.3c1.6,0.3,3.2,0.5,4.9,0.7c3.3,0.1,6.6,0,9.9,0h0.1l3.1-0.8h-0.1l6.9-1.2L652.6,95.3z"/>
		<path class="st7" d="M659.1,70.1c0.3,0.3,0.5,0.7,0.7,1.2l3.9,1.1l4.1-4l-6.1-2h-0.1c-1.1-0.5-2.3-1.4-3.4-1.5
			c-9-0.7-17.9-0.3-26.3,3.5l-21.2,5.3l-0.5-0.3l-16.4,6.4l1.6,0.9l16.4-5.2l7.6-0.7l0.1,0.7l-2.8,1.6l0,0l-8.8,6.8l1,1.6l11.1-7
			l0,0l18.9-6.4l21-0.8C659.6,70.9,659.4,70.5,659.1,70.1c-0.9-0.6-1.9-1.1-2.9-1.7l0,0C657.2,68.9,658.2,69.4,659.1,70.1z"/>
		<path class="st7" d="M478.9,137.3c-0.3,1.5-0.6,3.1-0.9,4.6C478.3,140.3,478.5,138.8,478.9,137.3c0.1-0.8,1.2-1.3,1.9-1.9
			c0.2-4.8-0.1-9.5-6-11c-0.2,0.1-0.2,0.3-0.2,0.5l-2.6,3.5l-20.2,18l6.8,1.7l-1.3,2l-0.7,0.8l-3.1,5.2v0.1l-0.7,1.2
			c-15.1,15-21.2,23.5-20.1,28.4l5.9-4.2c0.9-1.6,1.6-3.6,2.8-5c5.1-6,10.5-12,15.7-18l-0.3-1l0.1-0.1l0.8-1l0.1-0.2l0.8-0.8l2.2-4
			l1.8-3l8.7-7.9l-2.2,11.7l7.8-3.9c0,0,0,0,0-0.1l4.9-7.4l-0.9-5.5C480.2,136,479.1,136.5,478.9,137.3z"/>
	</g>
	<path class="st8" d="M757.5,146.6c0,0,5.5-1.9,11.5-1.3c6.8,0.7,13.2,4,14.5,3.3c2.4-1.3,17.3-2.8,19.5-1.8l12,9.4l13.7,11.2
		c0,0-8.4-4.3-8.8-4.3l-5.3-3.2l0.2,3.9l6,13.9l-0.5,1.2l-5.1-9.5l-3.4-7.4l-6.3-7c-2.8-2.3-2.8-1.6-7.1-1.5s-8.6,2.4-8.6,2.4
		l12.9,24.8l13.7,4.5v1.6l-10.1-1.3l5.6,18.8l12.6,4.1l-0.1,1.7l-12.3-1v8.3l4,10.1l-6.4-10.4l-1.3-9.7l-7.1-19.9l-1.8,15.3
		l0.3,10.9l-2.2-15l0.3-18.4l-7.6-13.6c0,0-5.1-7.6-7.7-10.2c-2.6-2.6-9.1-4.4-9.1-4.4s-1.8,3.5-2.5,7.6s1.2,12.4,1.2,12.4l2.1,6.4
		l1.2,2.9l4.5,3.3l4.7,1.2l7.2-0.2l-0.4,1.8l-7,2.2l-6.1-1l-0.2,0.9l4.3,8.1l5.2,0.6l0.1,1.4l-5.3,1l-3.3-2.1l-4.2-7.3l-5.7,7
		l-1-1.3l1.6-4.9l2.3-6.7c-1.8-4.1-4.9-13.1-5.6-20.1c-0.6-6.9,1.1-13.8,1.1-13.8s-14.1-1.1-15.2-2.8"/>
</g>
<g id="heart" class="st4">
	<g class="st9">
		<g>
			<path class="st10" d="M834.9,185.7c-11.3-23.3-19.3-49.6-50.9-56.1c-1.9-0.4-2.3-2.9-0.6-3.8c2.9-1.5,5.4-2.9,6.8-4.7l-3.1,1
				c-4.2,1.4-8.8-0.9-10.2-5.1s0.9-8.8,5.1-10.2l2-0.7c-2.1-0.4-4.5,0-7,0.8c-1.6,0.5-3.4-0.1-4.4-1.4c-1.2-1.5-2.4-2.9-3.7-4.1
				l2.4-4.8c2-4,0.4-8.8-3.6-10.8s-8.8-0.4-10.8,3.6l-2.6,5.1c-5.3-0.3-10.3,1.8-14.1,6.4c-1.2,1.5-3.5,1.7-5.1,0.6
				c-1.7-1.2-3.3-2.2-5.1-2.5c-2.1-0.3-5.2,1.7-6.7,3.6c-0.8,1,0.6,4.2,1.6,6.1c1.3,2.6,4,5.5,4.9,7.8l0,0
				c6.7,1.8,15.8,6.2,15.7,16.6c-0.1,10.5-12.8,29.6-26.1,37.9c1.1,23,11.5,40.8,32.7,52.3c27.2,14.9,55.2,12.3,83,0.9
				c7.7-3.2,10.7-9.6,8.2-17.6C841,199.4,838.1,192.4,834.9,185.7z"/>
		</g>
		<path class="st11" d="M761.5,203.2c-17.6-9.6-27.8-23.6-31.3-41.3c-3.4,3.6-7,6.8-10.7,9.1c1.1,23,11.5,40.8,32.7,52.3
			c27.2,14.9,55.2,12.3,83,0.9c7.7-3.2,10.7-9.6,8.2-17.6c-0.2-0.6-0.4-1.2-0.6-1.8C815.5,215.5,788.1,217.7,761.5,203.2z"/>
		<path class="st12" d="M729.8,116.5c0.2,0.7,0.3,1.3,0.2,1.8c-0.8,2.9-5.4,5.9-8.9,6.9c-1,0.3-1.8,0.5-2.5,0.8l-17.1-8.6
			c-1.9-1-4.3-0.2-5.2,1.7l-1.3,2.6c-1,1.9-0.2,4.3,1.7,5.2l17.5,8.8c0.1,0.6,0.3,1.2,0.5,1.9c2.5,8.1,5.1,16.8,4.8,25.1
			c-0.1,2.8-0.1,5.6,0,8.3c13.2-8.3,25.9-27.4,26.1-37.9C745.6,122.7,736.5,118.3,729.8,116.5z"/>
		<path class="st13" d="M804.8,116.2l-17.8,5.9c-4.2,1.4-8.8-0.9-10.2-5.1s0.9-8.8,5.1-10.2l17.8-5.9c4.2-1.4,8.8,0.9,10.2,5.1
			S809,114.8,804.8,116.2z"/>
		<ellipse transform="matrix(0.9492 -0.3147 0.3147 0.9492 6.588 258.0067)" class="st14" cx="802.3" cy="108.6" rx="8" ry="8"/>
		<path class="st15" d="M818.2,207.7c-1.4,0.5-2.9-0.3-3.4-1.7l-2-6.1c-21.6-3.6-36.8-12-45-24.9c-10.6-16.6-5.7-34.4-5.4-35.1
			c0.4-1.4,1.9-2.2,3.3-1.8c1.4,0.4,2.2,1.9,1.8,3.3c0,0.2-4.5,16.3,4.8,30.8c7.6,11.8,22,19.4,42.9,22.7c1,0.2,1.8,0.9,2.1,1.8
			l2.5,7.6C820.4,205.7,819.6,207.3,818.2,207.7z"/>
		<path class="st16" d="M825.8,138l-5.6,0.5l2.3-5.1c0.9-2,0-4.3-1.9-5.2L818,127c-2-0.9-4.3,0-5.2,1.9l-4.9,10.7l-1.7,0.2
			c3.6,2.9,6.8,6.3,9.5,9.9l11-1c2.1-0.2,3.7-2.1,3.5-4.2l-0.3-2.9C829.9,139.4,828,137.8,825.8,138z"/>
		<path class="st15" d="M815.7,200.1c-0.8,0.3-1.8,0.1-2.5-0.4c-1.2-0.9-1.4-2.6-0.5-3.8l5.9-7.6c0.9-1.2,2.6-1.4,3.8-0.5
			s1.4,2.6,0.5,3.8l-5.9,7.6C816.6,199.6,816.2,199.9,815.7,200.1z"/>
		<path class="st15" d="M784.3,224.6L784.3,224.6c-1.4,0.5-2.9-0.3-3.4-1.7l-2.3-7c-14.7-9-20.3-27.2-12.4-41c0.7-1.3,2.4-1.7,3.7-1
			s1.7,2.4,1,3.7c-6.6,11.5-1.5,26.9,11.3,34.2c0.6,0.3,1,0.9,1.2,1.5l2.6,8C786.5,222.6,785.7,224.2,784.3,224.6z"/>
		<path class="st15" d="M806,166.6c-0.8,0.3-1.7,0.1-2.4-0.4c-6.8-5.1-14-8.5-20.1-9.6c-6.9-1.2-12.1,0.5-15.5,5.1
			c-0.9,1.2-2.6,1.4-3.8,0.5s-1.4-2.6-0.5-3.8c4.7-6.3,11.8-8.7,20.7-7.2c7,1.2,14.9,5,22.4,10.5c1.2,0.9,1.4,2.6,0.5,3.8
			C807,166.1,806.5,166.4,806,166.6z"/>
		<path class="st15" d="M798,172.1c-1.4,0.5-2.9-0.3-3.4-1.7l-3.4-10.2c-0.3-0.8-0.1-1.7,0.3-2.4l7.6-11c0.8-1.2,2.5-1.5,3.7-0.7
			s1.5,2.5,0.7,3.7l-6.9,9.9l3,8.9C800.1,170.1,799.4,171.6,798,172.1z"/>
		<path class="st15" d="M789.4,214.5l-7.6,2.5c-1.4,0.5-2.9-0.3-3.4-1.7s0.3-2.9,1.7-3.4l7.6-2.5c1.4-0.5,2.9,0.3,3.4,1.7
			C791.6,212.5,790.8,214,789.4,214.5z"/>
		<path class="st15" d="M798.7,208.5c-1.4,0.5-2.9-0.3-3.4-1.7l-5.1-15.3c-0.5-1.4,0.3-2.9,1.7-3.4l15.3-5.1
			c1.4-0.5,2.9,0.3,3.4,1.7s-0.3,2.9-1.7,3.4l-12.7,4.2l4.2,12.7C800.9,206.6,800.2,208.1,798.7,208.5z"/>
	</g>
</g>
</svg>
