<?xml version="1.0" encoding="utf-8"?>
<!-- Generator: Adobe Illustrator 19.2.0, SVG Export Plug-In . SVG Version: 6.00 Build 0)  -->
<svg version="1.1" id="Layer_1" xmlns="http://www.w3.org/2000/svg" xmlns:xlink="http://www.w3.org/1999/xlink" x="0px" y="0px"
	 viewBox="0 0 510.7 510.7" style="enable-background:new 0 0 510.7 510.7;" xml:space="preserve">
<style type="text/css">
	.st0{fill:#F1ECDE;}
	.st1{fill:#F92629;}
	.st2{fill:#C41216;}
	.st3{fill:#A59D8C;}
	.st4{fill:#68615B;}
</style>
<title>fake-blood</title>
<path class="st0" d="M255.3,0C114.3,0,0,114.3,0,255.3s114.3,255.3,255.3,255.3s255.3-114.3,255.3-255.3S396.3,0,255.3,0z
	 M255.3,492C124.7,492,18.7,386,18.7,255.3S124.7,18.7,255.3,18.7S492,124.6,492,255.3S386,492,255.3,492L255.3,492z"/>
<path class="st0" d="M255.3,33.7C133,33.7,33.7,133,33.7,255.3S133,476.9,255.3,476.9s221.6-99.2,221.6-221.6S377.7,33.7,255.3,33.7
	z M255.3,460.7c-113.4,0-205.3-92-205.3-205.4S141.9,50,255.3,50s205.4,91.9,205.4,205.4S368.8,460.7,255.3,460.7L255.3,460.7z"/>
<rect x="200.2" y="99.4" class="st1" width="110.3" height="48"/>
<path class="st1" d="M310.5,128.3H200.2c-37,0.1-67,30.1-67.2,67.2L161.8,301L133,406.5v38.3c0,15.9,12.9,28.7,28.8,28.8h187.1
	c15.9,0,28.7-12.9,28.8-28.8v-38.4l-28.8-105.5l28.8-105.5C377.5,158.3,347.5,128.4,310.5,128.3z"/>
<path class="st2" d="M310.5,157H200.2c-21.2,0-38.4,17.2-38.4,38.4v249.4c0,0,0.1,0.1,0,0.1h187.1V195.4
	C348.8,174.2,331.7,157.1,310.5,157z"/>
<rect x="133" y="195.4" class="st0" width="244.6" height="211.1"/>
<rect x="200.2" y="37.1" class="st3" width="110.3" height="62.4"/>
<path class="st4" d="M273.7,58.7c-4,0-7.2,3.2-7.2,7.2c0,0,0,0,0,0v33.6H281V65.8C281,61.9,277.8,58.7,273.7,58.7
	C273.8,58.7,273.8,58.7,273.7,58.7z"/>
<path class="st4" d="M236.9,58.7c-4,0-7.2,3.2-7.2,7.2c0,0,0,0,0,0v33.6h14.5V65.8C244.2,61.9,241,58.7,236.9,58.7
	C237,58.7,237,58.7,236.9,58.7z"/>
<path class="st4" d="M310.5,106.6H200.2c-4,0.2-7.3-2.9-7.5-6.9c-0.2-4,2.9-7.3,6.9-7.5c0.2,0,0.4,0,0.6,0h110.4
	c4-0.2,7.3,2.9,7.5,6.9c0.2,4-2.9,7.3-6.9,7.5C310.9,106.6,310.7,106.6,310.5,106.6z"/>
<path class="st1" d="M292.8,288.7l-37.5-50.2l-37.5,50.2c-15.4,20.7-11.1,50,9.6,65.3s50,11.1,65.3-9.6
	C305.1,327.9,305.1,305.2,292.8,288.7z"/>
</svg>
