<?xml version="1.0" encoding="iso-8859-1"?>
<!-- Generator: Adobe Illustrator 18.0.0, SVG Export Plug-In . SVG Version: 6.00 Build 0)  -->
<!DOCTYPE svg PUBLIC "-//W3C//DTD SVG 1.1//EN" "http://www.w3.org/Graphics/SVG/1.1/DTD/svg11.dtd">
<svg version="1.1" id="Capa_1" xmlns="http://www.w3.org/2000/svg" xmlns:xlink="http://www.w3.org/1999/xlink" x="0px" y="0px"
	 viewBox="0 0 57.92 57.92" style="enable-background:new 0 0 57.92 57.92;" xml:space="preserve">
<g>
	<g>
		<path style="fill:#C5411E;" d="M48.435,44.158c-1.267-9.561-1.007-19.849-11.438-25.858c-0.628-0.362-0.469-1.303,0.247-1.419
			c1.205-0.196,2.234-0.38,2.95-0.88H38.96c-1.657,0-3-1.343-3-3s1.343-3,3-3h0.787c-0.706-0.404-1.6-0.517-2.559-0.528
			c-0.635-0.007-1.193-0.422-1.399-1.022c-0.234-0.684-0.512-1.316-0.822-1.9l1.428-1.428c1.172-1.171,1.172-3.071,0-4.243
			c-1.172-1.172-3.071-1.171-4.243,0l-1.519,1.519c-1.838-0.722-3.87-0.574-5.766,0.615c-0.613,0.385-1.426,0.198-1.861-0.381
			c-0.453-0.604-0.923-1.177-1.528-1.484c-0.701-0.357-2.046-0.016-2.783,0.485c-0.405,0.275-0.271,1.543-0.161,2.333
			c0.15,1.079,0.794,2.407,0.816,3.328c0,0,0-0.001,0-0.001c2.174,1.44,4.865,4.055,3.609,7.707
			c-1.28,3.719-8.031,8.99-13.68,10.364c-2.308,8.281-0.695,15.791,5.425,22.355c7.884,8.457,18.12,10.834,29.277,10.065
			c3.114-0.215,4.913-2.162,4.97-5.259C49.004,49.739,48.802,46.924,48.435,44.158z"/>
	</g>
	<path style="fill:#B02721;" d="M20.389,41.719c-5.11-5.482-7.067-11.625-6.234-18.323c-1.616,0.881-3.288,1.582-4.876,1.968
		c-2.308,8.281-0.695,15.791,5.425,22.355c7.884,8.457,18.12,10.834,29.277,10.065c3.114-0.215,4.913-2.162,4.97-5.259
		c0.004-0.234-0.003-0.47-0.002-0.705C38.073,52.44,28.103,49.994,20.389,41.719z"/>
	<path style="fill:#C29AB4;" d="M19.351,7.293c0.006,0.259-0.028,0.492-0.148,0.671c-0.634,0.949-2.6,1.47-3.94,1.388
		c-0.367-0.022-0.698-0.023-1.001-0.004L9.214,4.298c-0.567-0.567-1.486-0.567-2.053,0L6.385,5.074
		c-0.567,0.567-0.567,1.486,0,2.053l5.155,5.155c-0.021,0.23-0.042,0.46-0.048,0.72c-0.074,3.165-0.155,6.54-1.256,9.433
		C9.86,23.422,9.55,24.397,9.28,25.364c5.649-1.374,12.4-6.645,13.68-10.364C24.217,11.348,21.526,8.733,19.351,7.293z"/>
	<path style="fill:#9A879A;" d="M45.96,16h-7c-1.657,0-3-1.343-3-3s1.343-3,3-3h7c1.657,0,3,1.343,3,3S47.617,16,45.96,16z"/>
	<circle style="fill:#556080;" cx="45.96" cy="13" r="3"/>
	<path style="fill:#F7B563;" d="M39.96,50c-0.553,0-1-0.447-1-1v-2.393c-7.239-3.823-11.619-8.562-13.022-14.092
		c-1.808-7.122,2.033-12.841,2.197-13.081c0.312-0.455,0.934-0.571,1.388-0.26c0.456,0.311,0.573,0.933,0.264,1.389
		c-0.035,0.052-3.5,5.251-1.904,11.485c1.299,5.075,5.516,9.47,12.533,13.061C40.75,45.281,40.96,45.625,40.96,46v3
		C40.96,49.553,40.513,50,39.96,50z"/>
	<path style="fill:#BA98B1;" d="M50.837,26.192l-2.035-0.474l1.426-1.528c0.547-0.586,0.515-1.504-0.071-2.052l-0.802-0.749
		c-0.586-0.547-1.505-0.515-2.052,0.071l-2.997,3.211l-0.611-0.142c0.945,1.459,1.661,3.009,2.213,4.622l4.022,0.936
		c0.781,0.182,1.561-0.304,1.743-1.085l0.249-1.068C52.104,27.154,51.618,26.374,50.837,26.192z"/>
	<path style="fill:#F7B563;" d="M39.961,47c-0.323,0-0.641-0.156-0.833-0.445c-0.307-0.46-0.183-1.08,0.277-1.387l3-2
		c0.461-0.306,1.081-0.183,1.387,0.277c0.307,0.46,0.183,1.08-0.277,1.387l-3,2C40.344,46.945,40.152,47,39.961,47z"/>
	<path style="fill:#F7B563;" d="M25.96,52c-0.002,0-0.004,0-0.006,0c-0.552-0.003-0.997-0.453-0.994-1.006l0.016-2.756
		c-4.156-4.918-3.995-12.012,0.43-15.982c0.411-0.369,1.042-0.335,1.412,0.076c0.369,0.411,0.335,1.043-0.076,1.412
		c-3.693,3.314-3.702,9.35-0.02,13.454c0.166,0.185,0.257,0.425,0.256,0.674l-0.018,3.134C26.957,51.556,26.51,52,25.96,52z"/>
	<path style="fill:#F7B563;" d="M40.456,34c-0.316,0-0.627-0.149-0.821-0.428c-1.816-2.604-3.948-4.645-6.004-5.747
		c-2.292-1.229-4.342-1.232-6.099-0.005c-0.452,0.315-1.077,0.204-1.393-0.248c-0.315-0.453-0.205-1.076,0.248-1.393
		c2.39-1.667,5.223-1.708,8.188-0.117c2.328,1.248,4.707,3.509,6.7,6.365c0.315,0.453,0.205,1.076-0.248,1.393
		C40.853,33.941,40.653,34,40.456,34z"/>
	<path style="fill:#F7B563;" d="M36.96,35c-0.553,0-1-0.447-1-1v-4c0-0.314,0.148-0.611,0.4-0.8l4-3
		c0.44-0.331,1.068-0.243,1.399,0.2c0.332,0.441,0.242,1.068-0.2,1.399l-3.6,2.7V34C37.96,34.553,37.513,35,36.96,35z"/>
	<path style="fill:#F7B563;" d="M28.96,49h-3c-0.553,0-1-0.447-1-1s0.447-1,1-1h3c0.553,0,1,0.447,1,1S29.513,49,28.96,49z"/>
	<path style="fill:#F7B563;" d="M32.96,48c-0.553,0-1-0.447-1-1v-6c0-0.553,0.447-1,1-1h6c0.553,0,1,0.447,1,1s-0.447,1-1,1h-5v5
		C33.96,47.553,33.513,48,32.96,48z"/>
</g>
<g>
</g>
<g>
</g>
<g>
</g>
<g>
</g>
<g>
</g>
<g>
</g>
<g>
</g>
<g>
</g>
<g>
</g>
<g>
</g>
<g>
</g>
<g>
</g>
<g>
</g>
<g>
</g>
<g>
</g>
</svg>
