<svg id="Layer_5_Image" data-name="Layer 5 Image" xmlns="http://www.w3.org/2000/svg" viewBox="0 0 691.44 211.21"><defs><style>.cls-1{fill:#af85a6;}</style></defs><title>layer5</title><path class="cls-1" d="M691.44,128.39c-1.78,1-3.52,2-5.36,2.88a10.88,10.88,0,0,1-2.75.46,16.37,16.37,0,0,1-.81,2.24,1.52,1.52,0,0,1-1.08.71,15.5,15.5,0,0,1-6-.64c-2-.76-4.15-0.08-6.2.33-1.39.28-2.75,0.75-4.15,0.95a3,3,0,0,1-1.94-.5c-1.65-1.19-1.6-1.23-3.46-.36-1.46.69-2.91,1.42-4.42,2a12.84,12.84,0,0,1-8.19.63,21.14,21.14,0,0,0-11.57.48c-1.69.5-3.15,1.64-4.81,2.26a57.88,57.88,0,0,1-5.58,1.59,1.16,1.16,0,0,1-.77-0.21c-1.53-1-3.12-1.84-4.53-2.94-1.87-1.45-4.13-1.73-6.33-2.2a17.59,17.59,0,0,0-3.46-.27,3.47,3.47,0,0,0-1.83.37,32.09,32.09,0,0,1-9,3.72c-1.36.39-2.65,1.09-4.17,0.66a1.91,1.91,0,0,0-1,.3,20.91,20.91,0,0,0-1.94.88c-1.61.89-2.9,0.49-4.37-.51-3.13-2.11-6.42-4-10.5-3.95a8.91,8.91,0,0,1-2.78-.64,9.9,9.9,0,0,0-8.52.8c-3.12,1.92-6.55,2.56-10,3.09-4.33.66-8.73,1-13.06,1.63-4.5.7-8.6-.43-12.69-1.91a11.64,11.64,0,0,0-2.92-.56,10.65,10.65,0,0,1-4.61-1.44,44,44,0,0,0-4.31-2.21,1.8,1.8,0,0,0-1.38.13c-0.78.44-1.43,1.09-2.2,1.55s-1.53.72-2.3,1.09a5,5,0,0,0-1.63.88,12.67,12.67,0,0,1-5.55,3.35c-1.55.58-3.05,1.28-4.55,2a1.85,1.85,0,0,1-2.2-.17,3.66,3.66,0,0,0-4.67-.33c-2.3,1.41-4.54,2.9-6.78,4.38-1.05.69-1.95,1.73-3.48,1.17a1,1,0,0,0-.69.11c-4.78,2.57-9.56,5.13-14.32,7.74a5,5,0,0,1-4,.26c-2.68-.79-5.34-1.68-8.06-2.35a5.24,5.24,0,0,0-2.88.3,25.29,25.29,0,0,0-3.64,1.92,4,4,0,0,1-3.94.14c-2.86-1.31-5.73-2.6-8.68-3.72a11.31,11.31,0,0,0-3.85-.51,3.17,3.17,0,0,0-1.7.88c-1.72,1.4-3.32,2.95-5.1,4.27-1.27.95-2.89,1.49-4.12,2.47-1.41,1.12-2.54,2.56-3.84,3.81a2.21,2.21,0,0,1-1.29.68,3.56,3.56,0,0,0-3.14,1.66,6.36,6.36,0,0,1-5.59,2.9c-1.24,0-2.48,0-3.72,0a1,1,0,0,0-1.18.92c-0.15,1.17-.45,2.33-0.7,3.54a5.44,5.44,0,0,0-1.13-.15c-3.47.33-6.09-1.34-8.63-3.22-0.84-.63-1.75-1.18-2.6-1.8a1.3,1.3,0,0,0-1.71,0c-2.18,1.51-4.37,3-6.6,4.45a14.75,14.75,0,0,1-2.82,1.44,1.75,1.75,0,0,1-1.44-.25c-1.42-1.21-2.77-2.48-4.08-3.79a1.69,1.69,0,0,0-2.14-.58c-1.81.92-3.62,1.85-5.4,2.82-1,.57-2,1.27-3,1.86s-2.31,1.09-3.63.22a2,2,0,0,0-1.44-.05,2.77,2.77,0,0,1-3.33-.76c-1.77-2.32-4.33-2.73-7.07-2.8-3.43-.08-6.71.73-10,1.38a4.85,4.85,0,0,1-2.47.06c-2.06-.79-4.17-0.44-6.26-0.61-1.77-.14-3.52-0.49-5.27-0.73a3,3,0,0,0-1.15,0c-2.25.62-4.45,1.38-6.73,1.89a6.24,6.24,0,0,1-3-.17c-1.74-.51-3.41-1.25-5.11-1.9a6.1,6.1,0,0,0-3.72-.4c-2.76.66-5.44,0-8.14-.5a13.73,13.73,0,0,0-3.74-.1c-1.66.16-3.3,0.81-4.93,0.76-2.7-.07-5.37-0.46-7-3a6.17,6.17,0,0,0-2.43-1.85c-4.75-2.31-10.07-3-15.08-4.57a22.4,22.4,0,0,1-8.57-5,18.31,18.31,0,0,0-6.36-4.07c-1.67-.6-3.31-1.28-5-1.95a16.41,16.41,0,0,0-5.22-1,26.84,26.84,0,0,1-5.06-1.15,2.73,2.73,0,0,0-2.57.4,34.11,34.11,0,0,1-3.28,2c-1.7,1-3.43,1.32-5.21.14a6.72,6.72,0,0,0-6-.82,12.84,12.84,0,0,1-5.39-.09,18.28,18.28,0,0,1-7.74-3.38,1.94,1.94,0,0,0-2.71-.08c-1.13.86-2.6,1.3-3.77,2.12-2.45,1.73-4.81,3.58-7.2,5.38-0.31.23-.63,0.45-1,0.68-1.1.77-2.21,1.15-3.43,0.18a5.65,5.65,0,0,0-1-.48c-1.42,2.66-4.18,2.91-6.79,3.41a3,3,0,0,1-1.62-.16,54.1,54.1,0,0,0-15-4,23.53,23.53,0,0,0-3.59-.06,10.55,10.55,0,0,1-4.9-1.22c-1.92-.87-3.93-1.59-5.94-2.29a1.86,1.86,0,0,0-1.42.23,4.3,4.3,0,0,1-5.75-.16c-4.23-3.3-8.63-6.4-13-9.59-0.31-.23-0.65-0.44-1-0.68a3.89,3.89,0,0,0-4.82-.5,15,15,0,0,1-9.78,1.85,3.31,3.31,0,0,0-2.19.65,7.14,7.14,0,0,1-5.35,1c-3.39-.44-6.77-0.95-10.16-1.4a1,1,0,0,0-.81.22c-1.71,2.39-4.58,3.33-6.89,5-1.5,1.05-3.12,1.95-4.71,2.88a3.86,3.86,0,0,1-4.44-.08c-1.62-1.09-3.33-2.06-5-3.13a1.77,1.77,0,0,0-2-.2c-0.14.07-.3,0.1-0.44,0.17a7.39,7.39,0,0,1-6.84.11,13.39,13.39,0,0,0-3.86-.63,1.47,1.47,0,0,0-.83.32c-0.62.41-1.19,0.89-1.83,1.27-1,.63-2.08,1-3.22.07-0.86-.71-1.86-1.29-2.76-2a2.75,2.75,0,0,0-2.37-.58A12.75,12.75,0,0,1,39.41,145a7.85,7.85,0,0,0-4.49-.53c-2.74.45-5.23,0.14-7.38-1.9a9.79,9.79,0,0,0-4.1-2.13,13.21,13.21,0,0,1-4.19-1.82c-0.61-.42-1.17-0.91-1.74-1.37a7.42,7.42,0,0,0-4.18-2,7.83,7.83,0,0,1-5-2.35c-2.11-2.11-2.38-2.07-4.91-.44-1.08.7-2.11,1.46-3.17,2.19q0,61.19,0,122.38H0v82.5H691.2V259.47h0.24V128.39Z" transform="translate(0 -128.39)"/></svg>