<svg id="Red_Mountains" data-name="Red Mountains" xmlns="http://www.w3.org/2000/svg" viewBox="0 0 691.44 249"><defs><style>.cls-1{fill:#d17c89;}.cls-2{fill:#b5606d;}</style></defs><title>layer4</title><path class="cls-1" d="M236.45.48l.19-.48h3.12c.75.59 1.55 1.14 2.23 1.79 1.68 1.61 3.4 3.2 4.93 4.92 1.37 1.54 2.52 3.25 3.76 4.88 1.66 2.18 3.19 4.46 5 6.51 3.77 4.25 8.59 7.46 12.79 11.27a36.69 36.69 0 0 1 4.08 4.12c3.06 3.83 7.33 6.39 10.92 9.65 2.36 2.14 4.57 4.43 6.84 6.66l.33.33c3 2.87 6 5.67 8.83 8.63 3 3.16 5.86 6.51 8.88 9.69a61.1 61.1 0 0 0 5.87 5.52c3.34 2.69 6.83 5.21 10.29 7.76 1.62 1.2 3.32 2.29 4.94 3.48s3 2.28 4.52 3.46c2.95 2.33 5.85 4.7 8.81 7 3.54 2.77 7.16 5.44 10.65 8.25 2.48 2 4.82 4.15 7.22 6.23.86 1.94 1.71 3.88 2.59 5.82a24.38 24.38 0 0 1 1.31 2.79 10.77 10.77 0 0 0 4.18 6 8.47 8.47 0 0 1 2.79 3.7c1.21 3.12.67 6.43.58 9.67a2 2 0 0 1-.3.86 21.29 21.29 0 0 0-2.49 10.63c0 4.57.16 9.15.25 13.72h-7.7c-1.63-1.81-3.21-3.67-4.92-5.41q-5.87-6-11.85-11.87a7.51 7.51 0 0 0-2.25-1.45A49.08 49.08 0 0 1 326 133.08c-1.63-1.76-3-3.71-4.74-5.4-3.9-3.89-6.95-8.37-10.08-12.79a4.46 4.46 0 0 0-2.21-1.54 3.81 3.81 0 0 1-2.54-2.28c-2.26-4.71-4.66-9.37-7-14a6.6 6.6 0 0 1-.63-1.46 12.22 12.22 0 0 0-2.3-4.77c-2.18-2.92-4-6.08-6-9.12-.46-.71-.95-1.4-1.47-2.07a14.23 14.23 0 0 1-2.59-5.56c-.32-1.35-.52-1.45-1.89-.9s-2.74 1.22-4.1 1.86c-.86.41-1.32.33-1.61-.68-.83-2.84-1.68-5.69-2.73-8.46-1-2.52-2.17-5-3.35-7.39a4 4 0 0 0-1.19-.8 4.19 4.19 0 0 1-1.36-1.21c-2-4.46-4.08-8.89-5.82-13.44a30.88 30.88 0 0 0-4.06-7.42 11.55 11.55 0 0 0-2.89-2.45c-.77-.52-1.77-.71-2.58-1.18q-3.46-2-6.84-4.13a1.67 1.67 0 0 1-.71-1.12c-.37-4.94-2-9.71-2-14.7a2.76 2.76 0 0 0-.64-1.64c-1.64-2-3.39-3.92-5-5.9-1.17-1.36-2.18-2.72-3.22-4.05zM102.23 49.75a2 2 0 0 1 1 .15c2.6 2.71 5.54 5.14 7.61 8.3a24.16 24.16 0 0 0 6.25 6.29c4.87 3.51 9.83 6.9 14.71 10.4a71.09 71.09 0 0 1 6.25 4.82 24.59 24.59 0 0 1 5.48 6.74 8.64 8.64 0 0 0 .56.81l.64-.72c0 1.17.07 2.35 0 3.52-.28 4.78.9 9.39 1.92 14a9.56 9.56 0 0 0 3.27 4.9 14.48 14.48 0 0 1 4.46 6.39c-.69-.37-1.1-.56-1.49-.79-4.87-3-9.71-6-14.62-8.89-2.67-1.57-5.35-3.13-8.68-3.3a12.27 12.27 0 0 1-3.5-1.12 24.15 24.15 0 0 0-7.73-1.89 2.35 2.35 0 0 1-2.18-1.36 40.44 40.44 0 0 1-2.43-5.14 6.86 6.86 0 0 0-2.25-3.53c-3.08-2.26-4.5-5.62-6.58-8.53-2-2.75-3.72-5.64-5.6-8.45-1-1.53-2.15-3-3.15-4.53a6 6 0 0 1-1-4.68c.21-.88 1.11-1.61 1.63-2.44a2.86 2.86 0 0 0 .63-1.52c-.13-1.41.71-2.17 1.76-2.86.1-.07.21-.12.31-.17 3.15-1.71 3.46-2.35 2.84-5.75-.07-.19-.08-.42-.11-.65zM57.6 25.92c1.51.87 3.05 1.68 4.51 2.61q4 2.56 8 5.25c1.76 1.2 3.39 2.56 5.16 3.75s3.92 2.36 5.82 3.62c1.06.71 1.94 1.65 3 2.4 3.25 2.36 6.52 4.7 9.83 7a24.68 24.68 0 0 0 2.87 1.49 3 3 0 0 1-.72.39c-2.28.49-4.58.93-6.86 1.46a1.53 1.53 0 0 0-1.05.79 28.57 28.57 0 0 0-.3 6.39 43.4 43.4 0 0 0 2 6.86c.34 1.1.78 2.18 1.17 3.27l-.32.14c-.73-1.06-1.43-2.14-2.18-3.19-1.42-2-2.87-3.9-4.3-5.86a9.47 9.47 0 0 1-1.2-1.81c-1.37-3.3-3.74-6-6-8.72a2.46 2.46 0 0 0-1.57-.62 3.67 3.67 0 0 1-3.07-1.78C68.78 44.07 65 38.92 61.58 33.62a82.22 82.22 0 0 1-3.98-7.7zM9.58 41.41a6.06 6.06 0 0 1 4.6.72c.93.49 1.92.87 2.88 1.3 2 2.28 3.92 4.54 5 7.42a6.29 6.29 0 0 0 3.19 3.41 10.63 10.63 0 0 1 4.25 3.72 12.35 12.35 0 0 0 2.48 2.23c.53.45 1.05.91 1.62 1.33 1.33 1 2.67 1.91 4 2.86 1.84 1.3 2.78 3.13 3.62 5.33-.62-.08-1-.1-1.36-.17-1.37-.24-2.74-.46-4.09-.76a2.07 2.07 0 0 1-1.06-.61c-1-1.14-1.83-2.39-2.87-3.48a6.36 6.36 0 0 0-1.89-1 4.26 4.26 0 0 1-1.6-.74c-1.62-2.35-4.12-3.77-6.27-5.56a25.3 25.3 0 0 1-5.3-5.78 3.66 3.66 0 0 0-.84-.76 2.12 2.12 0 0 1-.66-.46A9.76 9.76 0 0 0 12 46.68a3.78 3.78 0 0 1-.84-1.48c-.58-1.28-1.07-2.53-1.58-3.79zM216.46 12.78l5.48 3.19a5 5 0 0 1 .55.43c1.1 3.39 2.14 6.8 3.34 10.17a8.83 8.83 0 0 0 1.61 2.17 5.41 5.41 0 0 1 .9 1c1.09 2.67 2.16 5.35 3.15 8a29 29 0 0 1 .8 3.33 2 2 0 0 1-2-1.62c-.9-2.25-1.85-4.49-2.82-6.72a3 3 0 0 0-2.31-1.77 3.28 3.28 0 0 1-2.49-2.23c-.91-2.45-1.82-4.91-2.84-7.32a43.66 43.66 0 0 0-2.34-4.59 6.94 6.94 0 0 1-1.03-4.04zM170.13 56.33c.36-1 1.21-.69 1.91-.62a8.71 8.71 0 0 1 2.19.46 2.61 2.61 0 0 0 2.62-.52 32.23 32.23 0 0 0 4.85 13.27l-.3.21a10.21 10.21 0 0 1-1.05-.74 39.5 39.5 0 0 1-7.14-8.61 25.39 25.39 0 0 0-3.08-3.45zM32.34 31.92l6.06 3.86c.26.16.48.37.73.55.85 3.49 1.09 7.13 3.19 10.31l-.49.2c-.41-.6-.83-1.19-1.23-1.79q-4-6.1-7.91-12.21a4.57 4.57 0 0 1-.35-.92zM57.35 25.72l.25.2zM31.89 32.02l.32-.15zM504.94 68.37a7.13 7.13 0 0 0 3.36 3.84 8.14 8.14 0 0 1 3.93 4.12c.36.92 1.39 1.6 2.13 2.38s1.61 1.66 2.41 2.48a5.27 5.27 0 0 0 .74.73c1.93 1.32 4 2.51 5.81 3.94a11.35 11.35 0 0 1 4 5.92c.64 2.21 1.51 4.36 2.3 6.53a10.38 10.38 0 0 1 .56 1.37c.61 3 2.59 5.22 5 7.14a7.07 7.07 0 0 1 1.2 1.25 7 7 0 0 0 3.68 2.61 10 10 0 0 1 6.4 5.41c1 2 2.43 3.9 3.65 5.85.29.47.52 1 .78 1.45l-.3.27c-1.33-.79-2.67-1.56-4-2.36s-2.71-1.69-4.05-2.56a1.13 1.13 0 0 1-.54-.67c-.06-1-.7-1.23-1.55-1.43-2.63-.64-5.23-1.41-7.88-2a2.54 2.54 0 0 1-2.31-2.6 2.21 2.21 0 0 0-1.49-1.93c-3-1.67-5.88-3.61-8.94-5.22s-3.95-4.34-4.78-7.31c-.63-2.26-1.94-4.35-2.91-6.52a20.16 20.16 0 0 1-1.12-2.85c-.34-1.25-.5-1.36-1.79-.86s-2.64 1-4 1.49l-.31-.22c.55-1.19 1.06-2.38 1.65-3.55.41-.82 1-1.57 1.35-2.4a1.34 1.34 0 0 0-.14-1.19c-.64-.77-1.46-1.39-2.13-2.14-3-3.39-6.13-6.76-9-10.25a32.51 32.51 0 0 1-2.93-4.66 3.58 3.58 0 0 0-2.54-1.9 2.65 2.65 0 0 1-2.16-1.91c-1.42-4.37-2.79-8.76-4.18-13.14a27.78 27.78 0 0 1 3.3 3.09 48.25 48.25 0 0 0 4.59 5.22c3.1 3 5.88 6.27 8.85 9.38 1.01 1.17 2.22 2.15 3.36 3.2zM474.26 52.54c-.65.85-1.26 1.72-1.95 2.55a2.82 2.82 0 0 0-.51 2.88c.48 1.48.93 3 1.31 4.48a16.06 16.06 0 0 1 .39 2.68 43.35 43.35 0 0 1 .12 5.52c-.25-.49-.54-1-.75-1.46-.85-2-1.67-4.09-2.53-6.12a2.59 2.59 0 0 0-2.13-1.77 2.14 2.14 0 0 1-1-.7c-1.41-1.43-2.82-2.86-4.16-4.35a6 6 0 0 1-1-1.78c-.46-1.13-.89-2.27-1.23-3.42-1-3.3-1.9-6.62-2.91-9.91-.58-1.92-1.29-3.8-1.93-5.7a1.72 1.72 0 0 1 .74.16c2.91 2.71 6 5.25 8.32 8.49a11.85 11.85 0 0 0 1.59 1.54c2.19 2.08 4.38 4.16 6.59 6.22a7.53 7.53 0 0 0 1.04.69zM691.38 45.69l-4.47-.71c.43-.86-.22-1.22-1.14-1.59-1.12-.46-2.26-1-2.54-2.35a1.69 1.69 0 0 0-1.24-.32c-1.59.22-3.16.53-5 .86.76-2.21 2.78-2.73 4.09-4-1.85-1.35-3.78-2.44-4.28-4.66.32-.77.89-.45 1.33-.21 1.43.79 2.83 1.63 4.25 2.44a12.05 12.05 0 0 0 1.45.74c2.31.93 4.65 1.82 6.95 2.78a1.23 1.23 0 0 1 .64.9c.03 2.04-.02 4.08-.04 6.12zM572.15 55.92l-3.43-1.6c-.71-.33-1.43-.62-2.12-1a2.59 2.59 0 0 1-.85-.57 9.09 9.09 0 0 0-6.31-3.33 6.92 6.92 0 0 1-4.26-2.12c-1.8-1.76-3.38-3.72-5-5.6a2.59 2.59 0 0 1-.3-.61c1 .58 2.1 1.14 3.14 1.73 1.44.82 2.84 1.71 4.32 2.47s3.09 1.49 4.69 2.11 3.47 1.17 5.19 1.8c2.82 1 5.62 2.11 8.42 3.19a9.36 9.36 0 0 1 2 1 9.81 9.81 0 0 1 1.35 1.36 5.09 5.09 0 0 1-1.99.17c-1.55-.45-3-1.09-4.55-1.66l-1.05-.4-.3.21 1 2.77zM533 54.29c-.05.83-.58 1.11-1.35 1.48-2.67 1.25-5.63 2-8 3.85a6.88 6.88 0 0 1-.93.54l-.38-.24a29.42 29.42 0 0 1 1.26-2.94c1.18-2.12 1.84-4.24 1-6.63a8.68 8.68 0 0 1-.25-2.14c1.82 0 3.13 1.08 4.57 1.89a10.16 10.16 0 0 1 4.08 4.19zM435.13 52.03a14.37 14.37 0 0 0-1.65 1.73 2.7 2.7 0 0 0-.54 1.69 35.37 35.37 0 0 0 .82 3.66 23.81 23.81 0 0 1-6.82-10.19c2.15.19 4.27.43 6 1.84a17.38 17.38 0 0 0 2.19 1.27zM655.45 49.75a23.76 23.76 0 0 0 .52 3 17.77 17.77 0 0 0 1.17 2.5l-.39.25c-.56-.54-1.12-1.08-1.67-1.64-1.18-1.21-2.3-2.47-3.53-3.63a4.47 4.47 0 0 1-1.46-2.48 29.28 29.28 0 0 0-1.38-3.94 1.47 1.47 0 0 1 .72-.08 16.69 16.69 0 0 1 6.02 6.02zM549.85 41.13l-.25-.18zM572.17 55.92z"/><path class="cls-2" d="M57.6 25.9v.01-.01zM549.84 41.12l.01.01-.01-.01zM691.44 161.78V47.17c0-.49 0-1-.05-1.47l-4.47-.71c.43-.86-.22-1.22-1.14-1.59-1.12-.46-2.26-1-2.54-2.35a1.69 1.69 0 0 0-1.24-.32c-1.59.22-3.16.53-5 .86.76-2.21 2.78-2.73 4.09-4-1.85-1.35-3.78-2.44-4.28-4.66-1 .9-2 1.83-3 2.7-2 1.69-4 3.32-6 5-.62.55-1 1.35-1.61 1.91-1.34 1.22-2.8 2.31-4.14 3.52-1.92 1.73-4.32 2.65-6.66 3.67a23.76 23.76 0 0 0 .52 3 17.77 17.77 0 0 0 1.17 2.5l-.39.26c-.56-.54-1.12-1.08-1.67-1.64-1.18-1.21-2.3-2.47-3.53-3.63a4.47 4.47 0 0 1-1.46-2.48 29.28 29.28 0 0 0-1.38-3.94c-.5.53-1 1.06-1.5 1.58-1.51 1.52-3.06 3-4.55 4.56-.77.8-1.44 1.68-2.19 2.5-1.68 1.84-3.48 3.6-5.05 5.52a54.27 54.27 0 0 1-8.19 8.14 3.17 3.17 0 0 1-4.33-.44 15.6 15.6 0 0 0-2.38-2 1.13 1.13 0 0 0-1 0c-1.21.77-2.36 1.61-3.54 2.41-1.86 1.25-3.71 2.51-5.61 3.69-.88.54-1.77 1-2.84 0a14.08 14.08 0 0 0-2.88-1.71 1.49 1.49 0 0 0-2 .3c-1 1-2.25 1.85-3.15 2.58-8.43-3.86-15.79-8.66-20.63-16.26a5.09 5.09 0 0 1-1.82.25c-1.55-.45-3-1.09-4.55-1.66l-1.05-.4-.3.21 1 2.77-3.43-1.6c-.71-.33-1.43-.62-2.12-1a2.59 2.59 0 0 1-.85-.57 9.09 9.09 0 0 0-6.31-3.33 6.92 6.92 0 0 1-4.26-2.12c-1.8-1.76-3.38-3.72-5-5.6a2.57 2.57 0 0 1-.3-.61l-.25-.18c-.53-.5-.82-.05-1.15.26-2.29 2.1-4.52 4.26-6.9 6.28-2.76 2.34-5.66 4.55-8.49 6.81-.05.83-.58 1.11-1.35 1.48-2.67 1.25-5.63 2-8 3.85a6.89 6.89 0 0 1-.93.54l-.38-.24a29.42 29.42 0 0 1 1.26-2.94c1.18-2.12 1.84-4.24 1-6.63a8.68 8.68 0 0 1-.25-2.14 1.3 1.3 0 0 0-.46.21c-1 1.16-1.91 2.35-2.9 3.51-2.3 2.69-4.6 5.38-7 8a46.31 46.31 0 0 1-3.52 3.63c-1.82 1.65-3.74 3.2-5.62 4.79a7.13 7.13 0 0 0 3.36 3.84 8.14 8.14 0 0 1 3.93 4.12c.36.92 1.39 1.6 2.13 2.38s1.61 1.66 2.41 2.48a5.28 5.28 0 0 0 .74.73c1.93 1.32 4 2.51 5.81 3.94a11.35 11.35 0 0 1 4 5.92c.64 2.21 1.51 4.36 2.3 6.53a10.4 10.4 0 0 1 .56 1.37c.61 3 2.59 5.22 5 7.14a7.07 7.07 0 0 1 1.2 1.25 7 7 0 0 0 3.68 2.61 10 10 0 0 1 6.4 5.41c1 2 2.43 3.9 3.65 5.85.29.47.52 1 .78 1.45l-.3.27c-1.33-.79-2.67-1.56-4-2.36s-2.71-1.69-4.05-2.56a1.13 1.13 0 0 1-.54-.67c-.06-1-.7-1.23-1.55-1.43-2.63-.64-5.23-1.41-7.88-2a2.54 2.54 0 0 1-2.31-2.6 2.21 2.21 0 0 0-1.49-1.93c-3-1.67-5.88-3.61-8.94-5.22s-3.95-4.34-4.78-7.31c-.63-2.26-1.94-4.35-2.91-6.52a20.16 20.16 0 0 1-1.12-2.85c-.34-1.25-.5-1.36-1.79-.86s-2.64 1-4 1.49l-.31-.22c.55-1.19 1.06-2.38 1.65-3.55.41-.82 1-1.57 1.35-2.4a1.34 1.34 0 0 0-.14-1.19c-.64-.77-1.46-1.39-2.13-2.14-3-3.39-6.13-6.76-9-10.25a32.51 32.51 0 0 1-2.93-4.66 3.58 3.58 0 0 0-2.54-1.9 2.65 2.65 0 0 1-2.16-1.91c-1.42-4.37-2.79-8.76-4.18-13.14-1.5.92-2.94 1.94-4.51 2.72-1.91 1-3.7 2.25-6 2.29-.65.85-1.26 1.72-1.95 2.55a2.82 2.82 0 0 0-.51 2.88c.48 1.48.93 3 1.31 4.48a16.07 16.07 0 0 1 .39 2.68 43.35 43.35 0 0 1 .12 5.52c-.25-.49-.54-1-.75-1.46-.85-2-1.67-4.09-2.53-6.12a2.59 2.59 0 0 0-2.13-1.77 2.14 2.14 0 0 1-1-.7c-1.41-1.43-2.82-2.86-4.16-4.35a6 6 0 0 1-1-1.78c-.46-1.13-.89-2.27-1.23-3.42-1-3.3-1.9-6.62-2.91-9.91-.58-1.92-1.29-3.8-1.93-5.7l-.88.76c-3 2.62-6 5.24-9 7.84a45.11 45.11 0 0 0-3.88 3.28 16.19 16.19 0 0 1-7.08 4.72 14.37 14.37 0 0 0-1.65 1.73 2.7 2.7 0 0 0-.54 1.69 35.37 35.37 0 0 0 .82 3.66 23.81 23.81 0 0 1-6.85-10.02 1.15 1.15 0 0 0-1.77.31 35.73 35.73 0 0 1-3.84 4.13c-3.75 3.42-7.58 6.75-11.38 10.12-2.67 2.37-5.27 4.8-8 7.09-1.66 1.39-3.39 2.86-5.83 2.85a2.31 2.31 0 0 0-1.8.76q-4.37 4.31-8.79 8.56c-1.54 1.47-3.19 2.83-4.74 4.3s-3.11 3.07-4.66 4.61c-1.39 1.37-2.86 2.68-4.14 4.14-2.56 2.93-5.06 5.91-7.47 8.94-1.39 1.74-2.56 3.63-3.83 5.46.86 1.94 1.71 3.88 2.59 5.82a24.38 24.38 0 0 1 1.31 2.79 10.77 10.77 0 0 0 4.18 6 8.47 8.47 0 0 1 2.79 3.7c1.21 3.12.67 6.43.58 9.67a2 2 0 0 1-.3.86 21.29 21.29 0 0 0-2.49 10.63c0 4.38.15 8.77.24 13.15h-8.2c-1.45-1.63-2.88-3.28-4.41-4.84q-5.87-6-11.85-11.87a7.51 7.51 0 0 0-2.25-1.45A49.08 49.08 0 0 1 326 133.08c-1.63-1.76-3-3.71-4.74-5.4-3.9-3.89-6.95-8.37-10.08-12.79a4.46 4.46 0 0 0-2.21-1.54 3.81 3.81 0 0 1-2.54-2.28c-2.26-4.71-4.66-9.37-7-14a6.6 6.6 0 0 1-.63-1.46 12.22 12.22 0 0 0-2.3-4.77c-2.18-2.92-4-6.07-6-9.12-.46-.71-.95-1.4-1.47-2.07a14.23 14.23 0 0 1-2.59-5.56c-.32-1.35-.52-1.45-1.89-.9s-2.74 1.22-4.1 1.86c-.86.41-1.32.33-1.61-.68-.83-2.84-1.68-5.69-2.73-8.46-1-2.52-2.17-5-3.35-7.39a4 4 0 0 0-1.19-.8 4.19 4.19 0 0 1-1.36-1.21c-2-4.46-4.08-8.89-5.82-13.44a30.88 30.88 0 0 0-4.06-7.42 11.55 11.55 0 0 0-2.89-2.45c-.77-.52-1.77-.71-2.58-1.18q-3.46-2-6.84-4.13a1.67 1.67 0 0 1-.71-1.12c-.37-4.94-2-9.71-2-14.7a2.76 2.76 0 0 0-.64-1.64c-1.64-2-3.39-3.92-5-5.9-1.09-1.3-2.09-2.66-3.14-4-3.44 6.26-9 10.84-14 15.92 1.1 3.39 2.14 6.8 3.34 10.17a8.83 8.83 0 0 0 1.61 2.17 5.41 5.41 0 0 1 .9 1c1.09 2.67 2.16 5.35 3.15 8a29 29 0 0 1 .8 3.33 2 2 0 0 1-2-1.62c-.9-2.25-1.85-4.49-2.82-6.72a3 3 0 0 0-2.31-1.77 3.28 3.28 0 0 1-2.49-2.23c-.91-2.45-1.82-4.91-2.84-7.32a43.68 43.68 0 0 0-2.34-4.59 6.94 6.94 0 0 1-1-4.13 17.16 17.16 0 0 0-1.66 1.44c-3.34 3.73-6.64 7.5-10 11.23-1.33 1.49-2.8 2.87-4.1 4.38-2 2.37-4 4.77-6 7.22a78.55 78.55 0 0 1-9.11 10.45c-3 2.67-5.87 5.43-8.8 8.15a32.23 32.23 0 0 0 4.84 13.31l-.3.21a10.21 10.21 0 0 1-1.05-.74 39.5 39.5 0 0 1-7.14-8.61 25.39 25.39 0 0 0-3.07-3.44c-2 3-3.86 6-6 8.88a83.61 83.61 0 0 1-6.07 7c-2.65 2.8-5.5 5.44-8.15 8.24-1.83 1.94-3.47 4-5.2 6.08 0 1.17.07 2.35 0 3.52-.28 4.78.9 9.39 1.92 14a9.56 9.56 0 0 0 3.27 4.9 14.48 14.48 0 0 1 4.46 6.39c-.69-.37-1.1-.56-1.49-.79-4.87-3-9.71-6-14.62-8.89-2.67-1.57-5.35-3.13-8.68-3.3a12.27 12.27 0 0 1-3.5-1.12 24.15 24.15 0 0 0-7.73-1.89 2.35 2.35 0 0 1-2.18-1.36 40.44 40.44 0 0 1-2.43-5.14 6.86 6.86 0 0 0-2.25-3.53c-3.08-2.26-4.5-5.62-6.58-8.53-2-2.75-3.72-5.64-5.6-8.45-1-1.53-2.15-3-3.15-4.53a6 6 0 0 1-1-4.68c.21-.88 1.11-1.61 1.63-2.44a2.86 2.86 0 0 0 .63-1.52c-.13-1.41.71-2.17 1.76-2.86.1-.07.21-.12.31-.17 3.15-1.71 3.46-2.35 2.84-5.75 0-.22-.05-.45-.08-.68-1.15.51-2.29 1-3.45 1.53-.67.28-1.37.49-2.06.73a3 3 0 0 1-.72.39c-2.28.49-4.58.93-6.86 1.46a1.53 1.53 0 0 0-1.05.79 28.57 28.57 0 0 0-.3 6.39 43.41 43.41 0 0 0 2 6.86c.34 1.1.78 2.18 1.17 3.27l-.32.14c-.73-1.06-1.43-2.14-2.18-3.19-1.42-2-2.87-3.9-4.3-5.86a9.47 9.47 0 0 1-1.2-1.81c-1.37-3.3-3.74-6-6-8.72a2.46 2.46 0 0 0-1.57-.62 3.67 3.67 0 0 1-3.07-1.78C68.78 44.07 65 38.92 61.58 33.62a82.25 82.25 0 0 1-4-7.72l-.25-.18c-2.1-.78-3.25.83-4.6 1.74-3.87 2.64-7.64 5.42-11.49 8.08a9.26 9.26 0 0 1-2.14.8c.85 3.49 1.09 7.13 3.19 10.31l-.49.2c-.41-.6-.83-1.19-1.23-1.79q-4-6.1-7.91-12.21a4.56 4.56 0 0 1-.35-.91.09.09 0 0 0-.13-.06l-.32.15a25.86 25.86 0 0 0-3 1.89c-2.34 2-4.54 4.06-6.9 6-1.56 1.28-3.29 2.36-4.95 3.53 2 2.28 3.92 4.54 5 7.42a6.29 6.29 0 0 0 3.19 3.41A10.63 10.63 0 0 1 29.45 58a12.35 12.35 0 0 0 2.48 2.23c.53.45 1.05.91 1.62 1.33 1.33 1 2.67 1.91 4 2.86 1.84 1.3 2.78 3.13 3.62 5.33-.62-.08-1-.1-1.36-.17-1.37-.24-2.74-.46-4.09-.76a2.07 2.07 0 0 1-1.06-.61c-1-1.14-1.83-2.39-2.87-3.48a6.36 6.36 0 0 0-1.89-1 4.26 4.26 0 0 1-1.6-.74c-1.62-2.35-4.12-3.77-6.27-5.56a25.3 25.3 0 0 1-5.3-5.78 3.66 3.66 0 0 0-.84-.76 2.12 2.12 0 0 1-.66-.46A9.76 9.76 0 0 0 12 46.68a3.78 3.78 0 0 1-.84-1.48c-.54-1.25-1-2.52-1.54-3.78a17.7 17.7 0 0 0-2.12 1.43c-2.43 2.2-4.82 4.46-7.22 6.69v113.23H0V249h691.2v-85.63h.24v-1.59z"/></svg>