<svg id="Layer_2_Image" data-name="Layer 2 Image" xmlns="http://www.w3.org/2000/svg" viewBox="0 0 691.44 165.41"><defs><style>.cls-1{fill:#36162f;}</style></defs><title>layer2</title><path class="cls-1" d="M691.08,276.23V271.8h0.15V174.44c-3.36.22-6.78-.47-10.18,0.2a6.45,6.45,0,0,0-4.63,2.84,1,1,0,0,1-1.27.47,13,13,0,0,1-4-1.51,15.54,15.54,0,0,0-9.53-2.56c-1.75.13-3.52,0-5.27,0a2.5,2.5,0,0,0-2.08,1,26.49,26.49,0,0,1-3.32,3,5.18,5.18,0,0,1-3.51,1.27c-1.52,0-3,.16-4.55.27a2.8,2.8,0,0,0-2.44,1.46,12.44,12.44,0,0,1-3.2,3.46,55.35,55.35,0,0,0-7.45,7.78,19.85,19.85,0,0,1-3.5-2,36.87,36.87,0,0,0-7-4.65c-2.28-1.23-4.68-2.42-6.1-4.78a4.33,4.33,0,0,0-1.66-1.49,27.28,27.28,0,0,1-4.49-3.33,30.59,30.59,0,0,0-6.18-4.3h-0.48a10.85,10.85,0,0,1-3.36,1,17,17,0,0,0-4.42.94,18.17,18.17,0,0,0-4.42,3.18,1.33,1.33,0,0,1-1.49.43c-2.2-1-4.62-.77-6.92-1.24a29.47,29.47,0,0,1-4.88-1.14,2,2,0,0,0-2,.36c-2,1.27-4,2.38-6.57,2a9,9,0,0,0-6.6,1.95,20.06,20.06,0,0,1-5.94,3,9.44,9.44,0,0,1-6.11-.36,3.59,3.59,0,0,0-3.62.3c-3.54,2.1-7.17,4.11-11.33,4.87a3,3,0,0,1-2.43-.61c-2.26-1.53-4.63-2.91-7-4.36a1.76,1.76,0,0,0-1.89,0,26.26,26.26,0,0,1-6.64,2.28,2.4,2.4,0,0,1-1.9-.41,23.9,23.9,0,0,0-8.33-3.43,21.82,21.82,0,0,0-6.68,0,1.32,1.32,0,0,0-.8.45c-4.86,4.47-10.78,7.23-16.73,9.93a5.42,5.42,0,0,0-2.46,2.31,12.87,12.87,0,0,1-4.37,4.11,6.55,6.55,0,0,0-1.08.74c-3.79,3.74-8.56,3.05-13.14,2.57-1.76-.18-3.42-1.44-5.11-2.22-3.14-1.45-6.3-2.86-9.39-4.4-0.92-.46-1.66-1.27-2.64-1.71-2.78-1.26-3.51-1.05-5.45,1a7.74,7.74,0,0,1-1.53,1.11c-2.33,1.48-4.3,3.39-6.51,5a5.51,5.51,0,0,1-1.19.79,7.53,7.53,0,0,0-4.63,4.76,1.65,1.65,0,0,1-.93.87,15.56,15.56,0,0,0-5.18,3.74,0.89,0.89,0,0,1-1,.23,30.43,30.43,0,0,0-8.6.06,1.93,1.93,0,0,0-1.88,1.53,5,5,0,0,1-3.09,3.78,4.51,4.51,0,0,0-3,4.51,5.56,5.56,0,0,1-.44,1.94,2.86,2.86,0,0,1-2.95,2.1c-2.28,0-4.56,0-6.83-.15a1.81,1.81,0,0,0-1.57.61,11.16,11.16,0,0,1-4.06,2.43,2.62,2.62,0,0,1-3-.4c-0.95-.83-2-1.31-3.31-0.4a2.11,2.11,0,0,1-2.86-.33c-1.88-1.68-4.06-3-5.81-4.82-2.18,1.23-3.59,1-5-1a1.84,1.84,0,0,0-2-.89,3.81,3.81,0,0,1-3.65-1.18,28.31,28.31,0,0,0-7.91-5.42,25.25,25.25,0,0,1-4-3,3.43,3.43,0,0,0-3.46-.74,17.65,17.65,0,0,0-3.68,1.95c-1.87,1.41-3.88,2.62-5.83,3.91a27.34,27.34,0,0,0-5.9,5.31c-0.73-.18-1.58-0.35-2.39-0.61-2.9-.92-5.86-0.63-8.8-0.43a6.73,6.73,0,0,1-6.05-2.72c-1.45-1.91-3.1-2.15-5.2-1.75-2.9.55-5.79,1.15-8.73,1.49a11.78,11.78,0,0,0-5,1.95,3.93,3.93,0,0,1-3.43.35,15.55,15.55,0,0,1-3.72-1.61,54.4,54.4,0,0,0-11.73-5.25,19.77,19.77,0,0,1-6.65-3.81,41.72,41.72,0,0,0-17.2-9.16,7.74,7.74,0,0,0-3.78.34,58.5,58.5,0,0,0-8.46,3.25,4.31,4.31,0,0,1-4.09,0c-4.57-2.49-9.3-4.68-13.58-7.68-2.24-1.58-5-2.07-7.59-2.76a17.7,17.7,0,0,0-5.41-.83,5.8,5.8,0,0,0-4.29,2,10.6,10.6,0,0,1-7.78,3.35c-1.32.06-2.56-.57-3.89-0.61a4.21,4.21,0,0,0-2.56.71c-1.86,1.2-3.76,2.35-6.16,2.28a4.81,4.81,0,0,0-3.65,1.81,5.9,5.9,0,0,1-4.77,1.93c-2.59,0-5.19.19-7.78,0.4A1.39,1.39,0,0,1,163,201a5.66,5.66,0,0,0-3.29-2.71,5.44,5.44,0,0,0-4.48.42c-1.72.92-3.39,1.92-5.07,2.9a1.59,1.59,0,0,1-1.62-.07c-2.48-1.06-3.5-3.45-5.15-5.25-2-2.13-3.87-4.3-5.63-6.58a2.65,2.65,0,0,0-2.85-1.2,3.94,3.94,0,0,1-3.27-.75,4,4,0,0,0-2.34-.82c-2.92,0-5-1.69-7-3.5a24.51,24.51,0,0,0-8.37-4.9,2.27,2.27,0,0,0-2.24.44c-3.32,2.6-7.25,4.3-10.66,6.72-2.83,2-5.79,3.87-8.46,6.1a6.68,6.68,0,0,0-1.82,2.45c-0.29.65-.58,1.29-0.9,1.92-0.83,1.59-2,2.28-3.69,1.68-3.06-1.12-6.38-1.45-9.28-3a4.8,4.8,0,0,0-2.31-.52,40.67,40.67,0,0,0-7.86.69,14.48,14.48,0,0,1-10.42-2.25c-3-1.83-5.88-1.56-9-1a3.25,3.25,0,0,0-2.09,1.44c-1.22,1.74-1.82,2-3.81,1.32a41.46,41.46,0,0,0-8-2.25,4.69,4.69,0,0,1-2.3-1.41c-1.06-.94-2.07-1.65-3.63-0.6a5.87,5.87,0,0,1-4.74.62,1.09,1.09,0,0,1-1-.58c-0.17-1-1-1.71-1.21-2.65a2.28,2.28,0,0,0-1.78-1.79c-0.75-.27-1.5-0.53-2.24-0.81a3.09,3.09,0,0,0-3.26.35,5.81,5.81,0,0,1-1.88.92,3,3,0,0,1-.18-0.27,7.51,7.51,0,0,0-8.42-3.39A9.58,9.58,0,0,0,0,184.77c0,25.89.12,51.77,0.12,77.67H-0.12V337H691.32V276.23h-0.24Z" transform="translate(0.12 -171.55)"/></svg>