<svg id="Layer_2" data-name="Layer 2" xmlns="http://www.w3.org/2000/svg" viewBox="0 0 510.68 510.68"><defs><style>.cls-1{fill:#f1ecde;}.cls-2{fill:#68615b;}.cls-3{fill:#bf3037;}.cls-4{fill:#f7575f;}.cls-5{fill:#e8e9ec;}.cls-6{fill:#323232;}.cls-7{fill:#edc848;}.cls-8{fill:#ddae2a;}</style></defs><title>piggy_bank</title><path class="cls-1" d="M256,0.66C115,0.66.66,115,.66,256S115,511.34,256,511.34,511.34,397,511.34,256,397,0.66,256,.66Zm0,492C125.32,492.63,19.37,386.69,19.37,256S125.32,19.37,256,19.37,492.63,125.31,492.63,256,386.69,492.63,256,492.63Z" transform="translate(-0.66 -0.66)"/><path class="cls-1" d="M256,34.4C133.62,34.4,34.4,133.62,34.4,256S133.62,477.6,256,477.6,477.6,378.38,477.6,256,378.39,34.4,256,34.4Zm0,427C142.59,461.36,50.65,369.41,50.65,256S142.59,50.64,256,50.64,461.36,142.59,461.36,256,369.42,461.36,256,461.36Z" transform="translate(-0.66 -0.66)"/><path class="cls-1" d="M256,0.66C115,0.66.66,115,.66,256S115,511.34,256,511.34,511.34,397,511.34,256,397,0.66,256,.66Zm0,492C125.32,492.63,19.37,386.69,19.37,256S125.32,19.37,256,19.37,492.63,125.31,492.63,256,386.69,492.63,256,492.63Z" transform="translate(-0.66 -0.66)"/><path class="cls-1" d="M256,34.4C133.62,34.4,34.4,133.62,34.4,256S133.62,477.6,256,477.6,477.6,378.38,477.6,256,378.39,34.4,256,34.4Zm0,427C142.59,461.36,50.65,369.41,50.65,256S142.59,50.64,256,50.64,461.36,142.59,461.36,256,369.42,461.36,256,461.36Z" transform="translate(-0.66 -0.66)"/><path class="cls-2" d="M428.86,322.5c0-78.27-78.55-141.83-175.91-142.8-12.21-14.61-28.71-23.6-46.89-23.6h0c-8.21,0-15.72,7.87-21.48,20.86-11.93-13-27.48-20.86-44.49-20.86h0c-17.64,0-32,36.22-32.84,81.68a137.7,137.7,0,0,0-22,31.71h-10a53,53,0,1,0,0,106h10c8.69,17.41,21.53,33.13,37.54,46.37a29.35,29.35,0,0,0,32.33,42.7,29.36,29.36,0,0,0,48.51-4.31,222.36,222.36,0,0,0,86.64,1.52,29.36,29.36,0,0,0,20.54,2.79,29.36,29.36,0,0,0,49.93-29.71C402.2,408.71,428.86,368.1,428.86,322.5Z" transform="translate(-0.66 -0.66)"/><path class="cls-2" d="M333.56,170.91h10.62a47.5,47.5,0,0,0,0-95H333.56A47.5,47.5,0,0,0,333.56,170.91Z" transform="translate(-0.66 -0.66)"/><circle class="cls-3" cx="166.14" cy="406.41" r="29.36"/><circle class="cls-3" cx="339.97" cy="406.41" r="29.36"/><path class="cls-4" d="M158.38,212.91h68.08c0-47.32-30.48-85.69-68.08-85.69h0v85.69Z" transform="translate(-0.66 -0.66)"/><path class="cls-3" d="M158.38,127.22c-18.16,0-32.88,38.37-32.88,85.69h65.76C191.26,165.58,176.54,127.22,158.38,127.22Z" transform="translate(-0.66 -0.66)"/><ellipse class="cls-4" cx="268.32" cy="292.95" rx="178.17" ry="142.82"/><path class="cls-3" d="M390.35,232.39a9,9,0,0,1-6.69-3c-20.42-22.63-50.45-38.33-84.57-44.22a9,9,0,0,1,3.06-17.74c38.07,6.57,71.77,24.29,94.87,49.9A9,9,0,0,1,390.35,232.39Z" transform="translate(-0.66 -0.66)"/><path class="cls-3" d="M123.73,240.61H93.47v9.5a53,53,0,0,0,0,87v9.5h30.26A53,53,0,1,0,123.73,240.61Z" transform="translate(-0.66 -0.66)"/><circle class="cls-4" cx="92.81" cy="292.95" r="53"/><ellipse class="cls-3" cx="72.76" cy="292.95" rx="10.46" ry="17.13"/><ellipse class="cls-3" cx="112.86" cy="292.95" rx="10.46" ry="17.13"/><circle class="cls-5" cx="188.89" cy="239.95" r="19.41"/><circle class="cls-6" cx="188.89" cy="239.95" r="6.61"/><path class="cls-4" d="M224.35,212.91h68.08c0-47.32-30.48-85.69-68.08-85.69h0v85.69h0Z" transform="translate(-0.66 -0.66)"/><path class="cls-3" d="M224.35,127.22c-18.16,0-32.88,38.37-32.88,85.69h65.75C257.23,165.58,242.51,127.22,224.35,127.22Z" transform="translate(-0.66 -0.66)"/><path class="cls-7" d="M399.35,94.52a47.51,47.51,0,0,0-36.89-46.29V47H351.85a47.5,47.5,0,1,0,0,95h10.61v-1.21A47.51,47.51,0,0,0,399.35,94.52Z" transform="translate(-0.66 -0.66)"/><circle class="cls-8" cx="361.81" cy="93.86" r="47.5"/><circle class="cls-7" cx="361.81" cy="93.86" r="36.11"/><circle class="cls-4" cx="195.5" cy="416.53" r="29.36"/><circle class="cls-4" cx="369.33" cy="416.53" r="29.36"/></svg>