<svg id="Demand" xmlns="http://www.w3.org/2000/svg" viewBox="0 0 608 339.62"><defs><style>.cls-1,.cls-2{fill:none;}.cls-2{stroke:#1b77aa;stroke-miterlimit:10;stroke-width:3px;}</style></defs><title>premiums_family</title><g id="dimensions"><polygon class="cls-1" points="608 339.62 0 339.62 0 180.51 0 0 608 0 608 339.62"/></g><polyline id="premiums_family" class="cls-2" points="42.35 192.02 43.74 191.11 48.51 193.99 49.91 194.29 63.51 189.45 76.87 182.56 87.14 180.98 103.56 173.18 115.72 170.16 124.48 173.87 126.88 174.19 131.62 171.79 132.98 172.14 140.22 177.51 145.94 180.66 155.4 176.15 163.4 176.15 172.16 167.75 182.72 171.82 192.09 172.19 204.37 177.98 207.93 179.49 213.57 180.17 232.74 184.02 237 182.42 244.49 176.43 249.05 172 261.38 165.17 276.34 152.83 307.63 150.18 308.17 149.64 316.67 146.9 324.1 139.04 325.02 139.21 334.66 134.47 351.22 138.19 362.69 142.87 370.06 144.18 383.16 139.8 396.89 147.03 405.36 144.44 410.83 144.13 414.23 142.13 417.19 136.76 417.99 136.71 428.89 144.3 448.63 139.89 460.41 136.42 464.21 136.17 472.07 139.71 475.11 142.47 477.55 140.51 481.96 135.15 500.65 120.99 513.16 113.42 532.47 99.7 551.38 85.95 554.3 78.49 557.75 80.27 563.02 71.96"/></svg>