<?xml version="1.0" encoding="iso-8859-1"?>
<!-- Generator: Adobe Illustrator 19.0.0, SVG Export Plug-In . SVG Version: 6.00 Build 0)  -->
<svg version="1.1" id="Layer_1" xmlns="http://www.w3.org/2000/svg" xmlns:xlink="http://www.w3.org/1999/xlink" x="0px" y="0px"
	 viewBox="0 0 384.5 384.5" style="enable-background:new 0 0 384.5 384.5;" xml:space="preserve">
<g>
	<path style="fill:#22A1D3;" d="M183.5,384.5c-39.701,0-72-32.299-72-72V270h17v42.5c0,30.327,24.673,55,55,55s55-24.673,55-55V65
		c0-32.257,26.243-58.5,58.5-58.5s58.5,26.243,58.5,58.5v280h-17V65c0-22.883-18.617-41.5-41.5-41.5S255.5,42.117,255.5,65v247.5
		C255.5,352.201,223.201,384.5,183.5,384.5z"/>
	<path style="fill:#1691B7;" d="M180.25,367.4c-1.08,0.07-2.16,0.1-3.25,0.1c-30.33,0-55-24.67-55-55V270h6.5v42.5
		C128.5,341.74,151.43,365.72,180.25,367.4z"/>
	<path style="fill:#1691B7;" d="M290.5,23.5c1.09,0,2.18,0.04,3.25,0.13C272.38,25.29,255.5,43.21,255.5,65v247.5
		c0,39.7-32.3,72-72,72c-1.09,0-2.17-0.02-3.25-0.07c38.2-1.71,68.75-33.32,68.75-71.93V65C249,42.12,267.62,23.5,290.5,23.5z"/>
	<path style="fill:#1691B7;" d="M355.5,65v280H349V65c0-31.17-24.5-56.72-55.25-58.41c1.08-0.06,2.16-0.09,3.25-0.09
		C329.26,6.5,355.5,32.74,355.5,65z"/>
	<rect x="79.5" y="222" style="fill:#FF5069;" width="81" height="32"/>
	<rect x="96.671" y="222" style="fill:#FCA7B3;" width="30.659" height="32"/>
	<rect x="93.5" y="254" style="fill:#EA4262;" width="53" height="18"/>
	<path style="fill:#4FD3A7;" d="M211,18.24v187.52c0,10.07-8.17,18.24-18.24,18.24H47.24c-5.04,0-9.6-2.04-12.9-5.34
		c-3.3-3.3-5.34-7.86-5.34-12.9V18.24C29,8.17,37.17,0,47.24,0h145.52c5.8,0,10.97,2.71,14.31,6.93
		C209.53,10.03,211,13.96,211,18.24"/>
	<path style="fill:#C3FCE7;" d="M207.07,6.93L187,27L61,192l-26.66,26.66c-3.3-3.3-5.34-7.86-5.34-12.9V18.24
		C29,8.17,37.17,0,47.24,0h145.52C198.56,0,203.73,2.71,207.07,6.93"/>
	<path style="fill:#60E8BE;" d="M201,18.24v187.52c0,4.54-3.7,8.24-8.24,8.24H47.24c-4.54,0-8.24-3.7-8.24-8.24V18.24
		C39,13.7,42.7,10,47.24,10h145.52C197.3,10,201,13.7,201,18.24"/>
	<path style="fill:#22A1D3;" d="M201,79v126.76c0,4.54-3.7,8.24-8.24,8.24H47.24c-4.54,0-8.24-3.7-8.24-8.24V79H201"/>
	<path style="fill:#D6F9EE;" d="M90,24c-11.046,0-20,8.954-20,20v35h40V44C110,32.954,101.046,24,90,24"/>
	<path style="fill:#C6E7F4;" d="M110,79H70v85c0,11.046,8.954,20,20,20s20-8.954,20-20V79"/>
</g>
<g>
</g>
<g>
</g>
<g>
</g>
<g>
</g>
<g>
</g>
<g>
</g>
<g>
</g>
<g>
</g>
<g>
</g>
<g>
</g>
<g>
</g>
<g>
</g>
<g>
</g>
<g>
</g>
<g>
</g>
</svg>
