<svg id="Layer_3" data-name="Layer 3" xmlns="http://www.w3.org/2000/svg" viewBox="0 0 510.78 512.39"><defs><style>.cls-1{fill:#f1ecde;}.cls-2{fill:#ecf0f1;}.cls-3{fill:#bdc3c7;}.cls-4{fill:#e5bf88;}.cls-5{fill:#33495f;}.cls-6{fill:#2b3e51;}.cls-7{fill:#bfa072;}.cls-8{fill:#227fbb;}.cls-9{fill:#bf3037;}</style></defs><title>contract</title><path class="cls-1" d="M204.45,5.92C66.33,34.39-22.55,169.44,5.92,307.56s163.52,227,301.64,198.53,227-163.52,198.53-301.64S342.56-22.56,204.45,5.92Zm99.33,481.83c-128,26.39-253.14-56-279.53-184s56-253.14,184-279.53,253.14,56,279.53,184S431.77,461.37,303.78,487.75Z" transform="translate(-0.61 -0.61)"/><path class="cls-1" d="M211.26,39C91.39,63.68,14.26,180.88,39,300.74S180.88,497.74,300.74,473,497.74,331.12,473,211.26,331.12,14.26,211.26,39Zm86.21,418.16C186.39,480,77.77,408.54,54.88,297.46S103.46,77.77,214.54,54.87s219.69,48.58,242.59,159.66S408.54,434.23,297.46,457.13Z" transform="translate(-0.61 -0.61)"/><path class="cls-1" d="M256,2.32C115,2.32.66,116.64,0.66,257.66S115,513,256,513,511.34,398.68,511.34,257.66,397,2.32,256,2.32Zm0,492c-130.69,0-236.63-105.94-236.63-236.63S125.32,21,256,21,492.63,127,492.63,257.66,386.69,494.29,256,494.29Z" transform="translate(-0.61 -0.61)"/><path class="cls-1" d="M256,34.4C133.62,34.4,34.4,133.62,34.4,256S133.62,477.6,256,477.6,477.6,378.38,477.6,256,378.39,34.4,256,34.4Zm0,427C142.59,461.36,50.65,369.41,50.65,256S142.59,50.64,256,50.64,461.36,142.59,461.36,256,369.42,461.36,256,461.36Z" transform="translate(-0.61 -0.61)"/><path class="cls-2" d="M407,374.45a10,10,0,0,1-7.77,11.81L154.4,436.74A10,10,0,0,1,142.59,429L75.15,101.85A10,10,0,0,1,82.93,90L271,51.27c5.39-1.11,13.55.45,18.15,3.48l51.81,34.1c4.6,3,9.26,9.91,10.37,15.29Z" transform="translate(-0.61 -0.61)"/><path class="cls-3" d="M340.93,88.84l-51.81-34.1a24.3,24.3,0,0,0-7.86-3.1l9.2,44.61A10,10,0,0,0,302.27,104l44.61-9.2A24.29,24.29,0,0,0,340.93,88.84Z" transform="translate(-0.61 -0.61)"/><path class="cls-4" d="M427.11,319.45L398,281.35l-8.68-42.11s-1.15-17.12-16.16-14-8.72,17.11-8.72,17.11l11,54.91s-34.53,35.71,4.07,93.09l-59.63,12.29,40,27.48,79.33-16.35Z" transform="translate(-0.61 -0.61)"/><rect class="cls-2" x="348.8" y="415.23" width="99" height="17" transform="translate(-77.96 88.54) rotate(-11.65)"/><path class="cls-5" d="M353.11,494.29l-10.4-50.43L452.2,421.3A254.91,254.91,0,0,1,353.11,494.29Z" transform="translate(-0.61 -0.61)"/><path class="cls-6" d="M407.09,463.9a254.08,254.08,0,0,1-54,30.39l-10.4-50.43L400.5,432Z" transform="translate(-0.61 -0.61)"/><polygon class="cls-7" points="378.94 389.72 346.67 420.78 319.31 402.01 378.94 389.72"/><circle class="cls-2" cx="376.51" cy="238.82" r="9" transform="translate(-41.07 80.33) rotate(-11.65)"/><path class="cls-3" d="M112.27,177.92l223.3-46a2.5,2.5,0,0,0-1-4.9l-223.3,46A2.5,2.5,0,1,0,112.27,177.92Z" transform="translate(-0.61 -0.61)"/><path class="cls-3" d="M114.7,189.67l223.3-46a2.5,2.5,0,0,0-1-4.9l-223.3,46A2.5,2.5,0,0,0,114.7,189.67Z" transform="translate(-0.61 -0.61)"/><path class="cls-3" d="M116.43,200.54l190-39.17a2.5,2.5,0,0,0-1-4.9l-190,39.17A2.5,2.5,0,0,0,116.43,200.54Z" transform="translate(-0.61 -0.61)"/><path class="cls-3" d="M122.08,228l206.65-42.6a2.5,2.5,0,0,0-1-4.9l-206.65,42.6A2.5,2.5,0,1,0,122.08,228Z" transform="translate(-0.61 -0.61)"/><path class="cls-3" d="M127.74,255.39L328.51,214a2.5,2.5,0,0,0-1-4.9L126.73,250.49A2.5,2.5,0,0,0,127.74,255.39Z" transform="translate(-0.61 -0.61)"/><path class="cls-3" d="M133.59,283.79l164.54-33.92a2.5,2.5,0,0,0-1-4.9L132.58,278.9A2.5,2.5,0,1,0,133.59,283.79Z" transform="translate(-0.61 -0.61)"/><path class="cls-3" d="M136.22,296.53l164.54-33.92a2.5,2.5,0,1,0-1-4.9L135.21,291.63A2.5,2.5,0,1,0,136.22,296.53Z" transform="translate(-0.61 -0.61)"/><path class="cls-3" d="M138.44,307.3L314.73,271a2.5,2.5,0,0,0-1-4.9L137.43,302.4A2.5,2.5,0,0,0,138.44,307.3Z" transform="translate(-0.61 -0.61)"/><path class="cls-3" d="M143.28,330.81l176.29-36.34a2.5,2.5,0,1,0-1-4.9L142.27,325.91A2.5,2.5,0,1,0,143.28,330.81Z" transform="translate(-0.61 -0.61)"/><rect class="cls-8" x="98.91" y="110.27" width="160" height="19" transform="translate(-21.11 37.98) rotate(-11.65)"/><path class="cls-3" d="M125.11,242.66l206.65-42.6a2.5,2.5,0,0,0-1-4.9L124.1,237.76A2.5,2.5,0,0,0,125.11,242.66Z" transform="translate(-0.61 -0.61)"/><path class="cls-3" d="M125.11,242.66l206.65-42.6a2.5,2.5,0,0,0-1-4.9L124.1,237.76A2.5,2.5,0,0,0,125.11,242.66Z" transform="translate(-0.61 -0.61)"/><circle class="cls-9" cx="176.35" cy="380.05" r="14.57" transform="translate(-73.71 42.83) rotate(-11.65)"/><path class="cls-9" d="M204.36,366.55c-0.73-1.51.84-4.4-.14-5.82s-4.24-1-5.4-2.18-0.59-4.47-1.93-5.49-4.32.4-5.81-.39-1.94-4.07-3.54-4.62-4,1.72-5.65,1.42-3.09-3.27-4.79-3.31-3.24,2.86-4.94,3.09-3.94-2.16-5.58-1.67-2.18,3.72-3.73,4.47-4.4-.84-5.82.15-1,4.24-2.18,5.4-4.47.59-5.49,1.93,0.41,4.32-.39,5.81-4.07,1.94-4.62,3.54,1.72,4,1.42,5.65-3.27,3.09-3.31,4.79,2.86,3.24,3.09,4.94-2.16,3.94-1.67,5.58,3.72,2.18,4.47,3.73-0.84,4.4.14,5.82,4.24,1,5.4,2.18,0.59,4.48,1.93,5.5,4.32-.4,5.81.4,1.94,4.07,3.54,4.62,4-1.73,5.65-1.42,3.09,3.27,4.79,3.31,3.24-2.86,4.94-3.09,3.94,2.16,5.58,1.67,2.18-3.72,3.73-4.47,4.4,0.84,5.82-.15,1-4.24,2.18-5.4,4.47-.59,5.49-1.93-0.41-4.32.39-5.81,4.07-1.94,4.63-3.54-1.72-4-1.42-5.65,3.27-3.09,3.31-4.79-2.86-3.24-3.09-4.94,2.16-3.94,1.67-5.58S205.11,368.1,204.36,366.55ZM192.1,402.76a27.64,27.64,0,1,1,7-38.46A27.64,27.64,0,0,1,192.1,402.76Z" transform="translate(-0.61 -0.61)"/><path class="cls-9" d="M188.37,397.58a20.62,20.62,0,0,1-17.08,3.2c-9.39-2.52-16-10.71-16.19-19.91a22.09,22.09,0,0,1,9.23-18.37,19.66,19.66,0,0,1,5.42-2.64,21.78,21.78,0,0,1,24,7.92l0,0,0.1,0.13c4.63,6.89,5,16,1,22.71a22.79,22.79,0,0,1-6.49,6.9h0Zm-22.81-33.06a19.24,19.24,0,0,0-7.6,12.16,18.13,18.13,0,0,0,3,14c6,8.39,17.61,10.59,25.85,4.88l0.23-.14a19,19,0,0,0,4.64-26.12c-6-8.41-17.67-10.68-25.91-5Z" transform="translate(-0.61 -0.61)"/><path class="cls-9" d="M192.57,398.88l-0.28-.33a24.34,24.34,0,0,0,3.5-3.71l0.34,0.26A24.78,24.78,0,0,1,192.57,398.88Zm-4.27,3a24.85,24.85,0,0,1-4.79,2l-0.12-.41a24.32,24.32,0,0,0,4.71-2Zm10.53-11.18-0.39-.18a24.45,24.45,0,0,0,1.68-4.82l0.42,0.1A25,25,0,0,1,198.83,390.66ZM178.4,404.82a25,25,0,0,1-5.2-.12l0.05-.43a24.42,24.42,0,0,0,5.11.12Zm22.8-24.22h-0.43a24.43,24.43,0,0,0-.42-5.09l0.42-.08A25,25,0,0,1,201.2,380.6ZM168.15,403.5a24.84,24.84,0,0,1-4.7-2.21l0.22-.37a24.49,24.49,0,0,0,4.62,2.18Zm31.16-33-0.38.19a22.39,22.39,0,0,0-2.45-4.45l0.35-.25A22.82,22.82,0,0,1,199.31,370.48Zm-40,27.66a25.1,25.1,0,0,1-3.38-3.93l0.35-.25a24.6,24.6,0,0,0,3.33,3.87Zm33.79-35.87a24.25,24.25,0,0,0-4.06-3.1l0.22-.37A24.76,24.76,0,0,1,193.4,362Zm-39.28,27.21-0.4.17a24.63,24.63,0,0,1-1.5-5l0.42-.08A24.13,24.13,0,0,0,153.82,389.48ZM184.43,357a24.52,24.52,0,0,0-5-1.17l0.06-.43a25.06,25.06,0,0,1,5.06,1.19Zm-32.49,22.5h-0.43a25.11,25.11,0,0,1,.66-5.16l0.42,0.1A24.4,24.4,0,0,0,151.94,379.5Zm22.41-23.79a24.28,24.28,0,0,0-5,.94l-0.12-.41a24.89,24.89,0,0,1,5.11-1Zm-20.08,13.91-0.39-.18a24.69,24.69,0,0,1,2.7-4.44l0.34,0.26A24.36,24.36,0,0,0,154.27,369.61Zm10.35-11a25,25,0,0,0-4.2,2.91l-0.28-.33a25.08,25.08,0,0,1,4.27-3Z" transform="translate(-0.61 -0.61)"/><path class="cls-8" d="M296.61,402.3l0.41-1.16c2.84-8.1,14.14-15.56,24-21.11a40.9,40.9,0,0,0,7.16-14.26c1.1-4.13.42-7.54-.5-8.41a0.48,0.48,0,0,0-.53-0.17c-0.57.18-1.38,1.48-2,4.57L325,362.89l-0.53-1c-0.46-.88-0.88-1.78-1.28-2.65a36.2,36.2,0,0,0-2.54-4.79c-1.68,1.57-2.05,4.12-2.44,6.81a16.61,16.61,0,0,1-1.51,5.7l-0.33.58L316,367a18,18,0,0,1-1.73-4.22,14.59,14.59,0,0,0-2.43-5.21c-1.32,1.76-1.56,4.73-1.26,7.44,0.27,1.12.47,2.18,0.62,3l0.13,0.69-0.77.2a19.37,19.37,0,0,1-.77-3.7c-0.53-2.17-1.31-4.56-2.41-5.29a1,1,0,0,0-.79-0.18,1.68,1.68,0,0,0-1.14.8c-0.78,1.25-.57,3.66-0.13,5.94,0.55,1.83,1.06,4.31,1.26,5.29l-0.78.16c-0.2-1-.21-0.87-0.36-1.47-0.28-1.08-.63-2.43-0.9-3.82-1-3.41-2.62-6.67-5.49-7.72-1.79,3.07-.66,7.64.35,11.69a30.81,30.81,0,0,1,1.09,5.77l0.08,2.06-0.84-1.89c-1.2-2.71-2.23-5.5-3.22-8.19-2-5.38-3.86-10.51-7.09-15.27,2.37,6.79,6,17.6,2.66,23.16a6,6,0,0,1-6.89,3.11,3.87,3.87,0,0,1-2.75-4.43l0.79,0.09a3,3,0,0,0,2.2,3.57,5.24,5.24,0,0,0,6-2.74c3.27-5.43-.61-16.49-2.92-23.1-0.24-.69-0.47-1.34-0.67-1.93l-0.74-2.19,1.43,1.82c4.3,5.46,6.57,11.64,8.77,17.62,0.63,1.72,1.28,3.48,2,5.23-0.18-.81-0.39-1.66-0.61-2.52-1.08-4.32-2.3-9.22-.09-12.58l0.16-.25L299,358c2.41,0.74,4,2.77,5.15,5.22a5.89,5.89,0,0,1,.64-3.17,2.47,2.47,0,0,1,1.65-1.15,1.79,1.79,0,0,1,1.39.29A6.09,6.09,0,0,1,309.7,362a8.56,8.56,0,0,1,1.85-5.38l0.29-.31,0.29,0.3a14.15,14.15,0,0,1,2.91,5.85,21.19,21.19,0,0,0,1.29,3.41,19.1,19.1,0,0,0,1.09-4.78c0.42-2.88.85-5.85,3.06-7.59l0.33-.26,0.24,0.35a34.44,34.44,0,0,1,2.86,5.27c0.25,0.53.5,1.07,0.76,1.61,0.56-2.36,1.33-3.76,2.26-4.06a1.28,1.28,0,0,1,1.32.35c1.24,1.18,1.85,4.94.72,9.19a40.76,40.76,0,0,1-6.37,13.18c2.28-1.26,4.45-2.41,6.38-3.43l2.48-1.32a278,278,0,0,1,29.36-14.34l1.19-.49-0.71,1.08a2.38,2.38,0,0,1-.84.69,1.76,1.76,0,0,0-.58.44l-0.42-.28a278.54,278.54,0,0,0-27.62,13.6l-2.5,1.33c-2.36,1.25-5.07,2.68-7.9,4.27-6.38,8.29-15.36,15-23.83,20.89Zm23.11-20.61c-8.8,5.07-18.25,11.55-21.45,18.49C306.12,394.68,313.9,388.77,319.72,381.7Z" transform="translate(-0.61 -0.61)"/></svg>