<?xml version="1.0" encoding="iso-8859-1"?>
<!-- Generator: Adobe Illustrator 18.0.0, SVG Export Plug-In . SVG Version: 6.00 Build 0)  -->
<!DOCTYPE svg PUBLIC "-//W3C//DTD SVG 1.1//EN" "http://www.w3.org/Graphics/SVG/1.1/DTD/svg11.dtd">
<svg version="1.1" id="Capa_1" xmlns="http://www.w3.org/2000/svg" xmlns:xlink="http://www.w3.org/1999/xlink" x="0px" y="0px"
	 viewBox="0 0 56.896 56.896" style="enable-background:new 0 0 56.896 56.896;" xml:space="preserve">
<g>
	<g>
		<path style="fill:#FBCE9D;" d="M55.101,21.897c2.022-2.626-0.095-6.448-3.409-6.448l-22.838,0h-2.115c0,0,7.231-1.167,7.231-6H22
			h-5.864c-1.803,0-3.533,0.315-5.136,0.894C5.169,12.445,1,18.028,1,24.584v11.823c0,6.098,4.943,11.041,11.041,11.041h11.14h7.288
			c1.925,0,3.5-1.575,3.5-3.5v-1c0-1.925-1.575-3.5-3.5-3.5h1.038c2.705,0,4.462-1.8,4.462-4s-1.757-4-3.904-4h1.715
			c2.086,0,3.958-1.514,4.168-3.59c0.241-2.382-1.644-4.41-3.979-4.41h18.127C53.302,23.448,54.384,22.828,55.101,21.897z"/>
		<path style="fill:#F7B563;" d="M30.469,48.448H12.041C5.401,48.448,0,43.047,0,36.407V24.584c0-6.781,4.284-12.883,10.661-15.183
			c1.753-0.633,3.596-0.953,5.475-0.953h18.833v1c0,2.34-1.342,3.934-2.932,5h19.654c1.992,0,3.783,1.125,4.675,2.937
			c0.848,1.723,0.671,3.638-0.473,5.122l0,0c-0.95,1.233-2.334,1.941-3.797,1.941H37.964c0.752,1,1.106,2.257,0.979,3.511
			c-0.19,1.878-1.5,3.451-3.249,4.131c0.792,0.888,1.274,2.066,1.274,3.358c0,2.07-1.238,3.771-3.107,4.546
			c0.689,0.791,1.107,1.825,1.107,2.954v1C34.969,46.43,32.95,48.448,30.469,48.448z M16.136,10.448
			c-1.647,0-3.261,0.28-4.797,0.834C5.753,13.298,2,18.644,2,24.584v11.823c0,5.537,4.504,10.041,10.041,10.041h18.428
			c1.379,0,2.5-1.121,2.5-2.5v-1c0-1.379-1.121-2.5-2.5-2.5v-2h1.039c2.038,0,3.461-1.233,3.461-3c0-1.654-1.303-3-2.903-3v-2h1.715
			c1.627,0,3.021-1.182,3.173-2.69c0.087-0.855-0.183-1.678-0.76-2.315c-0.57-0.632-1.382-0.994-2.225-0.994v-2h18.128
			c0.837,0,1.644-0.424,2.213-1.162l0,0c0.667-0.867,0.766-1.995,0.262-3.019c-0.433-0.879-1.417-1.819-2.88-1.819H26.738
			l-0.16-1.987c0.058-0.009,5.292-0.904,6.243-4.013H16.136z M55.102,21.896h0.01H55.102z"/>
	</g>
	<circle style="fill:#F7B563;" cx="7.892" cy="36.448" r="1"/>
	<circle style="fill:#F7B563;" cx="11.892" cy="36.448" r="1"/>
	<circle style="fill:#F7B563;" cx="7.892" cy="40.448" r="1"/>
	<circle style="fill:#F7B563;" cx="9.892" cy="38.448" r="1"/>
	<circle style="fill:#F7B563;" cx="11.892" cy="40.448" r="1"/>
	<circle style="fill:#F7B563;" cx="13.892" cy="42.448" r="1"/>
	<path style="fill:#F7B563;" d="M27.969,16.448H18c-0.553,0-1-0.447-1-1s0.447-1,1-1h9.969c0.553,0,1,0.447,1,1
		S28.521,16.448,27.969,16.448z"/>
	<path style="fill:#F7B563;" d="M34.969,24.448H22c-0.553,0-1-0.447-1-1s0.447-1,1-1h12.969c0.553,0,1,0.447,1,1
		S35.521,24.448,34.969,24.448z"/>
	<path style="fill:#F7B563;" d="M32.969,32.448H23c-0.553,0-1-0.447-1-1c0-0.553,0.447-1,1-1h9.969c0.553,0,1,0.447,1,1
		C33.969,32.001,33.521,32.448,32.969,32.448z"/>
	<path style="fill:#F7B563;" d="M30.969,40.448H25c-0.553,0-1-0.447-1-1s0.447-1,1-1h5.969c0.553,0,1,0.447,1,1
		S31.521,40.448,30.969,40.448z"/>
	<path style="fill:#F7B563;" d="M30.892,21.448c-0.553,0-1-0.447-1-1v-2c0-0.553,0.447-1,1-1s1,0.447,1,1v2
		C31.892,21.001,31.444,21.448,30.892,21.448z"/>
	<path style="fill:#F7B563;" d="M33.892,21.448c-0.553,0-1-0.447-1-1v-2c0-0.553,0.447-1,1-1s1,0.447,1,1v2
		C34.892,21.001,34.444,21.448,33.892,21.448z"/>
	<path style="fill:#EA7F5F;" d="M47.892,24.448c-0.553,0-1-0.447-1-1v-3c0-0.553,0.447-1,1-1s1,0.447,1,1v3
		C48.892,24.001,48.444,24.448,47.892,24.448z"/>
	<path style="fill:#EA7F5F;" d="M47.892,21.448c-0.256,0-0.512-0.098-0.707-0.293c-0.391-0.391-0.391-1.023,0-1.414l2-2
		c0.391-0.391,1.023-0.391,1.414,0s0.391,1.023,0,1.414l-2,2C48.403,21.351,48.147,21.448,47.892,21.448z"/>
	<path style="fill:#DD352E;" d="M45.172,30.62L48,27.791l2.828,2.828c1.562,1.562,1.562,4.095,0,5.657l0,0
		c-1.562,1.562-4.095,1.562-5.657,0l0,0C43.61,34.715,43.61,32.182,45.172,30.62z"/>
</g>
<g>
</g>
<g>
</g>
<g>
</g>
<g>
</g>
<g>
</g>
<g>
</g>
<g>
</g>
<g>
</g>
<g>
</g>
<g>
</g>
<g>
</g>
<g>
</g>
<g>
</g>
<g>
</g>
<g>
</g>
</svg>
