<svg id="Layer_4" data-name="Layer 4" xmlns="http://www.w3.org/2000/svg" viewBox="0 0 510.68 512.34"><defs><style>.cls-1{fill:#f1ecde;}.cls-2{fill:#a59d8c;}.cls-3{fill:#79b1f2;}.cls-4{fill:#4480b2;}.cls-5{fill:#f7575f;}.cls-6{fill:#c44551;}</style></defs><title>gift</title><path class="cls-1" d="M256,0.66C115,0.66.66,115,.66,256S115,511.34,256,511.34,511.34,397,511.34,256,397,0.66,256,.66Zm0,492C125.32,492.63,19.37,386.69,19.37,256S125.32,19.37,256,19.37,492.63,125.31,492.63,256,386.69,492.63,256,492.63Z" transform="translate(-0.66 -0.66)"/><path class="cls-1" d="M256,34.4C133.62,34.4,34.4,133.62,34.4,256S133.62,477.6,256,477.6,477.6,378.38,477.6,256,378.39,34.4,256,34.4Zm0,427C142.59,461.36,50.65,369.41,50.65,256S142.59,50.64,256,50.64,461.36,142.59,461.36,256,369.42,461.36,256,461.36Z" transform="translate(-0.66 -0.66)"/><path class="cls-1" d="M256,0.66C115,0.66.66,115,.66,256S115,511.34,256,511.34,511.34,397,511.34,256,397,0.66,256,.66Zm0,492C125.32,492.63,19.37,386.69,19.37,256S125.32,19.37,256,19.37,492.63,125.31,492.63,256,386.69,492.63,256,492.63Z" transform="translate(-0.66 -0.66)"/><path class="cls-1" d="M256,34.4C133.62,34.4,34.4,133.62,34.4,256S133.62,477.6,256,477.6,477.6,378.38,477.6,256,378.39,34.4,256,34.4Zm0,427C142.59,461.36,50.65,369.41,50.65,256S142.59,50.64,256,50.64,461.36,142.59,461.36,256,369.42,461.36,256,461.36Z" transform="translate(-0.66 -0.66)"/><path class="cls-1" d="M256,0.66C115,0.66.66,115,.66,256S115,511.34,256,511.34,511.34,397,511.34,256,397,0.66,256,.66Zm0,492C125.32,492.63,19.37,386.69,19.37,256S125.32,19.37,256,19.37,492.63,125.31,492.63,256,386.69,492.63,256,492.63Z" transform="translate(-0.66 -0.66)"/><path class="cls-1" d="M256,34.4C133.62,34.4,34.4,133.62,34.4,256S133.62,477.6,256,477.6,477.6,378.38,477.6,256,378.39,34.4,256,34.4Zm0,427C142.59,461.36,50.65,369.41,50.65,256S142.59,50.64,256,50.64,461.36,142.59,461.36,256,369.42,461.36,256,461.36Z" transform="translate(-0.66 -0.66)"/><path class="cls-1" d="M256,0.66C115,0.66.66,115,.66,256S115,511.34,256,511.34,511.34,397,511.34,256,397,0.66,256,.66Zm0,492C125.32,492.63,19.37,386.69,19.37,256S125.32,19.37,256,19.37,492.63,125.31,492.63,256,386.69,492.63,256,492.63Z" transform="translate(-0.66 -0.66)"/><path class="cls-1" d="M256,34.4C133.62,34.4,34.4,133.62,34.4,256S133.62,477.6,256,477.6,477.6,378.38,477.6,256,378.39,34.4,256,34.4Zm0,427C142.59,461.36,50.65,369.41,50.65,256S142.59,50.64,256,50.64,461.36,142.59,461.36,256,369.42,461.36,256,461.36Z" transform="translate(-0.66 -0.66)"/><path class="cls-1" d="M256,2.32C115,2.32.66,116.64,0.66,257.66S115,513,256,513,511.34,398.68,511.34,257.66,397,2.32,256,2.32Zm0,492c-130.69,0-236.63-105.94-236.63-236.63S125.32,21,256,21,492.63,127,492.63,257.66,386.69,494.29,256,494.29Z" transform="translate(-0.66 -0.66)"/><path class="cls-1" d="M256,34.4C133.62,34.4,34.4,133.62,34.4,256S133.62,477.6,256,477.6,477.6,378.38,477.6,256,378.39,34.4,256,34.4Zm0,427C142.59,461.36,50.65,369.41,50.65,256S142.59,50.64,256,50.64,461.36,142.59,461.36,256,369.42,461.36,256,461.36Z" transform="translate(-0.66 -0.66)"/><polygon class="cls-2" points="263.38 103.35 263.38 103.34 221.39 103.34 221.39 103.35 93.36 103.35 93.36 163.04 93.36 205.04 93.36 264.73 93.36 317.2 100.63 317.2 100.63 430.64 221.39 430.64 221.39 430.73 263.38 430.73 263.38 430.64 384.14 430.64 384.14 317.2 391.41 317.2 391.41 264.73 391.41 205.04 391.41 163.04 391.41 103.35 263.38 103.35"/><rect class="cls-3" x="128.52" y="238.39" width="283.52" height="163.56"/><rect class="cls-4" x="121.25" y="236.04" width="298.06" height="52.46"/><rect class="cls-3" x="121.25" y="74.65" width="298.06" height="161.39"/><rect class="cls-5" x="121.25" y="134.34" width="298.06" height="41.99"/><rect class="cls-5" x="249.28" y="74.65" width="41.99" height="327.29"/><rect class="cls-6" x="249.28" y="235.91" width="41.99" height="166.13"/><polygon class="cls-5" points="165.56 236.04 221.23 236.04 285.74 161.91 254.06 134.34 165.56 236.04"/><polygon class="cls-6" points="221.07 325.89 193.31 297.38 165.56 325.89 165.56 236.04 221.07 236.04 221.07 325.89"/><polygon class="cls-5" points="375 236.04 319.33 236.04 254.83 161.91 286.51 134.34 375 236.04"/><polygon class="cls-6" points="319.49 325.89 347.25 297.38 375 325.89 375 236.04 319.49 236.04 319.49 325.89"/><path class="cls-5" d="M270.94,115.61h0c-1.06-.57-104.68-55.62-104.7,0h0v33.82h0.09c3.36-51.1,103.56,2.13,104.6,2.69V115.62h0Z" transform="translate(-0.66 -0.66)"/><path class="cls-6" d="M270.94,152.14h0a299.7,299.7,0,0,0-43.2-18.26c-21,6.79-44.08,10.56-55,0-4.06,3.92-6.47,9.8-6.47,18.26h0c0,13.91,6.48,20.9,16.22,23.55,12.77,3.48,31.16-.51,47.86-6.14q2.38-.8,4.72-1.65a305.64,305.64,0,0,0,35.9-15.76h0Z" transform="translate(-0.66 -0.66)"/><path class="cls-5" d="M270.94,115.61h0c1.06-.57,104.68-55.62,104.7,0h0v33.82h-0.09C372.21,98.34,272,151.57,271,152.13V115.62h0Z" transform="translate(-0.66 -0.66)"/><path class="cls-6" d="M270.95,152.14h0a299.82,299.82,0,0,1,43.2-18.26c21,6.79,44.08,10.56,55,0,4.06,3.92,6.47,9.8,6.47,18.26h0c0,13.91-6.48,20.9-16.22,23.55-12.77,3.48-31.16-.51-47.86-6.14q-2.39-.8-4.72-1.65A306,306,0,0,1,271,152.15h0Z" transform="translate(-0.66 -0.66)"/></svg>