<svg id="Blue_Mountains" data-name="Blue Mountains" xmlns="http://www.w3.org/2000/svg" viewBox="0 0 691.2 298.48"><defs><style>.cls-1{fill:#9db1ce;}.cls-2{fill:#9cb1ce;}.cls-3{fill:#9db2ce;}.cls-4{fill:#9db2cf;}.cls-5{fill:#bfcfe5;}</style></defs><title>layer6</title><g id="Layer_6_Layer_6b_Image" data-name="Layer 6 + Layer 6b Image"><path class="cls-1" d="M50.16 87.8a67.77 67.77 0 0 1-.78 7.33c-.67 3.18-2.92 5.6-4.59 8.3s-3 5.57-4.51 8.38a1.34 1.34 0 0 0 .55 1.91 43 43 0 0 1 3.25 3c-2.74 2.33-5.19 4.59-7.83 6.62s-4.21 4.54-6.06 7a49 49 0 0 0-6.72 11.54c-.8 2.06-2.59 3.14-4.34 4.27s-3.65 2.29-5.34 3.61a61 61 0 0 0-5.14 4.64c-1.49 1.48-2.74 3.19-4.26 4.62a54.35 54.35 0 0 1-4.39 3.4V123.3c.37-2.16 2.21-2.79 3.83-3.62.81-.42 1.77-.56 2.53-1.05 6.07-3.93 12.46-7.36 18.11-12 3-2.42 6.38-4.3 9.47-6.59 2.17-1.61 4.11-3.53 6.19-5.25 2.91-2.41 5.86-4.77 8.79-7.16.46-.32.84-.53 1.24.17z"/><path class="cls-2" d="M120.98 54.42a51.14 51.14 0 0 0 2.82 4.61c1.44 1.9 3.09 3.64 4.65 5.45a.86.86 0 0 1-.2 1.47 25.9 25.9 0 0 0-2.6 2.21 7 7 0 0 0-.84 1.51c1.74-.36 3.11-.7 4.51-.89a1.75 1.75 0 0 1 1.39.46 12.61 12.61 0 0 0 3.9 3.44 2.2 2.2 0 0 1 .94 3.4 2.24 2.24 0 0 0 .21 2.72 9.29 9.29 0 0 1 1 3c.23 1.11.11 2.31.45 3.38a3.37 3.37 0 0 0 1.53 1.89c2 .93 3.14 2.67 4.59 4.13a9.83 9.83 0 0 1 1.53 2c.44.76.69 1.62 1.06 2.42a6.12 6.12 0 0 0 .91 1.65c1.39 1.48 2.88 2.85 4.27 4.33a22.17 22.17 0 0 1 4.76 6.28 2.77 2.77 0 0 0 1.79 1.79 1.87 1.87 0 0 1 .91 1 2.24 2.24 0 0 1-.73.78 4.06 4.06 0 0 1-3.29 1.16c-1.13-.1-2.38.76-3.52 1.3s-2.21 1.22-3.31 1.84l.1.4c1.54-.15 3.07-.33 4.62-.43a55.81 55.81 0 0 1 6.85-.31 4.52 4.52 0 0 1 4 2.36c.5.89 1.92 1.36 3 1.82s1.13 1 .84 2a3.09 3.09 0 0 0 0 2.15 16.69 16.69 0 0 0 4.89 5.76c1.92 1.3 3.43 3.21 5.19 4.77.79.7 1.76 1.18 2.6 1.82a1.73 1.73 0 0 1 .66 1 12.49 12.49 0 0 0 3 6.64 5.63 5.63 0 0 1 1.85 4.47c-.23 2.29-.29 4.59-.4 6.89a.81.81 0 0 0 .24.61c.88.63.83 1.52.88 2.46.09 1.82.3 3.64.46 5.46a.47.47 0 0 0 0 .23c1.72 1.89 1 4.23 1.18 6.41a3.25 3.25 0 0 0 .09.44c2.36.24 2.81 2.23 3.53 3.86.81 1.84 1.37 3.8 2.15 5.66 1.34 3.15.89 6.39.85 9.61l-.61.42a8.34 8.34 0 0 0-.41-1c-.26-.45-.61-.84-.84-1.31a13.86 13.86 0 0 0-6.79-6.4 6.93 6.93 0 0 1-3.54-3.88 6.08 6.08 0 0 0-1.45-1.71q-3.05-3.19-6.13-6.35c-2-2.07-4-4.29-7.06-4.6a25.07 25.07 0 0 0-6.78.16 32.59 32.59 0 0 1-10.11.1 82.45 82.45 0 0 1-8.29-1.66 7.21 7.21 0 0 1-2.77-1.51 2.61 2.61 0 0 1-.78-1.87 5.32 5.32 0 0 0-2.54-4.82c-3.26-2.34-6.44-4.81-9.69-7.15-1.8-1.3-3.7-2.46-5.47-3.63.37-1.31.72-2.44 1-3.6a1.62 1.62 0 0 0-1.08-2.16 64.36 64.36 0 0 1-6.94-3.22c-1.51-.84-2.74-2.16-4.18-3.15a129.77 129.77 0 0 0-12.8-8.13 63.34 63.34 0 0 1-8.12-5.63c-1.84-1.38-3.49-3-5.31-4.44s-4.08-2.71-5.89-4.34a52.48 52.48 0 0 1-6.84-7 38.43 38.43 0 0 0-11.61-9.76 27.52 27.52 0 0 1-2.61-2c2.56-.82 5.13-1.6 7.67-2.48a43.26 43.26 0 0 0 4.07-1.67c1.52-.7 2.95-1.6 4.49-2.22 4.49-1.78 8.27-4.76 12.41-7.14 3.59-2.06 7.31-3.92 10.73-6.24 4.15-2.81 8.05-6 12-9 3.82-2.92 7.61-5.88 11.5-8.9z"/><path class="cls-1" d="M627.83 43.62c-.62 1.91-1 3.91-2.44 5.5a26.18 26.18 0 0 0-1.63 2.51c-1 1.47-2.16 2.86-3.12 4.37-.86 1.35-1.55 2.81-2.51 4.57l4.1.19c-.49.79-.85 1.38-1.22 2-1.69 2.69-3.4 5.37-5.06 8.07-.31.51-.66 1.18.06 1.71 1 .76.85 1.7.44 2.68a23 23 0 0 1-4.78 7.25c-1.55 1.6-3.15 3.16-4.68 4.78a1 1 0 0 0 0 1 7.64 7.64 0 0 0 1.32 1.08 7.54 7.54 0 0 1-1.12 1.19 7.44 7.44 0 0 0-2.77 3.86c-1.19 2.92-2.65 5.72-4 8.57-.18.38-.35.77-.6 1.34l2.38.19-3.83 3.76a24.47 24.47 0 0 0 2.77 1.53c.92.36.85.88.4 1.46-1.34 1.73-2.63 3.51-4.11 5.12-3.27 3.55-6.65 7-10 10.51-1 1.07-2 2.18-3.1 3.43l6.43.74a33.29 33.29 0 0 1-4.82 4.57h3.93l.1.37c-6.54 3.11-13.37 5.67-19.41 10 .24-.41.46-.84.73-1.23q1.15-1.67 2.34-3.31a24.1 24.1 0 0 1 1.52-2c1-1.09 1.06-1.55 0-2.48-1.8-1.56-3.64-3.08-5.54-4.53a62.84 62.84 0 0 0-6.25-4.54 37 37 0 0 0-6.33-2.79 18.8 18.8 0 0 1-10.88-9.82c-.27-.53-.58-1-.87-1.56.95-.8 2.26-1.42 2.78-2.44 2.87-5.61 7.73-9.25 12.46-13 3.42-2.73 6.88-5.42 10.25-8.22a72.51 72.51 0 0 0 6.17-5.63c5.55-5.82 12.56-9.79 18.67-14.89 3.52-2.93 7.46-5.43 10.68-8.65 5-5 10.86-8.87 16.3-13.27 1.7-1.44 3.49-2.73 5.24-3.99z"/><path class="cls-3" d="M476.66 68.11a21.72 21.72 0 0 0-.16 4.33 5.73 5.73 0 0 1-.81 4.45c-1.17 1.62-1.1 3.5-1.47 5.31a10.59 10.59 0 0 1-.59 1.75c-.4 1-.9 2-1.23 3a25.31 25.31 0 0 0-.8 3.48c-.44 2.69-.73 5.41-1.22 8.1-.39 2.14-1 4.25-1.49 6.37a6.72 6.72 0 0 1-.9 2.19 11.61 11.61 0 0 1-.84-3.2c.06-2-1.23-3.21-2.37-4.5-2.12-2.38-4.31-4.69-6.47-7-1.32-1.42-2.66-2.82-4-4.25a1.66 1.66 0 0 1-.22-.53c.48-.21 1-.41 1.43-.65.78-.4 1.5-.92 2.31-1.24a22.66 22.66 0 0 0 8.94-6.64 9.13 9.13 0 0 1 3.29-2.66c2.41-1 3.42-2.79 4.18-5a31 31 0 0 1 1.52-3.24c.24-.51.55-.7.9-.07zM220.36 94.75c.11 1.5-.15 3 1.27 4.24a7.42 7.42 0 0 1 1.6 2.86c1 2.51 1.93 5.05 2.88 7.58a1.75 1.75 0 0 1 .17.57v10.46a4.26 4.26 0 0 1-2.26-2.48 35.84 35.84 0 0 1-1.48-5.26 13.85 13.85 0 0 0-3.59-7.23c-1.27-1.41-2.2-3.11-3.41-4.58a18.89 18.89 0 0 0-3.1-3.07 10 10 0 0 1-3.17-3.77c2.06.07 4.12.13 6.18.22 1.5.06 3 .15 4.5.25a1.1 1.1 0 0 1 .41.21z"/><path class="cls-4" d="M149.76 63.11c.41.89.76 1.82 1.26 2.67a22.48 22.48 0 0 1 2.26 5.71c.6 2.27 1.91 4.34 2.91 6.5.08.17.17.32.26.48l-.28.24a18.36 18.36 0 0 1-2.14-2.48 8.69 8.69 0 0 0-3.43-2.85 1.88 1.88 0 0 1-.83-.63c-.68-1.76-2.33-2.52-3.65-3.6a9.21 9.21 0 0 0-1.55-.81c-1.2-.64-2.65-1-2.93-2.64a4.13 4.13 0 0 0 4.58-.44c1.12-.77 2.34-1.44 3.54-2.15zM366.7 6.95c1.27 3.21 1.81 6.74 4.4 9.37a3.1 3.1 0 0 1 .35 2.23 21.61 21.61 0 0 1-.81 3.07l-.35.06c-.23-.79-.52-1.56-.69-2.37a2.52 2.52 0 0 0-1.17-2 21.72 21.72 0 0 1-2.44-2.08 13 13 0 0 0-1.59-.94 2.82 2.82 0 0 1-.7-.43c-.93-1-1.83-2.1-2.75-3.15 1.41-1 2.82-1.91 4.24-2.85.5-.33 1.01-.61 1.51-.91z"/><path class="cls-1" d="M628.08 43.37l-.25.27z"/><path class="cls-4" d="M141.61 65.72l-.25-.29z"/><path class="cls-5" d="M355.44 64.28l-.1.1a.13.13 0 0 1 0-.06h.08zM417.36 136.28l-.05.11.05-.1zM417.36 136.28zM627.83 43.64z"/><path class="cls-5" d="M690.01 78.66c-1.94-.95-4-1.72-5.83-2.83-4.55-2.75-9-5.69-13.5-8.49-2.33-1.44-4.73-2.76-7.14-4.06-2.23-1.2-4.52-2.29-6.8-3.41-1-.5-2.09-.92-3.11-1.44-1.2-.6-2.38-1.25-3.55-1.91a17.33 17.33 0 0 1-2.8-1.73c-1.49-1.28-2.83-2.74-4.29-4.06-.82-.74-1.76-1.35-2.63-2-2.39-1.87-4.74-3.79-7.18-5.59a4 4 0 0 0-5.1.26l-.25.27c-.62 1.91-1 3.9-2.43 5.49a26.18 26.18 0 0 0-1.64 2.47c-1 1.47-2.16 2.86-3.12 4.37-.86 1.35-1.55 2.81-2.51 4.57l4.1.19c-.49.79-.85 1.38-1.22 2-1.69 2.69-3.4 5.37-5.06 8.08-.31.51-.66 1.18.06 1.71 1 .76.85 1.7.44 2.68a23 23 0 0 1-4.78 7.25c-1.55 1.6-3.15 3.16-4.68 4.78a1 1 0 0 0 0 1 7.64 7.64 0 0 0 1.32 1.08 7.54 7.54 0 0 1-1.12 1.19 7.44 7.44 0 0 0-2.77 3.86c-1.19 2.92-2.65 5.72-4 8.57-.18.38-.35.77-.6 1.34l2.38.19-3.83 3.76a24.47 24.47 0 0 0 2.77 1.53c.92.36.85.88.4 1.46-1.34 1.73-2.63 3.51-4.11 5.12-3.27 3.55-6.65 7-10 10.51-1 1.07-2 2.18-3.1 3.43l6.43.74a33.28 33.28 0 0 1-4.82 4.57h3.93l.1.37c-6.54 3.11-13.37 5.67-19.41 10 .24-.41.46-.84.73-1.23q1.15-1.67 2.34-3.31a24.11 24.11 0 0 1 1.52-2c1-1.09 1.06-1.55 0-2.48-1.8-1.56-3.64-3.08-5.54-4.53a62.85 62.85 0 0 0-6.25-4.55 37 37 0 0 0-6.33-2.79 18.8 18.8 0 0 1-10.88-9.82c-.27-.53-.58-1-.87-1.56a1.65 1.65 0 0 0-.16-.44c-1.84-2.54-4.46-3.82-7.34-4.84a22.23 22.23 0 0 1-4.92-2.58c-2.13-1.44-3.63-3.77-6.3-4.5a8.94 8.94 0 0 1-1.74-1q-4-2.2-8.05-4.38a14.89 14.89 0 0 1-1.67-.81c-1.42-1-2.74-2.18-4.19-3.16-2.78-1.88-5.62-3.66-8.43-5.5-4.23-2.77-8.53-5.46-12.66-8.37-3-2.13-5.81-4.6-8.74-6.87-1.43-1.11-2.95-2.11-4.42-3.16a21.72 21.72 0 0 0-.16 4.33 5.73 5.73 0 0 1-.81 4.45c-1.17 1.62-1.1 3.5-1.47 5.31a10.59 10.59 0 0 1-.59 1.75c-.4 1-.9 2-1.23 3a25.32 25.32 0 0 0-.8 3.48c-.44 2.69-.73 5.41-1.22 8.1-.39 2.14-1 4.25-1.49 6.37a6.72 6.72 0 0 1-.9 2.19 11.61 11.61 0 0 1-.84-3.2c.06-2-1.23-3.21-2.37-4.5-2.12-2.38-4.31-4.69-6.47-7-1.32-1.42-2.66-2.82-4-4.25a1.66 1.66 0 0 1-.22-.53c-1.85-1.49-3.8-2.87-5.51-4.49-3.19-3-6.2-6.23-9.35-9.3-1.45-1.41-3-2.66-4.55-4-1.06-1-2.09-1.94-3.12-2.93-2.23-2.16-4.26-4.59-6.74-6.42-3.24-2.4-6.59-4.61-9.15-7.79a2.73 2.73 0 0 0-.56-.44 46.06 46.06 0 0 1-7.92-7.93 123.34 123.34 0 0 0-8.65-9.23c-3.7-3.51-7.65-6.74-11.5-10.09-2.28-2-4.59-4-6.85-6-2-1.78-4-3.57-5.9-5.42-2.21-2.12-4.35-4.31-6.55-6.44a2.28 2.28 0 0 0-1-.21c1.27 3.21 1.81 6.74 4.4 9.37a3.1 3.1 0 0 1 .35 2.23 21.61 21.61 0 0 1-.81 3.07l-.35.06c-.23-.79-.52-1.56-.69-2.37a2.52 2.52 0 0 0-1.17-2 21.71 21.71 0 0 1-2.44-2.08 13 13 0 0 0-1.59-.94 2.82 2.82 0 0 1-.7-.43c-.93-1-1.83-2.1-2.75-3.15-1.09-1.2-2.13-2.47-3.3-3.6-1.54-1.49-3.21-2.84-4.75-4.33-.85-.82-1.55-1.78-2.39-2.77l-.61.68c1.36 2 2.88 3.92 4 6a83.47 83.47 0 0 1 4.11 8.5 34.72 34.72 0 0 1 1.18 5c.46 1.85 1.11 3.66 1.44 5.53a24.74 24.74 0 0 1 .24 4.76 1.9 1.9 0 0 0 1.51 2.12 4.86 4.86 0 0 1 3.24 3 16.1 16.1 0 0 0 2.79 3.62 2.55 2.55 0 0 1 .37 3.06 59.16 59.16 0 0 1-6.58 11.35c-2.48 3.29-4.48 6.9-6.72 10.34a1 1 0 0 0-.08.35c1.26-.76 2.52-1.49 3.77-2.27 2.74-1.71 5.42-3.5 8.23-5.1a2.82 2.82 0 0 1 2.46 0c2.07 1.39 4.2 2.81 5.09 5.36a1.15 1.15 0 0 0 .48.66c1.54.63 2 2 2.24 3.4a2.78 2.78 0 0 0 1.66 2c1.62.9 3.06 2.14 4.93 2.56a.94.94 0 0 1 .55.42 19.39 19.39 0 0 1 1.76 3.58 3.77 3.77 0 0 1-.44 2.46 89.55 89.55 0 0 0-6 14.7v.09c3.48-2.21 7-4.49 10.6-6.69a1.76 1.76 0 0 1 1.4.1 18.16 18.16 0 0 1 2.68 1.57c1.18.84 2.09 1.85 1.84 3.49a8.21 8.21 0 0 0 .08 1.66 2.62 2.62 0 0 0 2.28 2.71 2.07 2.07 0 0 1 1.34 1.33c.33 2.42 1.94 3.84 3.68 5.22a39.77 39.77 0 0 0 3.49 2.89 36.61 36.61 0 0 0 5.3 2.67 4.92 4.92 0 0 1 3 3 20.69 20.69 0 0 0 4.56 6.94c.9 1 1.39 2.4 2.39 3.23a41.09 41.09 0 0 0 5.07 3.32c1.11.67 1.29 1.23.32 2.11-2.44 2.22-5 4.32-7.4 6.59-1.29 1.22-2.37 2.67-3.54 4 2.56-1.08 5.19-2 7.66-3.26 4-2 4.75-1.15 7.51 1.11a25 25 0 0 1 5.9 7.32c.79 1.42 1.61 2.81 2.32 4.27a1.8 1.8 0 0 1 0 1.38c-1.24 2.61-.56 4.77 1.43 6.67a7.81 7.81 0 0 1 2.57 4.21 1.41 1.41 0 0 0 .33.76 1.36 1.36 0 0 1 .13 2.18 4.91 4.91 0 0 1-2 .65 3.31 3.31 0 0 1-.88-.11c.35.74.67 1.29.88 1.88a19.52 19.52 0 0 0 3 4.87 3.27 3.27 0 0 1 .27 2.66c-.79 2.09-.32 3.56 1.26 5.11a18.28 18.28 0 0 1 3.37 4.67 59.91 59.91 0 0 1 2.25 6 1.35 1.35 0 0 0 .74.79c2.32.48 3.3 2.24 4 4.2a17.47 17.47 0 0 0 4.84 7 32.88 32.88 0 0 1 2.77 3.55c1.05 1.28 2.19 2.49 3.26 3.75.59.7 1.14 1.44 1.7 2.17h-99.81c-1.93-2.12-3.79-4.3-5.79-6.36-2.93-3-5.93-6-9-8.94-2.54-2.48-5.24-4.8-7.72-7.33-1.58-1.61-2.85-3.52-4.36-5.21a8.66 8.66 0 0 0-1.78-1 14.23 14.23 0 0 1-2.05-1.57 26.49 26.49 0 0 0-2.93-3 8.87 8.87 0 0 0-3.38-1.17c-2.69-.49-5.41-.79-8.1-1.28a3.19 3.19 0 0 1-1.45-1.11c-1.69-1.85-3.34-3.75-5-5.61a2.72 2.72 0 0 0-1.06-.76 1.88 1.88 0 0 0-1.2 0c-.39 1.19-1.34.71-2.09.79-1.5.16-3 .38-4.5.39a4.45 4.45 0 0 1-2.49-.6c-2.36-1.69-4.61-3.54-6.87-5.35a14.6 14.6 0 0 1-1.34-1.41c-.25 1.22-.52 2.21-.65 3.22s-.51 1-1.22.68a3.53 3.53 0 0 1-.87-.37c-2.28-1.9-5-3.18-7.06-5.45a50.8 50.8 0 0 0-5.47-4.6c-2.87-2.39-5.71-4.82-8.62-7.18-1.6-1.3-3.31-2.46-4.95-3.72a5.81 5.81 0 0 1-1.23-1.27 8.71 8.71 0 0 0-4.07-3.29 12.23 12.23 0 0 0-.11 5.5c.49 2.44 1 4.82 2.58 6.84 1.18 1.5 2.29 3.06 3.32 4.66a24.5 24.5 0 0 1 1.58 3.19 4.49 4.49 0 0 1 .2 1.09l-.31.16c-2-2.46-3.89-5-6-7.37-1.79-2-3.76-3.88-5.72-5.74a1.4 1.4 0 0 1-.55-1.49 32 32 0 0 0 .28-4.4 1.74 1.74 0 0 0-.51-1 38.17 38.17 0 0 0-4.69-5c-3.39-2.63-3.89-6.4-4.58-10.12-.41-2.22-.46-4.5-.77-6.74a7.37 7.37 0 0 0-.81-2c-1.2-2.56-2.44-5.1-3.59-7.68a15.41 15.41 0 0 1-.65-2.41 2.12 2.12 0 0 1-.82.41c-3.23-.09-6.43-.34-9.26-2.17-.59-.38-1.32-.55-1.95-.9-2.28-1.27-4.52-2.63-6.83-3.84-2-1-4-1.9-6-2.84.11 1.5-.15 3 1.27 4.24a7.42 7.42 0 0 1 1.6 2.86c1 2.51 1.93 5.05 2.88 7.58a1.75 1.75 0 0 1 .17.57v10.46a4.26 4.26 0 0 1-2.26-2.48 35.84 35.84 0 0 1-1.48-5.26 13.85 13.85 0 0 0-3.59-7.23c-1.27-1.41-2.2-3.11-3.41-4.58a18.88 18.88 0 0 0-3.1-3.07 10 10 0 0 1-3.17-3.77 58.91 58.91 0 0 0-7.28-3.06c-2.9-.81-5.35-2.39-7.95-3.72-2.39-1.22-4.61-2.76-7-4a33.12 33.12 0 0 0-3.92-1.18c-2.12-.75-4.21-1.57-6.29-2.42a51.22 51.22 0 0 1-4.76-2.1c-2.65-1.4-5.2-3-7.85-4.4a40.15 40.15 0 0 1-7.61-5.28c-1.74-1.51-3.53-3-5.35-4.38a4.47 4.47 0 0 0-1.55-.44c.41.89.76 1.82 1.26 2.67a22.48 22.48 0 0 1 2.26 5.71c.6 2.27 1.91 4.34 2.91 6.5.08.17.17.32.26.48l-.28.24a18.37 18.37 0 0 1-2.14-2.48 8.69 8.69 0 0 0-3.43-2.85 1.88 1.88 0 0 1-.83-.63c-.68-1.76-2.33-2.52-3.65-3.6a9.21 9.21 0 0 0-1.55-.81c-1.19-.63-2.64-1-2.93-2.63l-.25-.28c-2.87-1.83-5.72-3.69-8.62-5.46a37.22 37.22 0 0 0-3.54-1.67l-8.22-3.88a51.14 51.14 0 0 0 2.82 4.61c1.44 1.9 3.09 3.64 4.65 5.45a.86.86 0 0 1-.2 1.47 25.89 25.89 0 0 0-2.6 2.21 7 7 0 0 0-.84 1.51c1.74-.36 3.11-.7 4.51-.89a1.75 1.75 0 0 1 1.39.46 12.61 12.61 0 0 0 3.9 3.44 2.2 2.2 0 0 1 .94 3.4 2.24 2.24 0 0 0 .21 2.72 9.29 9.29 0 0 1 1 3c.23 1.11.11 2.31.45 3.38a3.37 3.37 0 0 0 1.53 1.89c2 .93 3.14 2.67 4.59 4.13a9.83 9.83 0 0 1 1.53 2c.44.76.69 1.62 1.06 2.42a6.12 6.12 0 0 0 .91 1.65c1.39 1.48 2.88 2.85 4.27 4.33a22.17 22.17 0 0 1 4.82 6.29 2.77 2.77 0 0 0 1.79 1.79 1.87 1.87 0 0 1 .91 1 2.24 2.24 0 0 1-.73.78 4.06 4.06 0 0 1-3.29 1.16c-1.13-.1-2.38.76-3.52 1.3s-2.21 1.22-3.31 1.84l.1.4c1.54-.15 3.07-.33 4.62-.43a55.8 55.8 0 0 1 6.85-.31 4.52 4.52 0 0 1 4 2.36c.5.89 1.92 1.36 3 1.82s1.13 1 .84 2a3.09 3.09 0 0 0 0 2.15 16.69 16.69 0 0 0 4.89 5.76c1.92 1.3 3.43 3.21 5.19 4.77.79.7 1.76 1.18 2.6 1.82a1.73 1.73 0 0 1 .66 1 12.49 12.49 0 0 0 3 6.64 5.63 5.63 0 0 1 1.85 4.47c-.23 2.29-.29 4.59-.4 6.89a.81.81 0 0 0 .24.61c.88.63.83 1.52.88 2.46.09 1.82.3 3.64.46 5.46a.47.47 0 0 0 0 .23c1.72 1.89 1 4.23 1.18 6.41a3.25 3.25 0 0 0 .09.44c2.36.24 2.81 2.23 3.53 3.86.81 1.84 1.37 3.8 2.15 5.66 1.34 3.15.89 6.39.85 9.61l-.61.42a8.34 8.34 0 0 0-.41-1c-.26-.45-.61-.84-.84-1.31a13.86 13.86 0 0 0-6.79-6.4 6.93 6.93 0 0 1-3.54-3.88 6.08 6.08 0 0 0-1.45-1.71q-3.05-3.19-6.13-6.35c-2-2.07-4-4.29-7.06-4.6a25.07 25.07 0 0 0-6.78.16 32.58 32.58 0 0 1-10.11.1 82.47 82.47 0 0 1-8.29-1.66 7.21 7.21 0 0 1-2.77-1.51 2.61 2.61 0 0 1-.78-1.87 5.32 5.32 0 0 0-2.54-4.82c-3.26-2.34-6.44-4.81-9.69-7.15-1.8-1.3-3.7-2.46-5.47-3.63.37-1.31.72-2.44 1-3.6a1.62 1.62 0 0 0-1.08-2.16 64.36 64.36 0 0 1-6.94-3.22c-1.51-.84-2.74-2.16-4.18-3.15a129.77 129.77 0 0 0-12.8-8.13 63.34 63.34 0 0 1-8.12-5.63c-1.84-1.38-3.49-3-5.31-4.44s-4.08-2.71-5.89-4.34a52.48 52.48 0 0 1-6.84-7 38.43 38.43 0 0 0-11.61-9.76 27.51 27.51 0 0 1-2.61-2 5.61 5.61 0 0 1-1.59-.38c-1.67-1-3.28-2-4.92-3a67.77 67.77 0 0 1-.78 7.33c-.67 3.18-2.92 5.6-4.59 8.3s-3 5.57-4.51 8.38a1.34 1.34 0 0 0 .55 1.91 43 43 0 0 1 3.25 3c-2.74 2.33-5.19 4.59-7.83 6.62s-4.21 4.54-6.06 7a49 49 0 0 0-6.7 11.53c-.8 2.06-2.59 3.14-4.34 4.27s-3.65 2.29-5.34 3.61a61.05 61.05 0 0 0-5.14 4.64c-1.49 1.48-2.74 3.19-4.26 4.62a54.33 54.33 0 0 1-4.39 3.4v136.06h691v-90.44h.24V79.4a13 13 0 0 0-1.23-.74zM141.61 65.7z"/><path class="cls-2" d="M485.47 241.71l1.8-13.16-1.2-8.38-9.41-7.48-6-4.65c-.57-.72-1.11-1.47-1.7-2.17-1.07-1.26-2.21-2.47-3.26-3.75a32.88 32.88 0 0 0-2.77-3.55 17.47 17.47 0 0 1-4.84-7c-.71-2-1.68-3.72-4-4.2a1.35 1.35 0 0 1-.74-.79 59.91 59.91 0 0 0-2.25-6 18.28 18.28 0 0 0-3.37-4.67c-1.58-1.55-2.06-3-1.26-5.11a3.27 3.27 0 0 0-.27-2.66 19.52 19.52 0 0 1-3-4.87c-.21-.59-.53-1.14-.88-1.88a3.31 3.31 0 0 0 .88.11 4.91 4.91 0 0 0 2-.65 1.36 1.36 0 0 0-.13-2.18 1.41 1.41 0 0 1-.33-.76 7.81 7.81 0 0 0-2.57-4.21c-2-1.9-2.67-4.06-1.43-6.67a1.8 1.8 0 0 0 0-1.38c-.71-1.45-1.54-2.85-2.32-4.27a25 25 0 0 0-5.9-7.32c-2.75-2.25-3.56-3.1-7.51-1.11-2.47 1.25-5.1 2.19-7.66 3.26 1.17-1.34 2.25-2.79 3.54-4 2.4-2.26 5-4.37 7.4-6.59 1-.88.79-1.44-.32-2.11a41.09 41.09 0 0 1-5.07-3.32c-1-.83-1.49-2.25-2.39-3.23a20.69 20.69 0 0 1-4.56-6.94 4.92 4.92 0 0 0-3-3 36.61 36.61 0 0 1-5.3-2.67 39.77 39.77 0 0 1-3.49-2.89c-1.74-1.38-3.35-2.8-3.68-5.22a2.07 2.07 0 0 0-1.34-1.33 2.62 2.62 0 0 1-2.28-2.71 8.21 8.21 0 0 1-.08-1.66c.25-1.64-.66-2.66-1.84-3.49a18.16 18.16 0 0 0-2.68-1.57 1.76 1.76 0 0 0-1.4-.1c-3.58 2.21-7.12 4.48-10.6 6.69v-.09a89.55 89.55 0 0 1 6-14.7 3.77 3.77 0 0 0 .44-2.46 19.39 19.39 0 0 0-1.76-3.58.94.94 0 0 0-.55-.42c-1.87-.42-3.31-1.66-4.93-2.56a2.78 2.78 0 0 1-1.66-2c-.27-1.43-.7-2.77-2.24-3.4a1.15 1.15 0 0 1-.48-.66c-.89-2.55-3-4-5.09-5.36a2.82 2.82 0 0 0-2.46 0c-2.8 1.59-5.49 3.39-8.23 5.1-1.24.78-2.51 1.51-3.77 2.27l-.1.1a.13.13 0 0 1 0-.06h.08a1 1 0 0 1 .08-.35c2.23-3.44 4.29-7 6.76-10.29a59.16 59.16 0 0 0 6.58-11.35 2.55 2.55 0 0 0-.37-3.06 16.1 16.1 0 0 1-2.79-3.62 4.86 4.86 0 0 0-3.24-3 1.9 1.9 0 0 1-1.51-2.12 24.74 24.74 0 0 0-.24-4.76c-.33-1.87-1-3.68-1.44-5.53a34.72 34.72 0 0 0-1.18-5 83.47 83.47 0 0 0-4.11-8.5c-1.17-2.11-2.69-4-4-6l-2 2.35c-3.34 3.91-6.42 8.08-10.08 11.65s-7 7.19-10.33 11c-4 4.54-8.06 9.06-12.4 13.29-5.4 5.26-11.11 10.21-16.68 15.29a5.28 5.28 0 0 1-.87.62c-4.05 2.39-8.14 4.72-12.15 7.19a21.22 21.22 0 0 0-3.88 3.15c-1.51 1.53-2.71 3.37-4.27 4.84-2.38 2.24-4.89 4.35-7.46 6.37a6.17 6.17 0 0 1-2.94 1 2.52 2.52 0 0 0-1.92 1c-3.35 4.45-6.73 8.89-10.08 13.35-3.13 4.17-5.84 8.67-9.58 12.36a15.41 15.41 0 0 0 .65 2.41c1.16 2.58 2.4 5.12 3.59 7.68a7.37 7.37 0 0 1 .81 2c.31 2.24.36 4.52.77 6.74.69 3.72 1.19 7.5 4.58 10.12a38.17 38.17 0 0 1 4.69 5 1.74 1.74 0 0 1 .51 1 32 32 0 0 1-.28 4.4 1.4 1.4 0 0 0 .55 1.49c2 1.86 3.94 3.72 5.72 5.74 2.1 2.37 4 4.9 6 7.37l.31-.16a4.49 4.49 0 0 0-.2-1.09 24.5 24.5 0 0 0-1.58-3.19c-1-1.6-2.14-3.16-3.32-4.66-1.59-2-2.09-4.41-2.58-6.84a12.23 12.23 0 0 1 .11-5.5 8.71 8.71 0 0 1 4.07 3.29 5.81 5.81 0 0 0 1.23 1.27c1.63 1.26 3.35 2.42 4.95 3.72 2.9 2.35 5.74 4.79 8.62 7.18a50.8 50.8 0 0 1 5.47 4.6c2.05 2.27 4.78 3.55 7.06 5.45a3.53 3.53 0 0 0 .87.37c.71.31 1.11.19 1.22-.68s.39-2 .65-3.22a14.6 14.6 0 0 0 1.34 1.41c2.27 1.82 4.52 3.66 6.87 5.35a4.45 4.45 0 0 0 2.49.6c1.5 0 3-.23 4.5-.39.75-.08 1.7.4 2.09-.79a1.88 1.88 0 0 1 1.2 0 2.72 2.72 0 0 1 1.06.76c1.69 1.86 3.33 3.76 5 5.61a3.19 3.19 0 0 0 1.45 1.11c2.69.49 5.41.79 8.1 1.28a8.87 8.87 0 0 1 3.38 1.17 26.49 26.49 0 0 1 2.93 3 14.23 14.23 0 0 0 2.05 1.57 8.66 8.66 0 0 1 1.78 1c1.51 1.69 2.78 3.6 4.36 5.21 2.48 2.53 5.18 4.86 7.72 7.33 3 2.94 6 5.91 9 8.94 2 2.06 3.86 4.24 5.79 6.36l18.64 3.76 23.93 19.75 30.52 11.67 7.78-1.5 6 2.69 5.09 2.69 37.4 4.49z"/></g></svg>