<svg id="Layer_3_Image" data-name="Layer 3 Image" xmlns="http://www.w3.org/2000/svg" viewBox="0 0 691.44 194.17"><defs><style>.cls-1{fill:#6f3b53;}</style></defs><title>layer3</title><path class="cls-1" d="M689.53,159.08c-3.56,1.35-7.16,2.59-10.75,3.87a6.77,6.77,0,0,0-1.29.55,22.08,22.08,0,0,1-8.72,2.84,51.22,51.22,0,0,0-5.22,1.24,3.72,3.72,0,0,1-3.05-.28c-2-1.15-4.1-2-6.17-3A4.27,4.27,0,0,0,651,164a10.8,10.8,0,0,1-2.5.57,6,6,0,0,1-3.82-.82c-4-2.42-8.19-4.65-12.32-6.91-2.71-1.49-5.51-1.45-8.47-.69-5.2,1.33-10.43,2.59-15.7,3.61-4.41.85-8.92,1.25-13.35,2-2.56.43-5.08,1.14-7.61,1.76a4.78,4.78,0,0,1-3.6-.24c-2.44-1.38-5.16-1.72-7.82-2.24-2-.38-4-0.51-6-0.75-2.74-.33-5.17.65-7.57,1.77a46.64,46.64,0,0,0-9.81,5.92,1.16,1.16,0,0,1-.89.21c-4-1-7.1,1-10.13,3a22.7,22.7,0,0,0-3.07,3.2c-2.3,2.32-5,3.78-8.35,3.15a16.38,16.38,0,0,1-5.17-2,60.11,60.11,0,0,0-9.73-4.56c-1.73-.61-3.82-0.18-5.75-0.2a5.69,5.69,0,0,1-1.88,0c-1.18-.48-2.06.08-3,0.55a28.77,28.77,0,0,1-4.46,2.31,8.84,8.84,0,0,1-4.15,0A16.5,16.5,0,0,1,491.8,172c-3.19-1.65-3.69-1-6.63,1.34-2,1.61-4,3.27-6.08,4.83a5,5,0,0,1-2.12.93,5.91,5.91,0,0,1-2.29-.2c-1.31-.32-2.58-0.75-4-1.17a13.74,13.74,0,0,1-2.82,6.74c-1,1.21-2,2.42-3.17,3.52a2.75,2.75,0,0,1-1.59.58c-2.77.25-5.51,0.42-8.13,1.59a5.09,5.09,0,0,1-3.14-.18,3.87,3.87,0,0,0-3.89.87c-2.13,1.8-4.33,3.52-6.47,5.3a3,3,0,0,1-3.59.48c-1.93-1-3.8-2.15-5.78-3a3.42,3.42,0,0,0-2.21.23,19.61,19.61,0,0,0-2.27,1.21,3.77,3.77,0,0,1-3.8,0c-0.94-.54-2-1.43-2.93-1.28s-1.63,1.4-2.47,2.12c-2.75,2.37-5.49,4.74-8.28,7.06a2.82,2.82,0,0,1-3.36.29c-3.23-1.62-6.54-3.07-9.81-4.59a1.51,1.51,0,0,0-2.24.72,6.79,6.79,0,0,1-1.7,1.73,3.06,3.06,0,0,1-3.94.08c-2.4-1.52-4.94-2.83-7.36-4.32a43.16,43.16,0,0,1-4.11-2.9,26.56,26.56,0,0,1-3-2.73,33.48,33.48,0,0,0-7.17-5.74,55.34,55.34,0,0,1-5-3.83,16.5,16.5,0,0,0-1.73-1.42,1.67,1.67,0,0,0-1.37-.07c-1.28.65-2.5,1.44-3.75,2.16-1.89,1.09-2.31,1-4.1-.57-0.24-.21-0.44-0.47-0.69-0.67-1.25-1-1.6-.9-2.63.33-1.71,2-3.46,4-5.24,6-1.48,1.63-3,3.21-4.55,4.79a5,5,0,0,1-1.47,1.16,4.51,4.51,0,0,0-2.27,1.93,1.09,1.09,0,0,1-1,.33c-1.62-.53-3.21-1.2-4.83-1.73a13.58,13.58,0,0,0-3.6-.89,4.14,4.14,0,0,0-2.33,1c-1.32,1-2.49,2.17-3.77,3.22a1.79,1.79,0,0,1-1.92.06,71,71,0,0,1-12-6.47,60.21,60.21,0,0,0-7.72-3.86,81,81,0,0,1-11.95-5.85c-1.37-.88-3-1.4-4.35-2.25-2.11-1.3-4-.91-5.9.4-2.15,1.48-4.32,2.94-6.52,4.35a1.69,1.69,0,0,1-1.33.18c-3.37-1.32-6.68-2.78-10.07-4a28.32,28.32,0,0,0-8.81-2.16,18.41,18.41,0,0,0-7,1.63,13.41,13.41,0,0,1-4.83,1.13,12,12,0,0,1-4.25-1.48,46.63,46.63,0,0,0-13.22-3.71c-0.93-.12-1.86-0.28-2.77-0.48-2.86-.63-4.92,1.11-7.14,2.38-1.05.6-2.14,1.14-3.21,1.69-1.77.92-3.2,0.31-4.52-1s-2.43-2.17-3.55-3.35a15.29,15.29,0,0,0-5.22-3.75c-3.9-1.62-7.15-4.29-10.67-6.53a19.76,19.76,0,0,0-4.56-1.92c-1.12-.36-2.13.3-3.07,0.91-1.78,1.16-3.56,1.86-5.46.25a1.23,1.23,0,0,0-2,.26,17.23,17.23,0,0,1-5.68,5.19,22,22,0,0,1-2,1.19,1.94,1.94,0,0,1-2,.12,7.64,7.64,0,0,0-2.32-.73,3.7,3.7,0,0,0-3.31,1.19c-2.2,1.87-4.3,3.85-6.49,5.72s-4.6,3.81-6.92,5.72c-2-1.74-4-3.44-6.58-4.11a8.55,8.55,0,0,0-2.29-.34,1.36,1.36,0,0,0-1.38,1.49,1.59,1.59,0,0,1-.67,1.16c-1.5.73-3.06,1.34-4.74,2.06-1.13-1-2.41-2-3.61-3.17-1.76-1.64-3.09-1.74-5.16-.49-1.39.85-2.88,1.54-4.35,2.25a1,1,0,0,1-.86-0.14,49.86,49.86,0,0,0-11.69-8.22c-2-1.07-4.25-1.72-6.26-2.81-3-1.62-5.94-3.41-8.84-5.22a2.26,2.26,0,0,0-2.62,0,26.3,26.3,0,0,1-5.56,2.34c-1,.25-2.18-0.39-3.27-0.63a31.54,31.54,0,0,0-5.12-1.08c-1.13-.06-2.28.69-3.45,1a9.33,9.33,0,0,1-2.78.34,10.63,10.63,0,0,0-5.4,1.38c-2.09,1-4.19,1.48-6.44.56-1.22-.5-2.48-0.91-3.71-1.39a11.65,11.65,0,0,1-2.2-1,2.11,2.11,0,0,1-1-1.31,1.29,1.29,0,0,0-1.37-1.29,9.81,9.81,0,0,1-5.71-3,5.79,5.79,0,0,0-3.45-1.4c-3.12-.33-5.53-1.93-7.86-3.79a10.3,10.3,0,0,0-1.73-1.21,2,2,0,0,0-1.31-.12,15.25,15.25,0,0,0-2.48,1,4.43,4.43,0,0,1-5-.56c-1.09-.8-2.38-1.32-3.55-2a14.62,14.62,0,0,1-2.69-1.9c-1.65-1.62-3.17-3.37-4.75-5.06a5.22,5.22,0,0,0-.23,1.08q0,53.66,0,107.31H-0.12V339.6H691.32V157.67A7.64,7.64,0,0,1,689.53,159.08Z" transform="translate(0.12 -145.43)"/></svg>