<svg id="Layer_7_Image" data-name="Layer 7 Image" xmlns="http://www.w3.org/2000/svg" viewBox="0 0 691.44 248.28"><defs><style>.cls-1{fill:#edbfe2;}</style></defs><title>layer7</title><path class="cls-1" d="M691.44,98c-3,.95-6.12,1.83-9.13,2.87a30.25,30.25,0,0,0-8.49,4.62,20.66,20.66,0,0,1-7.89,3.84,2.33,2.33,0,0,1-1.24-.12c-2.36-.85-4.68-1.8-7.06-2.56a2.67,2.67,0,0,0-2.08.36q-3.69,2.73-7.21,5.69c-1.95,1.64-3.77,3.43-5.66,5.15-2.26,2.05-4.83,1.48-7,.27-2.7-1.48-5-1.32-7.07.71-1.73,1.68-3.27,1.29-4.93.06-0.32-.24-0.7-0.39-1-0.6-3.29-2.08-4.08-1.64-6.8.8-1.45,1.3-2.61,2.93-4.07,4.22-2,1.73-4.17,3.2-6.14,4.93-2.87,2.52-5.65,5.12-8.39,7.78a7.63,7.63,0,0,0-1.07,2.32c-2-.42-4-0.85-6-1.26a14,14,0,0,0-2.71-.4c-2.43,0-4.87.09-7.3,0.19-2.69.11-5.06-1-7.47-1.92s-4.7-1.83-7.38-1.74a14.32,14.32,0,0,1-4.48-1.08c-1.4-.44-2.77-1-4.14-1.56-4.37-1.74-8.78-3.39-13.08-5.29-2.62-1.16-5.06-2.72-7.58-4.08a16.2,16.2,0,0,0-7.7-1.86c-1.42,0-2.85-.3-4.27-0.36a21.08,21.08,0,0,0-3.09.15c-5.67.6-10.25-1.71-14.39-5.28-2.66-2.29-5.29-4.61-8.05-6.77a53.11,53.11,0,0,0-5.05-3.21,2,2,0,0,0-2.34.07c-1.47,1-3,1.79-4.54,2.67a1.57,1.57,0,0,1-2.09-.24c-2.08-2.25-4.83-3-7.68-3.56-2-.4-3.88-0.92-5.8-1.47s-2.84-.18-4.31,1.3a35.24,35.24,0,0,1-4.22,3q-2.87,2.14-5.67,4.38c-1.74,1.39-3.44,2.84-5.14,4.29a0.91,0.91,0,0,1-1.35,0c-1.1-.92-2.17-1.87-3.33-2.71-1.68-1.2-3.43-2.31-5.14-3.46a0.83,0.83,0,0,0-1.44.48,11.44,11.44,0,0,1-3.07,4.35,1.94,1.94,0,0,1-2.67.46c-0.82-.51-1.33-0.32-2,0.46-2.12,2.47-4.36,4.85-6.61,7.2-2,2-3.89,4.13-6,6-1.34,1.15-3.13,1.76-4.58,2.8-2.92,2.08-5.76,4.28-8.62,6.45s-5.94,4.45-8.82,6.78c-3.72,3-7.45,6-11,9.23-2.27,2-4.21,4.45-6.31,6.68-0.9,1-1.88,1.83-2.79,2.78-1.6,1.67-3.15,3.4-4.8,5a1.58,1.58,0,0,1-1.35.1,38.4,38.4,0,0,1-11.23-6.91,63.44,63.44,0,0,1-6.73-5.88,30.75,30.75,0,0,0-7.4-5.77,4.72,4.72,0,0,0-2.48-.65,3.48,3.48,0,0,1-3-1.29,11.31,11.31,0,0,0-2.22-2,2.37,2.37,0,0,0-1.62-.24c-0.89.17-1.72,0.67-2.61,0.8-3,.46-4.24-0.52-5.49-2.68-0.93-1.61-.88-1.64-2.66-1.22a2.43,2.43,0,0,1-2.45-.57c-3.32-2.93-6.82-5.65-10.08-8.63a44.05,44.05,0,0,1-4.57-5.36c-1.23-1.56-1.25-1.56-2.84-.54-2.86,1.82-5.81,3.5-8.66,5.34a23.25,23.25,0,0,0-4.88,3.63c-2.83,3.16-6.34,5.32-9.9,7.42a74.27,74.27,0,0,1-10.66,5.65c-3.48,1.35-3.92,1.25-6.5-1.8-1.67-2-3-4.24-5.65-5.18a2.64,2.64,0,0,1-1-1.16,10.51,10.51,0,0,0-5.76-4.46,15.64,15.64,0,0,1-5-2.74,24.39,24.39,0,0,0-9.21-4.47,18.76,18.76,0,0,1-9-5.85c-1.69-1.84-3.22-3.83-4.93-5.65a3.42,3.42,0,0,0-2.23-1.11c-1.75.06-2.74-1-3.9-2-4.73-3.79-9.36-7.71-14.25-11.28-3.44-2.51-7.24-4.53-10.87-6.78-0.57-.35-1.11-0.77-1.65-1.14a0.65,0.65,0,0,0-.26.07c-2.86,3-5.68,6-8.6,8.94a21.65,21.65,0,0,1-4.17,3.38c-0.66.39-1.85,0.08-2.73-.18a1.79,1.79,0,0,0-2.14.6q-4.16,4.47-8.51,8.74a5.19,5.19,0,0,1-4.2,1.67c-0.71-.07-1.44,0-2.16,0a7.63,7.63,0,0,0-4.64,1.28,27,27,0,0,1-3.42,1.69,6.81,6.81,0,0,1-1.69.14,2.74,2.74,0,0,0-1.36.31,1.1,1.1,0,0,1-1.5.08c-1.15-.71-2.34-1.37-3.48-2.09a1.33,1.33,0,0,0-2,.25c-0.84.9-1.81,1.67-2.73,2.5a1.35,1.35,0,0,1-2.06,0,49.88,49.88,0,0,0-10.31-6.93,36.89,36.89,0,0,1-5.79-2.82,62.08,62.08,0,0,1-7-6,47.05,47.05,0,0,0-9.52-7.21c-4.07-2.29-8.28-4.34-12.52-6.3a22.59,22.59,0,0,0-4.75-1.07l-1.14-.24H83c-3.26,1-5.69,3.35-8.17,5.5-1.88,1.64-3.54,2.14-5.82.9a15,15,0,0,0-4-1.1c-1.5-.32-2.56.44-3.56,1.47a27.59,27.59,0,0,1-3.77,3.44,26.07,26.07,0,0,0-6.5,6.6,15.61,15.61,0,0,1-2.43,2.43c-2,1.79-3.52,4-5.9,5.35-1.06.62-1.57,2.21-2.27,3.4a27.21,27.21,0,0,0-1.9,3.59c-0.79,2-5.6,3.17-7.61,2a5,5,0,0,1-.91-0.92c-1.43-1.44-2.92-2.82-4.28-4.32-1.2-1.32-2.27-2.76-3.35-4.19a2.3,2.3,0,0,0-2.68-1,11,11,0,0,1-2.23.34,3.54,3.54,0,0,1-2.89-1.18c-2.6-2.71-5.23-5.39-8.6-7.17-1.4-.74-2.82-1.45-4.29-2.05a4,4,0,0,0-1.62.1V239H0V339.6H691.2V248.75h0.24V98Z" transform="translate(0 -91.32)"/></svg>