<svg id="Supply" xmlns="http://www.w3.org/2000/svg" viewBox="0 0 608 339.62"><defs><style>.cls-1,.cls-2{fill:none;}.cls-1{stroke:#bc485e;stroke-miterlimit:10;stroke-width:3px;}</style></defs><title>premiums_individual</title><polyline id="premiums_individual" class="cls-1" points="41.73 221.88 47.94 217.88 50.01 218.03 84.82 216.13 90.28 221.4 97.24 221.17 101.39 225.32 109.9 218.63 125.83 218.63 136.5 220.92 141.85 210.27 146.75 211.28 153.76 216.55 161.95 212.45 167.8 206.79 190.15 197.38 195.47 200.32 202.39 193.94 207.78 187.37 210.7 186.98 216.59 192.01 225.79 195.54 264.9 186.77 271.66 193.83 280.97 196.23 306.95 189.38 327.23 182.82 346.92 165.24 352.29 165.24 374.9 167.16 381.01 169.03 383.5 168.43 386.71 168.29 389.56 165.21 401.32 156.57 416.76 157.41 420.18 156.47 426.05 153.34 444.57 142.91 451.09 137.61 461.73 126.5 465.76 128.04 469.37 131.45 482.94 120.8 483.64 120.42 491.88 124.66 505.69 129.22 509.82 131.82 516.41 130.67 525.29 126.36 528.97 123.83 533.42 125.87 542.92 120.42 548.18 122.92 554.23 120.42 563.85 112.45"/><g id="dimensions"><polygon class="cls-2" points="608 339.62 0 339.62 0 180.51 0 0 608 0 608 339.62"/></g></svg>