<?xml version="1.0" encoding="utf-8"?>
<!-- Generator: Adobe Illustrator 19.2.0, SVG Export Plug-In . SVG Version: 6.00 Build 0)  -->
<svg version="1.1" id="Layer_1" xmlns="http://www.w3.org/2000/svg" xmlns:xlink="http://www.w3.org/1999/xlink" x="0px" y="0px"
	 viewBox="0 0 512 512" style="enable-background:new 0 0 512 512;" xml:space="preserve">
<style type="text/css">
	.st0{fill:#F1ECDE;}
	.st1{fill:#323232;}
	.st2{fill:#E8E9EC;}
	.st3{fill:#CDCCCA;}
	.st4{fill:#E65439;}
	.st5{fill:#3AB49C;}
	.st6{fill:#EDC849;}
	.st7{fill:#F79D22;}
	.st8{fill:#DE8729;}
	.st9{fill:#DDAE2A;}
</style>
<path class="st0" d="M255.3,0C114.3,0,0,114.3,0,255.3s114.3,255.3,255.3,255.3s255.3-114.3,255.3-255.3S396.3,0,255.3,0z
	 M255.3,492C124.7,492,18.7,386,18.7,255.3S124.7,18.7,255.3,18.7S492,124.6,492,255.3S386,492,255.3,492L255.3,492z"/>
<path class="st0" d="M255.3,33.7C133,33.7,33.7,133,33.7,255.3S133,476.9,255.3,476.9s221.6-99.2,221.6-221.6S377.7,33.7,255.3,33.7
	z M255.3,460.7c-113.4,0-205.3-92-205.3-205.4S141.9,50,255.3,50s205.4,91.9,205.4,205.4S368.8,460.7,255.3,460.7L255.3,460.7z"/>
<path class="st1" d="M442.8,158.6c-0.9-4.4-12.9-6.6-14.3-10.8c-1.4-4.3,7.4-13.3,5.2-17.2c-2.2-3.9-14.5-0.7-17.5-4.1
	c-3-3.3,1.4-15.2-2.2-17.8c-3.6-2.6-13.5,5.2-17.6,3.4c-4.1-1.8-4.9-14.4-9.3-15.4c-4.4-0.9-10.2,10.3-14.7,10.3
	S362,95.7,357.6,96.7c-4.4,0.9-5.2,13.5-9.3,15.4c-4.1,1.8-14-6-17.6-3.4c-3.6,2.6,0.8,14.5-2.2,17.8s-15.2,0.2-17.5,4.1
	c-2.2,3.9,6.6,12.9,5.2,17.2c-1.4,4.3-13.4,6.4-14.3,10.8c-0.4,1.9,1.6,3.8,4.1,5.8H300h-235c-5.5,0-10,4.5-10,10v28.5V397
	c0,5.5,4.5,10,10,10h344.8c5.5,0,10-4.5,10-10V214.4c2.2,0.2,4.1,0.1,5.1-1c3-3.3-3.8-14-1.5-17.9c2.2-3.9,14.9-3.4,16.2-7.6
	c1.4-4.3-9.1-11.3-8.7-15.7C431.5,167.7,443.7,163,442.8,158.6z"/>
<path class="st2" d="M438.4,365.6c0,5.5-4.5,10-10,10H83.6c-5.5,0-10-4.5-10-10V143c0-5.5,4.5-10,10-10h344.8c5.5,0,10,4.5,10,10
	V365.6z"/>
<rect x="86.9" y="184.6" class="st3" width="338.2" height="63.2"/>
<rect x="86.9" y="255.9" class="st3" width="169.2" height="5.5"/>
<rect x="86.9" y="269.2" class="st3" width="169.2" height="5.5"/>
<rect x="86.9" y="282.6" class="st3" width="338.2" height="5.5"/>
<rect x="86.9" y="296" class="st3" width="338.2" height="5.5"/>
<rect x="86.9" y="309.3" class="st3" width="338.2" height="5.5"/>
<rect x="86.9" y="322.7" class="st3" width="338.2" height="5.5"/>
<rect x="86.9" y="336.1" class="st3" width="338.2" height="5.5"/>
<path class="st3" d="M428.4,133H83.6c-5.5,0-10,4.5-10,10v28.5h364.8V143C438.4,137.5,433.9,133,428.4,133z"/>
<path class="st4" d="M84.7,152.3c0-4.9,4-8.8,8.8-8.8s8.8,4,8.8,8.8c0,4.9-4,8.8-8.8,8.8S84.7,157.1,84.7,152.3z"/>
<path class="st5" d="M109.4,152.3c0-4.9,4-8.8,8.8-8.8c4.9,0,8.8,4,8.8,8.8c0,4.9-4,8.8-8.8,8.8
	C113.4,161.1,109.4,157.1,109.4,152.3z"/>
<path class="st6" d="M134.1,152.3c0-4.9,4-8.8,8.8-8.8c4.9,0,8.8,4,8.8,8.8c0,4.9-4,8.8-8.8,8.8
	C138.1,161.1,134.1,157.1,134.1,152.3z"/>
<path class="st3" d="M438.4,172.2V143c0-5.5-4.5-10-10-10H318.6c-2.4,1.3-4.3,2.6-4.7,4.3c-0.9,4.4,11.3,9.1,11.7,13.6
	c0.5,4.5-10,11.5-8.7,15.7c1.4,4.3,14,3.7,16.3,7.6c2.2,3.9-4.5,14.6-1.5,17.9c2.5,2.8,11-0.7,15.8-0.3v14v65.6l36.9-27.5l36.9,27.5
	v-65.6v-14c4.8-0.4,13.2,3.1,15.8,0.3c3-3.3-3.8-14-1.5-17.9C436,173.4,437.1,172.7,438.4,172.2z"/>
<g>
	<polygon class="st7" points="354,261.4 390.9,233.9 427.8,261.4 427.8,131.5 354,131.5 	"/>
	<path class="st8" d="M354,195.8c0.8,5.1,1.1,11.3,4,12.6c4.7,2.1,13.9-9,18.9-8c5,1.1,8.9,14.9,14,14.9s9-13.9,14-14.9
		c5-1.1,14.2,10,18.9,8c3-1.3,3.2-7.5,4-12.6v-64.3H354L354,195.8L354,195.8z"/>
	<path class="st7" d="M390.9,75.6c4.5,0,10.3-11.2,14.7-10.3c4.4,0.9,5.2,13.5,9.3,15.4c4.1,1.8,14-6,17.6-3.4
		c3.6,2.6-0.8,14.5,2.2,17.8s15.2,0.2,17.5,4.1s-6.6,12.9-5.2,17.2c1.4,4.3,13.4,6.4,14.3,10.8c0.9,4.4-11.3,9.1-11.7,13.6
		c-0.5,4.5,10,11.5,8.7,15.7c-1.4,4.3-14,3.7-16.3,7.6c-2.2,3.9,4.5,14.6,1.5,17.9s-14.3-2.3-18,0.4c-3.6,2.6-1.8,15.1-5.9,17
		c-4.1,1.8-12.2-7.9-16.5-7c-4.4,0.9-7.8,13.1-12.3,13.1c-4.5,0-7.9-12.2-12.3-13.1c-4.4-0.9-12.4,8.8-16.5,7
		c-4.1-1.8-2.3-14.3-5.9-17c-3.6-2.6-14.9,3-18-0.4c-3-3.3,3.8-14,1.5-17.9c-2.2-3.9-14.9-3.4-16.3-7.6c-1.4-4.3,9.1-11.3,8.7-15.7
		c-0.5-4.5-12.6-9.2-11.7-13.6c0.9-4.4,12.9-6.6,14.3-10.8c1.4-4.3-7.4-13.3-5.2-17.2c2.2-3.9,14.5-0.7,17.5-4.1
		c3-3.3-1.4-15.2,2.2-17.8s13.5,5.2,17.6,3.4c4.1-1.8,4.9-14.4,9.3-15.4C380.5,64.4,386.4,75.6,390.9,75.6z"/>
	<path class="st6" d="M345.7,135.4c0-24.9,20.2-45.1,45.1-45.1s45.1,20.2,45.1,45.1c0,24.9-20.2,45.1-45.1,45.1
		S345.7,160.3,345.7,135.4z"/>
	<circle class="st9" cx="390.9" cy="135.4" r="35.7"/>
</g>
</svg>
