<svg id="Supply" xmlns="http://www.w3.org/2000/svg" viewBox="0 0 691.15 250.59"><defs><style>.cls-1,.cls-2{fill:none;}.cls-1{stroke:#bc485e;stroke-miterlimit:10;stroke-width:3px;}.cls-3{fill:#bc485e;}</style></defs><title>supply</title><polyline class="cls-1" points="48.05 32.23 55.09 27.31 57.43 27.49 96.56 53.6 102.07 51.34 110.64 59.8 115.34 64.9 123.44 69.86 144.53 88.13 156.97 74.75 162.68 68.41 169.97 57.92 176.69 57.23 185.49 49.08 190.51 43.78 216.29 14.36 222.32 17.98 230.17 10.14 236.28 2.06 239.59 1.59 246.27 7.76 255.53 19.7 296.57 57 304.23 65.68 314.09 75.55 360.52 111.76 371.82 97.36 394.15 75.76 399.25 74.04 425.87 50.02 432.79 52.33 434.96 53.62 439.26 51.42 442.49 47.62 455.81 37.01 474.1 54.13 477.98 52.97 484.62 49.11 504.77 69.95 512.16 63.45 524.23 49.79 528.79 51.68 532.88 55.87 548.27 42.79 549.07 42.32 558.4 47.54 574.05 53.14 578.74 56.33 586.53 64.94 599.37 72.59 603.54 69.48 608.59 71.98 619.36 65.28 625.32 68.36 632.59 62.59 642.99 50.98"/><polygon class="cls-2" points="691.15 250.59 0 250.59 0 133.93 0 1.59 691.15 1.59 691.15 250.59"/><path class="cls-3" d="M593.32,176.09a3.7,3.7,0,0,0,1.87.53,1.45,1.45,0,0,0,1.69-1.38c0-.76-0.43-1.19-1.52-1.61-1.32-.47-2.13-1.15-2.13-2.29a2.33,2.33,0,0,1,2.61-2.19,3.68,3.68,0,0,1,1.79.4l-0.29.85a3.22,3.22,0,0,0-1.54-.38,1.31,1.31,0,0,0-1.52,1.21c0,0.76.49,1.13,1.61,1.56,1.37,0.53,2.06,1.19,2.06,2.38s-0.92,2.33-2.83,2.33a4.17,4.17,0,0,1-2.06-.52Z" transform="translate(-0.06 -89.01)"/><path class="cls-3" d="M604.2,175.78c0,0.6,0,1.13,0,1.58h-0.94l-0.06-.95h0a2.19,2.19,0,0,1-1.92,1.08c-0.91,0-2-.5-2-2.54v-3.39h1.05v3.21c0,1.1.34,1.85,1.3,1.85a1.49,1.49,0,0,0,1.49-1.5v-3.56h1.05v4.22Z" transform="translate(-0.06 -89.01)"/><path class="cls-3" d="M606,173.46c0-.74,0-1.34,0-1.9h0.95l0,1h0a2.28,2.28,0,0,1,2.06-1.13c1.4,0,2.46,1.19,2.46,3,0,2.09-1.27,3.12-2.64,3.12a2,2,0,0,1-1.79-.91h0v3.15h-1v-6.28Zm1,1.55a2.42,2.42,0,0,0,0,.43,1.63,1.63,0,0,0,1.58,1.24c1.12,0,1.76-.91,1.76-2.24a1.89,1.89,0,0,0-1.73-2.16,1.68,1.68,0,0,0-1.59,1.31,1.71,1.71,0,0,0-.07.43v1Z" transform="translate(-0.06 -89.01)"/><path class="cls-3" d="M612.78,173.46c0-.74,0-1.34,0-1.9h0.95l0,1h0a2.28,2.28,0,0,1,2.06-1.13c1.4,0,2.46,1.19,2.46,3,0,2.09-1.27,3.12-2.64,3.12a2,2,0,0,1-1.79-.91h0v3.15h-1v-6.28Zm1,1.55a2.42,2.42,0,0,0,0,.43,1.63,1.63,0,0,0,1.58,1.24c1.12,0,1.76-.91,1.76-2.24a1.89,1.89,0,0,0-1.73-2.16,1.68,1.68,0,0,0-1.59,1.31,1.71,1.71,0,0,0-.07.43v1Z" transform="translate(-0.06 -89.01)"/><path class="cls-3" d="M619.61,168.85h1.05v8.52h-1.05v-8.52Z" transform="translate(-0.06 -89.01)"/><path class="cls-3" d="M622.82,171.56l1.27,3.43c0.13,0.38.28,0.84,0.37,1.19h0c0.11-.35.23-0.79,0.37-1.21l1.15-3.41h1.12l-1.58,4.14c-0.75,2-1.27,3-2,3.63a2.85,2.85,0,0,1-1.3.68l-0.26-.89a2.8,2.8,0,0,0,.92-0.52,3.2,3.2,0,0,0,.89-1.18,0.76,0.76,0,0,0,.08-0.25,0.93,0.93,0,0,0-.07-0.28l-2.15-5.35h1.15Z" transform="translate(-0.06 -89.01)"/></svg>